<?xml version="1.0" encoding="utf-8"?>
<!-- Generator: Adobe Illustrator 28.2.0, SVG Export Plug-In . SVG Version: 6.00 Build 0)  -->
<svg version="1.1" id="Layer_1" xmlns="http://www.w3.org/2000/svg" xmlns:xlink="http://www.w3.org/1999/xlink" x="0px" y="0px"
	 viewBox="0 0 120.1 66" style="enable-background:new 0 0 120.1 66;" xml:space="preserve">
<style type="text/css">
	.st0{clip-path:url(#SVGID_00000166669372189683817130000012736824295503916179_);}
	.st1{fill-rule:evenodd;clip-rule:evenodd;fill:#17121A;}
	.st2{fill:#17121A;}
</style>
<g>
	<defs>
		<rect id="SVGID_1_" x="0.1" y="7" width="120.7" height="52.6"/>
	</defs>
	<clipPath id="SVGID_00000177475930164752597310000016677183094471475096_">
		<use xlink:href="#SVGID_1_"  style="overflow:visible;"/>
	</clipPath>
	<g style="clip-path:url(#SVGID_00000177475930164752597310000016677183094471475096_);">
		<path class="st1" d="M46.7,7.3c-6.2,2.2-10.1,13.4-11.1,31.7l-0.2,3.6l-4.1,2.8c-4.5,3.1-8.6,5.3-11.2,6c-1.2,0.3-2.6,0.4-4.5,0.3
			c-2.4-0.1-2.9-0.2-4.2-0.9c-2.7-1.5-4-4.3-4-8.6c0-3.1,0.5-5.7,1.7-9.4c3.6-10.9,10.6-18.1,16.3-16.9c3.2,0.7,4.6,3.4,3.7,7.1
			c-1,4.2-5.4,7.7-9,7.1c-2.4-0.4-2.8-0.3-3.2,0.4c-0.4,0.8-0.5,3.3-0.1,4c0.4,0.7,2.3,1.4,4.1,1.4c7.7,0,15.5-9.6,14.1-17.4
			c-1.6-8.6-11-11.1-19.8-5.2C5.4,19.7-1.7,35.7,0.5,46.2c1.3,6.5,6.3,11.5,12,12c2.8,0.3,6.7,0,9.4-0.7c4.1-1.1,7.4-2.9,11.4-6.3
			l2.1-1.8l0.1,1.4c0.2,1.8,0.9,2.8,2.1,2.9c0.5,0,1.1-0.1,1.4-0.3c0.3-0.2,1.2-1.8,2.1-3.6c0.9-1.8,2.5-4.5,3.5-6.1
			c1.9-2.8,4.4-6,4.9-6.2c0.1,0-0.1,0.7-0.6,1.7c-2.3,5.1-2.4,9.1-0.5,12.1c1.9,3,4.9,3.1,9.6,0.3c0.9-0.5,1.6-0.9,1.7-0.9
			s0.3,0.4,0.5,0.9c0.9,1.9,3.7,2.6,6.9,1.6c1.7-0.5,4.9-2,6.1-3c0.5-0.4,1-0.6,1.1-0.6c0.1,0,0.6,0.6,1,1.4c1,1.8,2.3,2.6,3.8,2.6
			c1.4,0,3.8-0.8,6-1.9l1.6-0.8l0.6,1c1.7,3,7.8,2,13.3-2.1l1.6-1.2v-2.7c0-3.1,0.3-3-2.6-0.5c-2,1.8-4.6,3.3-5.4,3.3
			c-0.4,0-0.7-0.2-0.9-0.7C92.6,46.6,93,44.2,95,37c1.3-4.8,1.4-5.7,0.8-6.3c-0.9-0.9-4.5-0.2-5.5,1c-0.3,0.3-1.1,3.2-1.9,6.6
			l-1.4,6l-1.4,0.9c-1.9,1.3-4.1,2.3-4.7,2.3c-0.7,0-1.3-1.4-1.3-3.1c0-1.8,0.8-3.6,3.5-8.7c6.6-12.1,8.9-18.5,8.6-23.9
			C91.3,8.5,90.2,7,87.8,7c-5.7,0-12.1,11.4-14.6,25.8c-0.5,2.9-0.6,4.3-0.5,8l0.1,4.6L71,46.9c-3.5,2.7-4.8,2.6-4.8-0.4
			c0-2,0.4-3.7,1.9-9.2c1.3-4.9,1.5-6.4,0.7-6.8c-1.2-0.7-4.1,0-5.2,1.2c-0.4,0.5-1.5,4.3-2.7,9.4c-0.6,2.6-0.6,2.7-2,3.9
			c-1.5,1.3-3.6,2.5-4.5,2.5c-0.8,0-1.2-1.3-1-3.1c0.1-0.9,0.7-3.3,1.4-5.4c1-3,1.2-4.2,1.2-5.9c0-1.8,0-2.2-0.6-2.7
			c-1.8-1.8-5.1,0.2-9.4,5.3c-1.2,1.4-2.1,2.5-2.2,2.5c-0.1-0.1,0.7-1.5,1.6-3.2c2.1-3.9,4.7-9.6,6-13c1.5-4.1,2.2-6.8,2.2-9.6
			c0-2.9-0.5-4.3-2-5.1C50.6,6.9,48,6.9,46.7,7.3z M51.6,7.8c3.8,2.3,1.7,11.5-5.7,25.9c-1.3,2.4-2.3,4.5-2.3,4.7
			c0,0.8,0.9,0.1,2.7-2.2c3.3-4.1,6.7-6.5,8.2-5.9c1.9,0.7,1.9,2.7,0.2,8.3c-2.5,7.9-2,10.5,1.7,8.7c0.8-0.4,2-1.3,2.8-2l1.4-1.3
			l1.3-5.4c0.7-3,1.4-5.7,1.6-6.1c0.4-0.8,2-1.6,3.5-1.8c2.2-0.3,2.4,0.6,1.1,5.2c-2.1,7.5-2.8,11.9-1.9,12.9c0.8,1,2.7,0.3,5.6-2
			l1.6-1.3l-0.2-1.3c-0.3-2.1-0.3-7.6,0.2-10.4c1.6-10.3,6.3-21.3,10.7-24.8c3.3-2.6,6.2-2.1,7,1.2c1.1,4.3-0.5,10.2-5.5,19.8
			c-1.8,3.5-3.9,7.6-4.7,9.2c-1.2,2.4-1.5,3.2-1.6,4.7c-0.2,2.5,0.4,3.9,1.5,3.9c1,0,2.8-0.8,4.9-2.2c1.6-1.1,1.7-1.2,2-2.6
			c0.2-0.8,0.8-3.6,1.5-6.1c1.3-5,1.6-5.5,3.6-6.1c2-0.6,3.3-0.1,3.3,1c0,0.3-0.6,2.7-1.3,5.4c-1.5,5.7-2,8.5-1.8,10.2
			c0.2,1.9,1.1,2.2,3.3,1.1c0.7-0.4,2.3-1.5,3.6-2.6l2.2-1.9v4.6l-1.7,1.2c-5.9,4.2-11.4,4.9-12.9,1.6L87,50.5l-1.9,1
			c-2.6,1.3-4.6,2-6,2c-1.4,0-2.5-0.9-3.7-2.9c-0.4-0.8-0.9-1.4-0.9-1.4c-0.1,0-1,0.6-2.1,1.3c-5.5,3.6-10.3,4-11.9,1.2
			c-0.3-0.5-0.5-1-0.6-1.2c0-0.1-0.9,0.3-1.9,0.9c-3.2,2-5.9,2.6-7.5,1.8c-1.8-0.9-3.2-4-3.2-6.8c0-1.6,1.1-5.3,2.3-7.6
			c0.5-1.1,0.6-1.4,0.3-1.5c-1.1-0.4-6.4,6.9-9.1,12.4c-0.9,1.8-1.8,3.4-2,3.6c-0.6,0.5-1.8,0.2-2.4-0.6c-0.3-0.4-0.6-1.3-0.7-2.2
			c-0.1-0.8-0.2-1.5-0.3-1.5c-0.1,0-0.8,0.6-1.6,1.4c-6,5.5-11.6,7.8-18.9,7.8c-2.4,0-3.4-0.1-4.7-0.6C5.9,56,2.6,52.4,1,47.1
			c-0.4-1.2-0.5-2.5-0.5-5.4c0-3.3,0.1-4.1,0.8-6.6C3.2,28,6.6,21.8,11,17.3c3.8-3.9,7-5.8,11.1-6.7c6.3-1.3,11.5,2,12.6,8.1
			c1.2,7.1-5.9,16.4-13,16.9c-2.2,0.2-3.9-0.3-4.5-1.2c-0.6-0.8-0.4-3.5,0.2-4.1c0.4-0.4,0.6-0.4,1.7-0.1
			c5.5,1.5,11.7-4.8,10.4-10.6c-0.6-2.8-2.3-4.1-5.4-4.1c-1.5,0-2.2,0.2-3.6,0.8c-5.5,2.6-11.3,12-13,21.2c-0.7,3.6-0.5,7.9,0.5,9.9
			c1.5,3.2,3.9,4.6,8.2,4.6c4.8,0,7.9-1.3,14.9-6l4.5-3.1l0.3-5.1c0.7-11.2,2.3-19.1,5-24.3c1.4-2.7,3.8-5.3,5.6-5.9
			C48.3,7.1,50.5,7.2,51.6,7.8z M47.1,12.7c-1.2,1.7-2.9,5.3-3.7,7.6c-0.8,2.5-1.9,8.2-2.4,12.6c-0.3,3-0.4,3.9-0.1,3.5
			c0.4-0.5,6-14.3,6.8-16.7c0.8-2.6,1-3.5,1-5.5c0-2.1,0-2.4-0.4-2.5C48.1,11.6,47.6,12,47.1,12.7z M48.7,13.5
			c0,1.9-0.7,4.9-1.9,8.1c-1.7,4.5-5.5,13.3-5.6,12.8c-0.1-0.8,0.9-7.2,1.7-10.9c0.7-2.9,2.1-6.8,3.4-9c0.9-1.5,1.8-2.7,2.1-2.7
			C48.6,11.9,48.7,12.6,48.7,13.5z M84.7,14.1c-2.6,2.6-5.3,11.1-5.6,17.4c-0.2,3.5-0.2,3.5,2.1-1c3.3-6.5,5.4-12.5,5.4-15.6
			c0-1.3-0.1-1.6-0.5-1.6C85.7,13.2,85.1,13.6,84.7,14.1z M86.2,15.5c-0.2,2.8-2,8-4.7,13.4l-2.2,4.5l0.1-2.3
			c0.4-5.8,3.1-14.1,5.5-16.7C86.1,13,86.3,13.2,86.2,15.5z M66.5,20c-2,1-2.7,3.4-1.7,5.5c0.6,1.3,1.9,1.8,4.2,1.7
			c2.1-0.1,3-0.6,3.9-2.1c0.6-1.1,0.7-3.3,0-4.2C71.9,19.4,68.6,18.9,66.5,20z M93.6,19.9c-1.7,0.9-2.7,2.9-2.2,4.8
			c0.4,1.9,1.6,2.6,4.1,2.6c2.2,0,3.6-0.7,4.3-2.2c1-1.9,0.7-4-0.8-5C98,19.4,94.8,19.2,93.6,19.9z M71.2,20.1
			c1.3,0.5,1.8,1.4,1.8,3c0,2.4-1.8,3.9-4.6,3.9c-2.3,0-3.7-1.2-3.7-3.2C64.6,20.8,68.1,18.8,71.2,20.1z M98.3,20.1
			c1.2,0.6,1.8,1.7,1.6,3.3C99.7,25.7,98,27,95.4,27c-1.9,0-3.2-0.8-3.7-2.3c-0.6-1.8,0.5-4,2.4-4.7C95.1,19.6,97.3,19.6,98.3,20.1z
			 M110.4,40.5c-3.3,1.5-4.5,5.2-3,8.8c0.8,1.9,0.9,2.8,0.1,3.8c-1.3,1.7-2.9,1.9-4.9,0.6c-1.7-1.1-3.2-0.7-3.2,0.8
			c0,0.7,2.6,3.3,4,4c6.1,3.3,14.3-0.5,16.2-7.5c0.5-1.8,0.5-4.6-0.1-6.1c-0.5-1.6-2.3-3.6-3.8-4.3
			C114.4,39.8,111.8,39.8,110.4,40.5z"/>
		<path class="st1" d="M51.6,7.8c3.8,2.3,1.7,11.5-5.7,25.9c-1.3,2.4-2.3,4.5-2.3,4.7c0,0.8,0.9,0.1,2.7-2.2
			c3.3-4.1,6.7-6.5,8.2-5.9c1.9,0.7,1.9,2.7,0.2,8.3c-2.5,7.9-2,10.5,1.7,8.7c0.8-0.4,2-1.3,2.8-2l1.4-1.3l1.3-5.4
			c0.7-3,1.4-5.7,1.6-6.1c0.4-0.8,2-1.6,3.5-1.8c2.2-0.3,2.4,0.6,1.1,5.2c-2.1,7.5-2.8,11.9-1.9,12.9c0.8,1,2.7,0.3,5.6-2l1.6-1.3
			l-0.2-1.3c-0.3-2.1-0.3-7.6,0.2-10.4c1.6-10.3,6.3-21.3,10.7-24.8c3.3-2.6,6.2-2.1,7,1.2c1.1,4.3-0.6,10.2-5.5,19.8
			c-1.8,3.5-3.9,7.6-4.7,9.2c-1.2,2.4-1.5,3.2-1.6,4.7c-0.2,2.5,0.4,3.9,1.5,3.9c1,0,2.8-0.8,4.9-2.2c1.6-1.1,1.7-1.2,2-2.6
			c0.2-0.8,0.8-3.6,1.5-6.1c1.3-5,1.6-5.5,3.6-6.1c2-0.6,3.3-0.1,3.3,1c0,0.3-0.6,2.7-1.3,5.4c-1.5,5.7-2,8.5-1.8,10.2
			c0.2,1.9,1.1,2.2,3.3,1.1c0.7-0.4,2.3-1.5,3.6-2.6l2.2-1.9v4.6l-1.7,1.2c-5.9,4.2-11.4,4.9-12.9,1.6L87,50.5l-1.9,1
			c-2.6,1.3-4.6,2-6,2c-1.4,0-2.5-0.9-3.7-2.9c-0.4-0.8-0.9-1.4-0.9-1.4c-0.1,0-1,0.6-2.1,1.3c-5.5,3.6-10.3,4-11.9,1.2
			c-0.3-0.5-0.5-1-0.6-1.2c0-0.1-0.9,0.3-1.9,0.9c-3.2,2-5.9,2.6-7.5,1.8c-1.8-0.9-3.2-4-3.2-6.8c0-1.6,1.1-5.3,2.3-7.6
			c0.5-1.1,0.6-1.4,0.3-1.5c-1.1-0.4-6.4,6.9-9.1,12.4c-0.9,1.8-1.8,3.4-2,3.6c-0.6,0.5-1.8,0.2-2.4-0.6c-0.3-0.4-0.6-1.3-0.7-2.2
			c-0.1-0.8-0.2-1.5-0.3-1.5c-0.1,0-0.8,0.6-1.6,1.4c-6,5.5-11.6,7.8-18.9,7.8c-2.4,0-3.4-0.1-4.7-0.6C5.9,56,2.6,52.4,1,47.1
			c-0.4-1.2-0.5-2.5-0.5-5.4c0-3.3,0.1-4.1,0.8-6.6C3.2,28,6.6,21.8,11,17.3c3.8-3.9,7-5.8,11.1-6.7c6.3-1.3,11.5,2,12.6,8.1
			c1.2,7.1-5.9,16.4-13,16.9c-2.2,0.2-3.9-0.3-4.5-1.2c-0.6-0.8-0.4-3.5,0.2-4.1c0.4-0.4,0.6-0.4,1.7-0.1
			c5.5,1.5,11.7-4.8,10.4-10.6c-0.6-2.8-2.3-4.1-5.4-4.1c-1.5,0-2.2,0.2-3.6,0.8c-5.5,2.6-11.3,12-13,21.2c-0.7,3.6-0.5,7.9,0.5,9.9
			c1.5,3.2,3.9,4.6,8.2,4.6c4.8,0,7.9-1.3,14.9-6l4.5-3.1l0.3-5.1c0.7-11.2,2.3-19.1,5-24.3c1.4-2.7,3.8-5.3,5.6-5.9
			C48.3,7.1,50.5,7.2,51.6,7.8z M43.4,20.3c0.7-2.2,2.5-5.9,3.7-7.6c0.5-0.7,1-1.1,1.2-1.1c0.4,0.1,0.4,0.5,0.4,2.5c0,2-0.2,3-1,5.5
			c-0.8,2.5-6.4,16.2-6.8,16.7c-0.3,0.4-0.3-0.5,0.1-3.5C41.5,28.5,42.6,22.8,43.4,20.3z M79,31.4c0.3-6.3,3.1-14.8,5.6-17.4
			c0.5-0.5,1.1-0.8,1.3-0.8c0.4,0,0.5,0.2,0.5,1.6c0,3.1-2.1,9.1-5.4,15.6C78.8,34.9,78.9,34.9,79,31.4z"/>
		<path class="st2" d="M71.2,20.1c1.3,0.5,1.8,1.4,1.8,3c0,2.4-1.8,3.9-4.6,3.9c-2.3,0-3.7-1.2-3.7-3.2
			C64.6,20.8,68.1,18.8,71.2,20.1z"/>
		<path class="st2" d="M98.3,20.1c1.2,0.6,1.8,1.7,1.6,3.3C99.7,25.7,98,27,95.4,27c-1.9,0-3.2-0.8-3.7-2.3c-0.6-1.8,0.5-4,2.4-4.7
			C95.1,19.6,97.3,19.6,98.3,20.1z"/>
	</g>
</g>
</svg>
