<?xml version="1.0" encoding="utf-8"?>
<!-- Generator: Adobe Illustrator 28.2.0, SVG Export Plug-In . SVG Version: 6.00 Build 0)  -->
<svg version="1.1" id="Layer_1" xmlns="http://www.w3.org/2000/svg" xmlns:xlink="http://www.w3.org/1999/xlink" x="0px" y="0px"
	 viewBox="0 0 245.3 66" style="enable-background:new 0 0 245.3 66;" xml:space="preserve">
<style type="text/css">
	.st0{clip-path:url(#SVGID_00000129890284293349469210000011272796247299835788_);}
	.st1{fill:#FFFFFF;filter:url(#Adobe_OpacityMaskFilter);}
	.st2{mask:url(#mask0_707_2345_00000013195362710295135260000014654463642121269147_);}
	.st3{fill:#17121A;}
</style>
<g>
	<defs>
		<rect id="SVGID_1_" x="0" y="15" width="245.3" height="37"/>
	</defs>
	<clipPath id="SVGID_00000152226692542136915930000007389299976954946704_">
		<use xlink:href="#SVGID_1_"  style="overflow:visible;"/>
	</clipPath>
	<g style="clip-path:url(#SVGID_00000152226692542136915930000007389299976954946704_);">
		<defs>
			<filter id="Adobe_OpacityMaskFilter" filterUnits="userSpaceOnUse" x="0" y="15" width="245" height="37">
				<feColorMatrix  type="matrix" values="1 0 0 0 0  0 1 0 0 0  0 0 1 0 0  0 0 0 1 0"/>
			</filter>
		</defs>
		
			<mask maskUnits="userSpaceOnUse" x="0" y="15" width="245" height="37" id="mask0_707_2345_00000013195362710295135260000014654463642121269147_">
			<path class="st1" d="M245.3,15H0v37h245.3V15z"/>
		</mask>
		<g class="st2">
			<path class="st3" d="M53.5,51.3c0-0.4,0-0.7,0-1c0-11.3,0-22.6,0-34c0-0.8,0.2-1,1-1c2.7,0.1,5.5,0,8.3,0.1
				c1.7,0.1,3.4,0.4,4.9,1.3c2.4,1.4,3.3,3.7,3.7,6.4c0.2,1.3,0.2,2.6,0.2,4c0,4.4,0.1,8.8,0,13.2c0,1.7-0.3,3.4-0.7,5
				c-0.9,3.5-3.3,5.5-6.7,5.8c-2.9,0.3-5.8,0.2-8.8,0.2C54.8,51.3,54.2,51.3,53.5,51.3z M58.4,33.3c0,4.5,0,9,0,13.5
				c0,0.8,0.2,1,1,1c0.9-0.1,1.8,0,2.7,0c2.8-0.1,4.3-1.7,4.4-4.6c0.1-3.7,0.2-7.4,0.2-11c0-3-0.1-6-0.2-9c-0.1-2.3-1.2-3.6-3.4-3.9
				c-1.2-0.2-2.5-0.1-3.7-0.2c-0.7-0.1-1,0.2-0.9,1C58.4,24.4,58.4,28.9,58.4,33.3z"/>
			<path class="st3" d="M26.1,33.2c0-3-0.1-6.1,0-9.1c0.1-2.4,0.7-4.7,2.4-6.5c1.3-1.4,2.8-2.1,4.6-2.3c2.1-0.3,4.2-0.3,6.3,0.4
				c2.6,0.8,4.3,2.7,5,5.2c0.4,1.5,0.7,3.2,0.7,4.7c0.1,5.4,0,10.9,0,16.3c0,2-0.5,3.9-1.4,5.6c-1,1.9-2.6,3.3-4.7,3.8
				c-2.3,0.6-4.6,0.6-6.9,0c-3-0.8-4.8-2.9-5.4-5.9c-0.4-1.8-0.6-3.8-0.7-5.7c-0.1-2.2,0-4.3,0-6.5C26,33.2,26.1,33.2,26.1,33.2z
				 M30.9,33.2C30.9,33.2,31,33.2,30.9,33.2c0.1,3.3,0,6.6,0.1,9.9c0,1,0.3,2,0.8,2.9C33,48,35,48,37,47.7c1.8-0.3,2.7-1.5,3.1-3.3
				c0.1-0.5,0.2-1,0.2-1.5c0-6.4,0-12.9,0-19.3c0-1-0.3-2.2-0.8-3c-1.2-1.9-3.1-1.8-5-1.6c-1.7,0.2-2.8,1.3-3.1,3
				c-0.2,1-0.3,2.1-0.4,3.1C30.9,27.7,30.9,30.5,30.9,33.2z"/>
			<path class="st3" d="M18.2,28.2c-1.4,0-2.7,0-4,0c-0.6,0-0.5-0.4-0.5-0.8c-0.1-1.5-0.1-3.1-0.1-4.6c-0.1-2.5-1.2-3.8-3.7-3.8
				c-2.6-0.1-4.3,0.5-4.8,4.1c0,0.3-0.1,0.5-0.1,0.8c0,6.3,0,12.6,0,19c0,0.7,0.2,1.5,0.4,2.2c0.4,1.7,1.5,2.7,3.2,2.8
				c0.9,0.1,1.8,0.1,2.7-0.2c1.7-0.5,2.2-2.1,2.3-3.7c0.1-1.7,0.1-3.3,0.2-5c0-0.6,0.2-0.8,0.8-0.8c1.1,0,2.1,0,3.2,0
				c0.2,0,0.6,0.3,0.6,0.5c0.1,2.9,0.1,5.8-1,8.5c-0.9,2.3-2.5,3.8-4.9,4.4c-2.1,0.5-4.3,0.5-6.4-0.2c-3-0.9-4.7-3.1-5.3-6.1
				C0.2,42.9,0,40.7,0,38.5c-0.1-4.7,0-9.4,0.2-14.1c0.1-2.5,0.6-4.9,2.4-6.9c1.2-1.3,2.7-2,4.3-2.3c2-0.3,4-0.4,5.9,0.2
				c2.5,0.7,4.1,2.4,4.9,4.9C18.3,22.3,18.6,26,18.2,28.2z"/>
			<path class="st3" d="M180.5,21.5c0,10,0,19.9,0,29.9c-0.7,0-1.3,0-2,0c0-11.9,0-23.8,0-35.8c0.5,0,1-0.1,1.4,0
				c0.2,0,0.5,0.3,0.5,0.5c1.1,2.8,2.3,5.7,3.4,8.5c1.5,3.7,2.9,7.4,4.4,11.1c1.2,3.1,2.5,6.2,3.7,9.3c0,0.1,0.1,0.2,0.3,0.3
				c0-0.4,0.1-0.8,0.1-1.1c0-9.1,0-18.3,0-27.4c0-1.1,0.7-1.6,1.7-1.1c0.1,0.1,0.2,0.3,0.3,0.5c0,0.3,0,0.6,0,0.9
				c0,11.1,0,22.3,0,33.4c0,0.4,0,0.7,0,1.1c-1.8,0.3-1.7,0.2-2.4-1.3c-1.6-4.3-3.3-8.5-5-12.8c-1.6-4-3.1-7.9-4.7-11.9
				c-0.5-1.3-1-2.6-1.6-3.9C180.6,21.5,180.6,21.5,180.5,21.5z"/>
			<path class="st3" d="M140.3,36.1c0-0.6,0-1.1,0-1.6c2.5,0,5,0,7.6,0c0,5.6,0,11.3,0,17c-0.5,0-0.9,0-1.4,0
				c-0.1-1.2-0.3-2.4-0.4-3.7c-0.2,0.3-0.3,0.5-0.4,0.7c-0.9,2-2.4,3.1-4.4,3.4c-1.9,0.3-3.7,0.2-5.5-0.6c-2.6-1.1-3.7-3.3-4.1-5.9
				c-0.3-1.6-0.4-3.3-0.4-4.9c0-4.9-0.1-9.8,0-14.7c0-1.9,0.3-3.8,0.7-5.6c0.6-2.6,2.4-4.1,5-4.7c2.2-0.6,4.3-0.5,6.5,0.3
				c1.9,0.7,3.1,2.3,3.7,4.2c0.7,2.1,0.9,4.3,0.7,6.5c-0.7,0-1.4,0-2.2,0c0-0.7,0-1.2,0-1.8c-0.1-1.7-0.2-3.4-1-5
				c-0.5-1-1.2-1.7-2.2-2c-2.5-0.8-5-0.9-7.1,1.1c-1.5,1.5-1.7,3.5-1.8,5.5c-0.1,3.3,0,6.7,0,10c0,2.9-0.1,5.7,0,8.5
				c0.1,1.3,0.4,2.7,0.7,4c0.4,1.4,1.4,2.4,2.8,2.9c2.1,0.7,5.6,0.7,7.1-1.4c1-1.4,1.3-3,1.4-4.6c0.1-2.2,0-4.5,0.1-6.7
				c0-0.5-0.2-0.7-0.7-0.7c-1.3,0-2.6,0-3.9,0C141,36.2,140.7,36.2,140.3,36.1z"/>
			<path class="st3" d="M85,15.3c0,12,0,23.9,0,35.9c-1.5,0-2.9,0-4.4,0c-0.1,0-0.3-0.3-0.4-0.4c-0.1-0.2,0-0.5,0-0.7
				c0-11.2,0-22.4,0-33.6c0-1.1,0-1.1,1.1-1.1C82.6,15.3,83.8,15.3,85,15.3z"/>
			<path class="st3" d="M220.2,27c-0.8,0-1.4,0-2.2,0c0-1.4,0.1-2.7,0-4.1c-0.1-1.7-0.5-3.4-1.9-4.6c-0.5-0.4-1.2-0.8-1.8-1
				c-3.1-0.6-5.6-0.1-6.9,2c-1.1,1.7-1.2,3.8-1.2,5.8c0,5.5,0,11,0,16.5c0,1.4,0.2,2.8,0.4,4.1c0.5,2.5,2.3,4.1,4.8,4.2
				c0.9,0,1.9,0.1,2.8-0.2c2.2-0.5,3.3-2.2,3.6-4.3c0.2-1.6,0.2-3.3,0.3-4.9c0-1,0-0.9,1.4-1c0.8,0,0.9,0.4,0.8,1
				c-0.2,1.9-0.2,3.9-0.6,5.8c-0.6,3.1-2.6,5-5.8,5.4c-2.5,0.3-5,0.1-7.1-1.5c-1.3-1-2.1-2.4-2.4-4c-0.3-1.8-0.6-3.6-0.6-5.4
				c-0.1-5-0.1-10.1,0-15.1c0-1.8,0.3-3.6,0.7-5.3c0.8-3.2,3.4-5.1,6.8-5.4c1.5-0.1,3,0,4.5,0.5c1.8,0.6,3,2,3.7,3.7
				C220.3,21.8,220.3,24.4,220.2,27z"/>
			<path class="st3" d="M106.4,51.5c2.5-12,4.9-23.9,7.4-35.9c0.8,0,1.5,0,2.3,0c0.2,0,0.5,0.3,0.5,0.5c1,4.7,1.9,9.3,2.9,14
				c0.8,3.8,1.6,7.6,2.4,11.4c0.6,3.1,1.3,6.2,1.9,9.3c0,0.2,0,0.3,0.1,0.6c-0.6,0-1.3,0.1-1.9,0c-0.2,0-0.5-0.5-0.6-0.8
				c-0.4-1.8-0.6-3.6-0.9-5.3c-0.2-1-0.4-2.1-0.6-3.1c-0.1-0.5-0.3-0.7-0.8-0.7c-2.7,0-5.3,0-7.9,0c-0.8,0-0.7,0.5-0.8,1
				c-0.5,2.7-1,5.5-1.5,8.2c-0.1,0.6-0.4,0.8-0.9,0.7C107.5,51.5,107,51.5,106.4,51.5z M119.5,39.8c-1.4-7-2.8-14-4.2-20.9
				c-0.1,0-0.2,0-0.2,0c-1.4,6.9-2.8,13.9-4.1,20.9C113.8,39.8,116.5,39.8,119.5,39.8z"/>
			<path class="st3" d="M169.9,15.7c0,0.6,0,1.1,0,1.7c-0.4,0-0.7,0.1-1,0.1c-2.7,0-5.3,0-7.9,0c-0.5,0-0.8,0.1-0.8,0.7
				c0,4.4,0,8.8,0,13.2c0,0.1,0,0.3,0.1,0.5c2.6,0,5.2,0,7.9,0c0,0.4,0,0.6,0.1,0.9c0.1,0.7-0.2,1-0.9,1c-2.1,0-4.1,0-6.2,0
				c-0.8,0-1,0.2-1,1c0,4.6,0,9.2,0,13.9c0,0.8,0.2,1,1,1c2.6,0,5.2,0,7.9,0c0.3,0,0.7,0,1,0.1c0,0.6,0,1.1,0,1.7
				c-4.1,0-8.1,0-12.2,0c0-0.3-0.1-0.7-0.1-1c0-9.3,0-18.7,0-28c0-2,0-4,0-6c0-0.5,0.1-0.8,0.7-0.8c3.6,0,7.3,0,10.9,0
				C169.5,15.6,169.7,15.6,169.9,15.7z"/>
			<path class="st3" d="M244.9,15.6c-0.3,1-0.6,1.9-0.9,2.8c-1.3,3.9-2.5,7.7-3.8,11.6c-1,3.2-2.1,6.4-3.1,9.6
				c-0.1,0.4-0.1,0.8-0.1,1.3c0,3.2,0,6.4,0,9.7c0,0.3,0,0.6,0,1c-0.8,0-1.5,0-2.3,0c0-0.3-0.1-0.7-0.1-1c0-2.4-0.1-4.9,0-7.3
				c0.2-2.5-0.5-4.7-1.3-7c-1.3-3.8-2.6-7.7-3.9-11.6c-0.9-2.6-1.7-5.3-2.6-7.9c-0.1-0.3-0.2-0.6-0.3-1c0.7,0,1.4-0.1,2,0
				c0.2,0,0.5,0.4,0.5,0.6c0.9,2.6,1.7,5.2,2.5,7.8c1.4,4.2,2.7,8.5,4.3,12.8c0.4-1.2,0.7-2.3,1.1-3.5c1.3-4.2,2.6-8.4,3.9-12.6
				c0.4-1.4,0.9-2.8,1.3-4.3c0.2-0.7,0.5-1,1.2-0.9C244,15.6,244.4,15.6,244.9,15.6z"/>
		</g>
	</g>
</g>
</svg>
