<?xml version="1.0" encoding="utf-8"?>
<!-- Generator: Adobe Illustrator 28.2.0, SVG Export Plug-In . SVG Version: 6.00 Build 0)  -->
<svg version="1.1" id="Layer_1" xmlns="http://www.w3.org/2000/svg" xmlns:xlink="http://www.w3.org/1999/xlink" x="0px" y="0px"
	 viewBox="0 0 237.5 66" style="enable-background:new 0 0 237.5 66;" xml:space="preserve">
<style type="text/css">
	.st0{clip-path:url(#SVGID_00000122699895293852007020000004300146181828453295_);}
	.st1{fill-rule:evenodd;clip-rule:evenodd;fill:#17121A;}
</style>
<g>
	<defs>
		<rect id="SVGID_1_" y="9" width="237.5" height="47.7"/>
	</defs>
	<clipPath id="SVGID_00000050649937341378260510000002210989838068255637_">
		<use xlink:href="#SVGID_1_"  style="overflow:visible;"/>
	</clipPath>
	<g style="clip-path:url(#SVGID_00000050649937341378260510000002210989838068255637_);">
		<path class="st1" d="M60.6,44.7V26H71v1.4h-8.9v7.7h8.1v1.4h-8.1v8.2H60.6z M81.4,44.7V26h1.5v18.7H81.4z M96.5,44.7h-1.5V26
			c1,0,3.9-0.1,4.5-0.1c5.1,0,6.5,2.5,6.5,5.4c0,2.7-1.9,4.7-4.4,5.2l6.5,8.2h-1.8l-6.2-7.9h-3.6V44.7z M99.5,27.3
			c-0.6,0-2,0-2.9,0.1v8.1h3.2c2.4,0,4.8-1.6,4.8-4.1C104.5,29,103.3,27.3,99.5,27.3z M126.2,40c0-5.3-9.6-3.4-9.6-9.6
			c0-2.6,2-4.7,5.5-4.7c2.1,0,4,0.7,5,1.9l-0.8,1.1c-1.1-1.1-2.4-1.6-4.2-1.6c-2.4,0-4,1.3-4,3.3c0,5.2,9.6,3.1,9.6,9.6
			c0,3-2.6,4.9-5.9,4.9c-2.2,0-4.8-1-5.7-2.7l0.9-1c1.1,1.5,3.1,2.3,4.8,2.3C124,43.5,126.2,42.3,126.2,40z M135.1,27.3V26h15.2v1.4
			h-6.9v17.3H142V27.3H135.1z M162.2,44.7h-3.3V26c1,0,4-0.1,5.3-0.1c5.5,0,7.2,2.9,7.2,6c0,3.2-2.4,6.1-6.8,6.1
			c-0.6,0-1.6,0-2.4-0.1V44.7z M164.5,29c-0.7,0-1.5,0-2.3,0.1v5.8c0.8,0.1,1.6,0.1,2.3,0.1c1.9,0,3.5-0.9,3.5-3
			C168,29.9,166.8,29,164.5,29z M176.2,44.7l7.9-18.8h2.9l7.9,18.8h-3.5l-1.9-4.8h-8l-1.9,4.8H176.2z M185.4,30.2l-2.7,6.7h5.5
			L185.4,30.2z M209.8,37.7v-3.1h7.6v7.8c-1.7,1.7-4.7,2.6-7,2.6c-6.1,0-9.7-3.8-9.7-9.7c0-5.4,3.6-9.7,9.3-9.7c2.7,0,4.5,0.7,6,1.9
			l-1.4,2.6c-0.9-0.9-2.6-1.4-4.2-1.4c-3.6,0-6.2,2.4-6.2,6.6c0,4,2.5,6.6,6.3,6.6c1.4,0,3.2-0.6,3.9-1.3v-2.9H209.8z M226.5,44.7
			V26h10.8V29h-7.5v4.7h6.7v3.1h-6.7v4.8h7.8v3.1H226.5z"/>
		<path class="st1" d="M25.5,54.2l-2.7-7.8c-1.9-5.8-7.2-11.1-13-13.2l-7.8-2.7C0.7,30.1,0,28.9,0,27.8c0-1.2,0.6-2.4,1.9-2.8
			L43,9.1C43.3,9,43.8,9,44.1,9c1.6,0,2.9,1.3,2.9,3c0,0.4,0,0.9-0.1,1.2L31.1,54.4c-0.4,1.3-1.6,1.9-2.8,1.9
			C27.1,56.3,25.9,55.5,25.5,54.2z M22.8,37.1c0,0,0.9,2.5,1.6,4.7c1.2,3.5,8.8-1.2,10-4.7c2.9-7.4,8-20.7,8-20.7l0.3-0.7
			c0.6-1.5-0.7-3-2.2-2.4c-0.3,0-0.6,0.1-0.6,0.1L10.2,25c0,0-0.6,0.3-1.5,0.6c-1.9,0.7-1.9,3.5,0.1,4.3l1.5,0.4l8.7,3
			C20.9,33.8,22.3,35.3,22.8,37.1z"/>
	</g>
</g>
</svg>
