<?xml version="1.0" encoding="utf-8"?>
<!-- Generator: Adobe Illustrator 28.2.0, SVG Export Plug-In . SVG Version: 6.00 Build 0)  -->
<svg version="1.1" id="Layer_1" xmlns="http://www.w3.org/2000/svg" xmlns:xlink="http://www.w3.org/1999/xlink" x="0px" y="0px"
	 viewBox="0 0 114.3 66" style="enable-background:new 0 0 114.3 66;" xml:space="preserve">
<style type="text/css">
	.st0{fill:#17121A;}
</style>
<path class="st0" d="M8.4,17.3c0.4,0,0.7,0.3,0.7,0.6v30.6c0,0.4-0.3,0.7-0.7,0.7H0.7c-0.4,0-0.7-0.3-0.7-0.7V17.9
	c0-0.3,0.3-0.6,0.7-0.6H8.4z"/>
<path class="st0" d="M21.7,19.8c0,2.6-1.9,4.4-4.8,4.4c-2.9,0-4.8-1.8-4.8-4.4c0-2.7,1.9-4.5,4.8-4.5C19.7,15.3,21.7,17.1,21.7,19.8
	z M20.7,25c0.4,0,0.7,0.3,0.7,0.6v22.9c0,0.4-0.3,0.7-0.7,0.7H13c-0.4,0-0.7-0.3-0.7-0.7V25.6c0-0.3,0.3-0.6,0.7-0.6H20.7z"/>
<path class="st0" d="M26.3,41.5c0.1-0.3,0.4-0.3,0.6-0.2c1.7,1,3.6,1.8,5.1,1.8c0.9,0.1,1.5-0.4,1.5-1.1c0-2.2-9.6-1.5-9.6-9.8
	c0-4.7,4-7.9,10-7.9c2.8,0,6.3,1,8.6,2.5c0.2,0.2,0.4,0.4,0.3,0.6l-2.2,5.2c-0.1,0.3-0.4,0.3-0.6,0.2c-1.7-1.1-3.6-1.8-5.1-1.8
	c-0.9-0.1-1.5,0.4-1.5,1.1c0,2.3,9.6,1.5,9.6,9.9c0,4.7-3.9,7.9-9.7,7.9c-2.8,0-6.4-1-8.9-2.5c-0.2-0.2-0.4-0.4-0.3-0.7L26.3,41.5z"
	/>
<path class="st0" d="M52.2,26.8c1.4-1.5,4.4-2.5,7.1-2.5c6,0,9.2,2.8,9.2,9.6v14.5c0,0.4-0.3,0.7-0.7,0.7h-7.7
	c-0.4,0-0.7-0.3-0.6-0.7V35.3c0-1.8-0.8-2.8-2.2-2.8c-2.5,0-2.9,2.5-2.9,2.5v13.5c0,0.4-0.3,0.7-0.7,0.7H46c-0.4,0-0.7-0.3-0.7-0.7
	V25.6c0-0.4,0.2-0.6,0.6-0.6h4.9c0.3,0,0.6,0.1,0.7,0.4L52.2,26.8z"/>
<path class="st0" d="M80.8,19.8c0,2.6-1.9,4.4-4.8,4.4c-2.9,0-4.8-1.8-4.8-4.4c0-2.7,1.9-4.5,4.8-4.5C78.9,15.3,80.8,17.1,80.8,19.8
	z M79.9,25c0.4,0,0.7,0.3,0.7,0.6v22.9c0,0.4-0.3,0.7-0.7,0.7h-7.7c-0.4,0-0.7-0.3-0.7-0.7V25.6c0-0.3,0.3-0.6,0.7-0.6H79.9z"/>
<path class="st0" d="M104.7,46.6c0.1,0.2,0,0.5-0.3,0.8c-2.4,1.5-5.6,2.5-8.1,2.5c-8,0-13.2-5.1-13.2-12.8c0-7.6,5.3-12.8,13.2-12.8
	c2.5,0,5.8,1,8.1,2.5c0.3,0.2,0.4,0.5,0.3,0.8l-2.5,5.4c-0.2,0.4-0.5,0.5-0.8,0.3c-1.1-0.8-2.8-1.3-4.2-1.3c-3.2,0-5.3,2.1-5.3,5.2
	c0,3.1,2.1,5.2,5.3,5.2c1.5,0,3.1-0.5,4.2-1.3c0.3-0.2,0.6-0.1,0.8,0.3L104.7,46.6z"/>
<path class="st0" d="M110.5,49.8c-2.3,0-3.9-1.5-3.9-3.6c0-2.2,1.5-3.7,3.9-3.7c2.3,0,3.9,1.5,3.9,3.7
	C114.4,48.3,112.8,49.8,110.5,49.8z"/>
</svg>
