<?xml version="1.0" encoding="utf-8"?>
<!-- Generator: Adobe Illustrator 28.2.0, SVG Export Plug-In . SVG Version: 6.00 Build 0)  -->
<svg version="1.1" id="Layer_1" xmlns="http://www.w3.org/2000/svg" xmlns:xlink="http://www.w3.org/1999/xlink" x="0px" y="0px"
	 viewBox="0 0 221.6 66" style="enable-background:new 0 0 221.6 66;" xml:space="preserve">
<style type="text/css">
	.st0{clip-path:url(#SVGID_00000124867702503932878430000007608271265063418768_);}
	.st1{fill:#17121A;}
	.st2{fill-rule:evenodd;clip-rule:evenodd;fill:#17121A;}
</style>
<g>
	<defs>
		<rect id="SVGID_1_" x="0" y="18" width="222" height="30.2"/>
	</defs>
	<clipPath id="SVGID_00000081607682982673223770000007201471324466834561_">
		<use xlink:href="#SVGID_1_"  style="overflow:visible;"/>
	</clipPath>
	<g style="clip-path:url(#SVGID_00000081607682982673223770000007201471324466834561_);">
		<path class="st1" d="M96.2,29.6c0.8-3.9,2.2-6.7,4.2-8.5c2-1.8,4.6-2.7,8-2.7c1.3,0,2.5,0.2,3.5,0.7c1,0.4,1.9,1.1,2.6,1.8
			c0.7,0.8,1.2,1.7,1.6,2.7c0.4,1,0.6,2.2,0.6,3.4c0,0.9-0.1,1.8-0.3,2.6l-1.3,6.1c-0.8,3.9-2.2,6.7-4.2,8.5c-2,1.8-4.6,2.7-8,2.7
			c-1.3,0-2.5-0.2-3.5-0.7c-1-0.4-1.9-1-2.6-1.8c-0.7-0.8-1.2-1.7-1.6-2.7c-0.4-1-0.5-2.2-0.5-3.4c0-0.9,0.1-1.8,0.3-2.6L96.2,29.6z
			 M103.7,42.2c1.7,0,3.1-0.5,4-1.6c1-1.1,1.7-2.5,2-4.2l1.5-7c0.2-0.7,0.2-1.4,0.2-2c0-1.3-0.3-2.3-1-3c-0.7-0.8-1.6-1.1-3-1.1
			c-1.7,0-3.1,0.5-4.1,1.6c-1,1.1-1.6,2.5-2,4.2l-1.5,7c-0.2,0.7-0.2,1.4-0.2,2c0,1.3,0.4,2.1,1.1,2.8
			C101.5,41.6,102.5,42,103.7,42.2z"/>
		<path class="st1" d="M118.1,29.6c0.8-3.9,2.2-6.7,4.2-8.5c2-1.8,4.6-2.7,8-2.7c1.3,0,2.5,0.2,3.5,0.7c1,0.4,1.9,1.1,2.6,1.8
			c0.7,0.8,1.2,1.7,1.6,2.7c0.4,1,0.6,2.2,0.6,3.4c0,0.9-0.1,1.8-0.3,2.6l-1.3,6.1c-0.8,3.9-2.2,6.7-4.2,8.5c-2,1.8-4.6,2.7-8,2.7
			c-1.3,0-2.5-0.2-3.5-0.7c-1-0.4-1.9-1-2.6-1.8c-0.7-0.8-1.2-1.7-1.6-2.7c-0.4-1-0.5-2.2-0.5-3.4c0-0.9,0.1-1.8,0.3-2.6L118.1,29.6
			z M125.6,42.2c1.7,0,3.1-0.5,4-1.6c1-1.1,1.7-2.5,2-4.2l1.5-7c0.2-0.7,0.2-1.4,0.2-2c0-1.3-0.3-2.3-1-3c-0.7-0.8-1.6-1.1-3-1.1
			c-1.7,0-3.1,0.5-4.1,1.6c-1,1.1-1.6,2.5-2,4.2l-1.5,7c-0.2,0.7-0.2,1.4-0.2,2c0,1.3,0.4,2.1,1.1,2.8
			C123.4,41.6,124.4,42,125.6,42.2z"/>
		<path class="st1" d="M75.5,18.8H84l-2.7,20l-1,4.5h1l1-4.8l5.6-19.8h8.8l-5.9,27.9h-4.5l3.9-18.3l1.8-6.2h-1l-7.1,24.6h-7.1
			l3.1-24.6h-1l-0.8,6l-4,18.6h-4.5L75.5,18.8z"/>
		<path class="st1" d="M104.3,37.1c-1.1-0.7-1.4-3.3-2-2.6c-0.6,0.6-0.9,1.4-0.9,2.3c0,0.9,0.3,1.7,1,2.3c0.6,0.6,1.4,0.9,2.3,0.9
			c0.9,0,1.7-0.3,2.3-1c0.6-0.6,0.9-1.4,0.9-2.3c0-0.9-1.6,0.9-2.6,0.8C104.7,37.4,104.7,37.3,104.3,37.1z"/>
		<path class="st1" d="M150.3,44.2h0.7l5.3-24.8h4.9l-2.9,13.7l-2.9,13.7h-9.6l1.8-24.8h-0.7l-5.3,24.8h-4.9l5.8-27.3h9.6
			L150.3,44.2z"/>
		<path class="st1" d="M164.3,19.6h13.8l-1,4.9h-4.7L168.8,42h4.8l-1.1,4.9h-14l1.1-4.9h4.1l3.7-17.5h-4.1L164.3,19.6z"/>
		<path class="st1" d="M189.4,44.4h0.7l5.3-24.8h4.9L194.4,47h-9.6l1.8-24.8H186L180.7,47h-5l5.9-27.3h9.6L189.4,44.4z"/>
		<path class="st1" d="M208.6,33.1h12.1v0.5l-2.8,13.4h-4.7l0.7-3h-0.7c-0.5,1-1.3,1.9-2.3,2.6c-1,0.7-2.4,1-4.2,1
			c-1,0-2-0.2-2.8-0.5c-0.9-0.3-1.6-0.8-2.2-1.4c-0.6-0.7-1.1-1.4-1.5-2.4c-0.3-1-0.5-2.1-0.5-3.3c0-1,0.1-2.1,0.4-3.4l1.4-6.4
			c0.8-3.8,2.2-6.5,4.3-8.3c2.1-1.8,4.8-2.7,8.1-2.7c1.3,0,2.5,0.2,3.5,0.6c1,0.4,1.9,0.9,2.6,1.6c0.7,0.7,1.2,1.5,1.6,2.5
			c0.4,0.9,0.6,1.9,0.6,2.9c0,0.4,0,0.8-0.1,1.2c-0.1,0.4-0.1,0.8-0.2,1.1l-0.1,0.5h-5.2l0.1-0.5c0.1-0.3,0.1-0.6,0.2-0.8
			c0-0.2,0-0.5,0-0.7c0-1.1-0.3-1.9-1-2.5c-0.7-0.6-1.7-0.9-3-0.9c-0.7,0-1.4,0.1-2.1,0.4c-0.7,0.2-1.3,0.6-1.8,1.1
			c-0.5,0.5-1,1.2-1.4,2c-0.4,0.8-0.8,1.8-1,3l-1.2,5.8c-0.1,0.5-0.2,0.9-0.2,1.2c0,0.3,0,0.6,0,0.9c0,1.4,0.4,2.5,1.1,3.2
			c0.7,0.7,1.7,1.1,3,1.1c1.5,0,2.8-0.4,3.8-1.2c1-0.8,1.6-1.9,1.9-3.3h-6V33.1z"/>
		<path class="st2" d="M27.9,33.2c-0.4,8-7,14.1-14.7,13.7C5.5,46.4-0.4,39.6,0,31.7c0.4-8,7-14.1,14.7-13.7
			C22.4,18.4,28.3,25.2,27.9,33.2z M12.5,29.6c-1.5-0.8-2.6-1.4-1.9-2c1.5-1.3,3.2-1.9,5.3-1.7c2,0.1,3.7,0.9,5,2.4
			c1.3,1.5,1.9,3.2,1.7,5.3c-0.1,2-0.9,3.7-2.4,5c-1.5,1.3-3.2,1.9-5.3,1.7c-1.1-0.1-0.4-1,0.5-2.2c0.8-1.1,1.7-2.4,1.6-3.4
			c0,0,0,0,0-0.1c0-0.2-0.1-0.9-0.8-2.1C15.5,31.2,13.9,30.4,12.5,29.6z"/>
		<path class="st2" d="M55.6,25.2c-4.5-6.6-13.3-8.4-19.7-4.1c-6.4,4.3-7.9,13.2-3.4,19.8c4.5,6.6,13.3,8.4,19.7,4.1
			C58.5,40.7,60,31.8,55.6,25.2z M44.6,37.5C43.7,38.9,43,40,44,40.2c1.9,0.3,3.7-0.1,5.4-1.2c1.7-1.2,2.7-2.7,3-4.6
			c0.3-1.9-0.1-3.7-1.2-5.4c-1.2-1.7-2.7-2.7-4.6-3c-1.9-0.3-3.7,0.1-5.4,1.2c-0.9,0.6,0.2,1.1,1.5,1.7c1.2,0.5,2.7,1.2,3.1,2.1
			c0,0,0,0,0,0c0.1,0.2,0.4,0.8,0.4,2.2C46.3,34.5,45.4,36.1,44.6,37.5z"/>
	</g>
</g>
</svg>
