<?xml version="1.0" encoding="utf-8"?>
<!-- Generator: Adobe Illustrator 28.2.0, SVG Export Plug-In . SVG Version: 6.00 Build 0)  -->
<svg version="1.1" id="Layer_1" xmlns="http://www.w3.org/2000/svg" xmlns:xlink="http://www.w3.org/1999/xlink" x="0px" y="0px"
	 viewBox="0 0 198.2 66" style="enable-background:new 0 0 198.2 66;" xml:space="preserve">
<style type="text/css">
	.st0{fill:#17121A;}
	.st1{fill-rule:evenodd;clip-rule:evenodd;fill:#17121A;}
</style>
<path class="st0" d="M138.9,27.6c-0.1,0.5-0.3,1.1-0.4,1.6c-0.2,0.7-0.5,1.5-0.7,2.2c-0.3,0.7-0.5,1.5-0.9,2.2
	c-0.3,0.7-0.6,1.5-0.9,2.2c-0.3,0.7-0.5,1.4-0.7,2c-0.3,0.7-0.5,1.5-0.8,2.2c0,0.1-0.2,0.2-0.3,0.2c-1,0.8-2.6,0.1-2.9-1
	c-0.1-0.6-0.5-1.2-0.7-1.8c-0.4-1-0.8-1.9-1.2-2.9c-0.3-0.8-0.7-1.7-1.1-2.5c-0.4-1-0.8-1.9-1.2-2.9c-0.2-0.4-0.2-0.9-0.4-1.3
	c-0.1-0.1-0.3-0.2-0.4-0.3c-0.1,0-0.1,0.1-0.2,0.1c0,0.9,0,1.8,0,2.7c0,1.8,0,3.5-0.1,5.3c-0.1,1.7-0.4,3.5-0.6,5.2
	c0,0.2-0.2,0.4-0.3,0.4c-0.6,0.1-1.2,0.1-1.8,0c-0.2,0-0.5-0.5-0.4-0.8c0.1-1.7,0.3-3.3,0.5-5c0-0.2,0.1-0.4,0.1-0.7
	c0.1-1.8,0.2-3.5,0.3-5.2c0.1-1.4,0.2-2.8,0.3-4.2c0.1-1.1,0.5-1.5,1.7-1.5c0.2,0,0.5,0,0.7,0c0.7-0.1,1.2,0.4,1.4,1
	c0.7,1.7,1.3,3.4,2,5.1c0.4,0.9,0.8,1.8,1.2,2.7c0.4,0.9,0.7,1.8,1.1,2.7c0.2,0.5,0.5,1,0.7,1.5c0.1,0,0.1,0,0.2,0
	c0.1-0.3,0.3-0.7,0.4-1c0.4-1,0.7-2.1,1.1-3.1c0.4-1,0.7-2,1.1-3.1c0.2-0.4,0.3-0.9,0.5-1.3c0.3-0.8,0.6-1.6,0.8-2.3
	c0.1-0.4,0.3-0.7,0.4-1.1c0.3-0.7,0.8-1.1,1.6-1c0.7,0,1.4-0.1,1.8,0.6c0.1,0.2,0.2,0.3,0.2,0.5c0.1,0.7,0.2,1.4,0.3,2
	c0.1,1.1,0.2,2.2,0.4,3.3c0.2,1.3,0.4,2.6,0.6,3.9c0,0.2,0,0.3,0.1,0.5c0.2,1.5,0.4,2.9,0.6,4.4c0.1,0.6,0.1,1.2,0,1.7
	c0,0.2-0.3,0.4-0.5,0.5c-0.1,0.1-0.4,0-0.6,0c-1.7,0.1-1.5-0.1-1.7-1.6s-0.2-3.1-0.5-4.6c-0.4-2.4-0.5-4.8-0.6-7.2
	C139.1,27.9,139,27.8,138.9,27.6C139.1,27.7,139,27.7,138.9,27.6z"/>
<path class="st0" d="M82.3,35.2c0.2,0.3,0.5,0.7,0.7,1c0.7,0.7,1.5,1.4,2.2,2.1C86,39,86.9,39,87.8,39c1-0.1,1.3,0.3,1.2,1.4
	c0,0.3-0.2,0.6-0.4,0.7c-1,0.6-2.1,0.6-3.1,0.2c-1.8-0.7-3-2.3-4.2-3.8c-0.6-0.8-1.3-1.7-1.9-2.5c-0.1,0-0.1,0-0.2,0.1
	c0,0.2-0.1,0.4-0.1,0.7c0,1.6,0,3.3,0,4.9c0,0.6-0.2,0.8-0.8,0.9c-1.6,0.1-1.8-0.1-1.8-1.8c0-4.6,0-9.2,0-13.8
	c0-0.4,0.1-0.9,0.2-1.3c0.1-0.2,0.5-0.5,0.7-0.5c1.9,0,3.9-0.1,5.8,0c1.3,0.1,2.7,0.4,3.7,1.5c0.5,0.5,1,1.3,1.1,2
	c0.5,1.9,0.3,3.8-0.9,5.3c-0.7,0.9-1.5,1.6-2.6,1.8C83.8,34.9,83.2,35,82.3,35.2z M79.1,32.7c0.4,0.2,0.8,0.4,1.2,0.4
	c1.2,0.1,2.5,0.1,3.7-0.6c1.5-0.8,2.1-2.3,1.5-4.1c-0.3-1.2-1.2-1.7-2.1-1.8c-1.3-0.2-2.6-0.1-3.9-0.1c-0.1,0-0.3,0.2-0.3,0.3
	C79.1,28.8,79.1,30.7,79.1,32.7z"/>
<path class="st0" d="M49,32.9c0-2.6,0-5.1,0-7.7c0-0.9,0.3-1.2,1.2-1.2c1.8,0,3.6-0.1,5.3,0.1c2,0.2,3.9,0.8,5,2.5
	c0.6,0.8,0.9,1.7,0.9,2.6c0,1.1,0.1,2.2-0.4,3.3c-0.4,1-1.2,1.9-2.1,2.5c-1.6,1.2-3.5,1.4-5.5,1.3c-1.6-0.1-1.6,0-1.6,1.5
	c0,0.8,0,1.6,0,2.4c0,0.8-0.4,1.2-1.2,1.2c-0.2,0-0.4,0-0.7,0c-0.8,0-1.1-0.3-1.1-1C49,38,49,35.4,49,32.9z M54.1,26.6
	c-0.6,0-1.1,0-1.7,0c-0.3,0-0.5,0.1-0.5,0.5c0,2.2,0,4.3,0,6.5c0,0.4,0.2,0.6,0.6,0.6c1.1-0.1,2.2,0.1,3.3-0.3
	c0.8-0.3,1.4-0.7,2-1.3c0.7-0.8,0.6-1.8,0.7-2.8c0.1-1.7-1.5-3.2-3.3-3.2C54.8,26.6,54.5,26.6,54.1,26.6z"/>
<path class="st0" d="M165.2,28.2c-0.3,0.9-0.5,1.6-0.8,2.3c-0.4,0.9-0.7,1.8-1.1,2.8c-0.3,0.7-0.5,1.5-0.8,2.3
	c-0.1,0.3-0.2,0.6-0.3,0.9c-0.4,1.1-0.8,2.2-1.2,3.3c-0.1,0.3-0.2,0.7-0.4,1c-0.1,0.2-0.4,0.6-0.6,0.6c-0.6,0-1.2-0.1-1.8-0.1
	c-0.1,0-0.3-0.4-0.2-0.5c0.2-0.6,0.4-1.3,0.7-1.9c0.3-0.7,0.6-1.5,0.8-2.2c0.4-0.9,0.8-1.8,1.1-2.7c0.2-0.6,0.5-1.3,0.7-2
	c0.4-0.9,0.7-1.9,1-2.8c0.3-0.8,0.6-1.6,0.8-2.4c0.2-0.9,0.9-1.5,1.7-1.5c1.3-0.1,1.7,0.1,2.2,1.3c0.5,1.2,1,2.3,1.5,3.5
	c0.2,0.6,0.4,1.2,0.7,1.8c0.3,0.8,0.7,1.7,1,2.5c0.3,0.6,0.5,1.3,0.8,2c0.3,0.7,0.6,1.4,0.8,2.1c0.3,0.7,0.7,1.5,1,2.3
	c0.1,0.4-0.1,0.7-0.6,0.8c-0.5,0-0.9,0-1.4,0c-0.5,0-0.9-0.6-1-1.2c-0.2-0.7-0.5-1.5-0.8-2.2c-0.4-1-0.7-1.9-1.1-2.9
	c-0.2-0.7-0.5-1.3-0.8-2c-0.2-0.6-0.5-1.3-0.7-2c-0.3-0.9-0.7-1.8-1-2.7C165.6,28.5,165.5,28.4,165.2,28.2z"/>
<path class="st0" d="M191,39.2c0.4,0,0.6,0.1,0.9,0.1c1.8,0,3.6,0,5.4,0c0.8,0,0.9,0.1,0.9,0.9c0,0.2,0,0.5,0,0.7
	c0,0.5-0.3,0.8-0.8,0.8c-2.8,0-5.6,0-8.4,0c-0.5,0-0.8-0.2-0.8-0.7c0-0.1,0-0.3,0-0.4c0-4.7,0-9.4,0-14.1c0-0.2,0-0.5,0.1-0.7
	c0-0.1,0.2-0.4,0.3-0.4c0.7,0,1.4-0.1,2,0c0.4,0.1,0.4,0.4,0.4,0.8c0,4.1,0,8.2,0,12.2C191,38.6,191,38.9,191,39.2z"/>
<path class="st0" d="M107.9,32.8c0,2.6,0,5.2,0,7.7c0,0.8-0.2,1-0.9,1c-0.5,0-1.2,0.2-1.5-0.6c-0.1-0.2-0.1-0.4-0.1-0.5
	c0-5.1,0-10.2,0-15.3c0-0.8,0.3-1.1,1-1.1c0.2,0,0.5,0,0.7,0c0.6,0,0.8,0.2,0.8,0.9C107.9,27.6,107.9,30.2,107.9,32.8z"/>
<path class="st1" d="M17.6,14l17.6,9.7v19.4l-17.6,9.7L0,43.2V23.7L17.6,14z M1.3,24.4v18l16.3,9l16.3-9v-18l-16.3-9L1.3,24.4z"/>
<path class="st1" d="M7.5,27.8h20.1l-10,17.6L7.5,27.8z M9.6,29l7.9,13.9L25.5,29H9.6z"/>
<path class="st1" d="M8.1,29.1L0,24l0.7-1.2l8.1,5.1L8.1,29.1z"/>
<path class="st1" d="M26.3,27.8l8.1-5.1l0.7,1.2L27,29.1L26.3,27.8z"/>
<path class="st1" d="M17.6,52.9l-0.1-8.8l1.2,0l0.1,8.8L17.6,52.9z"/>
</svg>
