<?xml version="1.0" encoding="utf-8"?>
<!-- Generator: Adobe Illustrator 28.2.0, SVG Export Plug-In . SVG Version: 6.00 Build 0)  -->
<svg version="1.1" id="Layer_1" xmlns="http://www.w3.org/2000/svg" xmlns:xlink="http://www.w3.org/1999/xlink" x="0px" y="0px"
	 viewBox="0 0 164.5 66" style="enable-background:new 0 0 164.5 66;" xml:space="preserve">
<style type="text/css">
	.st0{clip-path:url(#SVGID_00000172429923844041898490000017526616511874088322_);}
	.st1{fill:#FFFFFF;filter:url(#Adobe_OpacityMaskFilter);}
	.st2{mask:url(#mask0_707_2348_00000067940046509788562510000010853865888243056535_);}
	.st3{fill-rule:evenodd;clip-rule:evenodd;fill:#17121A;}
	.st4{fill:#FFFFFF;filter:url(#Adobe_OpacityMaskFilter_00000077285818248595008600000009196171487724905374_);}
	.st5{mask:url(#mask1_707_2348_00000016771223973815100900000003464483763053037709_);}
</style>
<g>
	<defs>
		<rect id="SVGID_1_" x="0" y="13" width="164.5" height="39.9"/>
	</defs>
	<clipPath id="SVGID_00000096046368113166104950000004156635328025703851_">
		<use xlink:href="#SVGID_1_"  style="overflow:visible;"/>
	</clipPath>
	<g style="clip-path:url(#SVGID_00000096046368113166104950000004156635328025703851_);">
		<defs>
			<filter id="Adobe_OpacityMaskFilter" filterUnits="userSpaceOnUse" x="0" y="23.6" width="13.8" height="21">
				<feColorMatrix  type="matrix" values="1 0 0 0 0  0 1 0 0 0  0 0 1 0 0  0 0 0 1 0"/>
			</filter>
		</defs>
		
			<mask maskUnits="userSpaceOnUse" x="0" y="23.6" width="13.8" height="21" id="mask0_707_2348_00000067940046509788562510000010853865888243056535_">
			<path class="st1" d="M0,23.6h13.7v21H0V23.6z"/>
		</mask>
		<g class="st2">
			<path class="st3" d="M11.6,28.7c0,0-1.5-0.3-2.2-0.3c-0.9,0-1.7,0.2-2.3,0.6c-0.7,0.4-1.2,0.9-1.5,1.7C5.2,31.4,5,32.3,5,33.3
				v11.3H0V24.5h4.9v1.2c1.3-1.4,3.1-2.1,5.5-2.1c1.2,0,2.2,0,3.3,0.6L11.6,28.7z"/>
		</g>
		<path class="st3" d="M19.1,28.8c-0.8,0.7-1.3,1.7-1.6,3h9.2c-0.3-1.3-0.8-2.3-1.6-3c-0.8-0.7-1.8-1.1-2.9-1.1
			C20.9,27.7,19.9,28.1,19.1,28.8z M27.4,24.7c1.4,0.9,2.5,2.1,3.3,3.7c0.8,1.5,1.2,3.3,1.2,5.4c0,0.7,0,1.3-0.1,1.9H17.7
			c0.3,1.3,0.9,2.4,1.8,3.1c0.9,0.7,2.1,1.1,3.5,1.1c1,0,2-0.2,3-0.6c1-0.4,1.9-0.9,2.7-1.6l2.4,3.5c-1.1,1-2.3,1.7-3.7,2.2
			c-1.4,0.5-2.9,0.7-4.6,0.7c-2,0-3.7-0.4-5.2-1.3c-1.5-0.9-2.8-2.1-3.6-3.7c-0.8-1.6-1.3-3.4-1.3-5.4c0-2,0.4-3.8,1.2-5.4
			c0.8-1.6,2-2.8,3.5-3.7c1.5-0.9,3.2-1.3,5.2-1.3C24.3,23.4,25.9,23.8,27.4,24.7z"/>
		<path class="st3" d="M62.7,24.4c1.3,0.7,2.2,1.7,3,2.9c0.7,1.3,1,2.7,1,4.2l-0.1,12.6h-4.9l0.1-11.2c0-1.5-0.4-2.7-1.1-3.6
			c-0.7-0.8-1.8-1.3-3.1-1.3c-0.9,0-1.8,0.2-2.5,0.6c-0.7,0.4-1.3,1-1.7,1.7c-0.4,0.8-0.6,1.6-0.6,2.6v11.2H48V32.9
			c0-1.5-0.4-2.7-1.1-3.6c-0.7-0.8-1.8-1.3-3.1-1.3c-0.9,0-1.8,0.2-2.5,0.6c-0.7,0.4-1.3,1-1.7,1.7C39.2,31.1,39,32,39,32.9v11.2
			h-4.9V24.4h4.8v1.3c0.7-0.8,1.5-1.3,2.5-1.7c1-0.4,2-0.6,3.2-0.6c1.4,0,2.7,0.3,3.9,0.9c1.2,0.6,2.1,1.4,2.8,2.4
			c0.7-1.1,1.7-1.9,2.9-2.4c1.2-0.6,2.6-0.8,4.2-0.8C60.1,23.4,61.5,23.7,62.7,24.4z"/>
		<path class="st3" d="M76,28.7c-0.9,0.5-1.6,1.2-2.1,2.1c-0.5,0.9-0.8,1.9-0.8,3c0,1.1,0.2,2.1,0.7,3c0.5,0.9,1.2,1.6,2.1,2.1
			c0.9,0.5,1.8,0.7,2.9,0.7c1.1,0,2.1-0.2,2.9-0.7c0.9-0.5,1.6-1.2,2.1-2.1c0.5-0.9,0.8-1.9,0.8-3c0-1.1-0.2-2.1-0.7-3
			c-0.5-0.9-1.2-1.6-2.1-2.1c-0.9-0.5-1.8-0.7-3-0.7C77.9,27.9,76.9,28.2,76,28.7z M84.4,24.7c1.6,0.9,2.9,2.1,3.9,3.7
			c0.9,1.6,1.4,3.4,1.4,5.3c0,1.9-0.5,3.7-1.4,5.3c-0.9,1.6-2.2,2.8-3.9,3.8c-1.6,0.9-3.5,1.4-5.5,1.4c-2,0-3.8-0.4-5.5-1.3
			c-1.6-0.9-2.9-2.1-3.9-3.7c-0.9-1.6-1.4-3.4-1.4-5.3c0-1.9,0.5-3.7,1.4-5.3c0.9-1.6,2.2-2.8,3.9-3.8c1.7-0.9,3.5-1.3,5.5-1.3
			C80.9,23.4,82.7,23.8,84.4,24.7z"/>
		<path class="st3" d="M105.2,23.4h5.2l-8.2,20.8h-5.5l-8.5-20.8h5.4l5.9,15.1L105.2,23.4z"/>
		<path class="st3" d="M111.9,44.1h5.2V23.4h-5.2V44.1z"/>
		<defs>
			
				<filter id="Adobe_OpacityMaskFilter_00000152983577533994522470000008183079931512724885_" filterUnits="userSpaceOnUse" x="119.5" y="13.1" width="36.9" height="39.2">
				<feColorMatrix  type="matrix" values="1 0 0 0 0  0 1 0 0 0  0 0 1 0 0  0 0 0 1 0"/>
			</filter>
		</defs>
		
			<mask maskUnits="userSpaceOnUse" x="119.5" y="13.1" width="36.9" height="39.2" id="mask1_707_2348_00000016771223973815100900000003464483763053037709_">
			<path style="fill:#FFFFFF;filter:url(#Adobe_OpacityMaskFilter_00000152983577533994522470000008183079931512724885_);" d="
				M119.5,13.1h36.9v39.2h-36.9V13.1z"/>
		</mask>
		<g class="st5">
			<path class="st3" d="M121.7,23.5v-3c0-1.5,0.3-2.9,0.8-4c0.6-1.1,1.4-2,2.4-2.5c1-0.6,2.3-0.9,3.7-0.9c2.2,0,4.2,0.6,5.9,1.7
				l-1.8,4.2c-0.6-0.4-1.3-0.7-2-0.9c-0.7-0.2-1.3-0.3-1.9-0.3c-0.7,0-1.3,0.2-1.7,0.7c-0.4,0.5-0.6,1.1-0.6,2v3h3.9l2.2,4.5h-6.1
				v15.8h-5V28h-2.2l0-4.5H121.7z"/>
			<path class="st3" d="M150.9,23.3h5.5L139,52.3h-5.6l7.9-13.3L133,23.3h5.6l6,10.7L150.9,23.3z"/>
		</g>
		<path class="st3" d="M117.1,18.6c0,1.4-1.2,2.6-2.6,2.6c-1.4,0-2.6-1.2-2.6-2.6c0-1.4,1.2-2.6,2.6-2.6
			C115.9,16,117.1,17.1,117.1,18.6z"/>
		<path class="st3" d="M162.3,40.8l-1.1,1.1l-2.3-2.3l-2.2,2.2l-1.1-1.1l2.2-2.2l-2.2-2.2l1.1-1.1l2.2,2.2l2.3-2.3l1.1,1.1l-2.3,2.3
			L162.3,40.8z M159,33c-3.1,0-5.6,2.5-5.6,5.6c0,3.1,2.5,5.6,5.6,5.6c3.1,0,5.6-2.5,5.6-5.6C164.5,35.5,162,33,159,33z"/>
	</g>
</g>
</svg>
