<?xml version="1.0" encoding="utf-8"?>
<!-- Generator: Adobe Illustrator 28.2.0, SVG Export Plug-In . SVG Version: 6.00 Build 0)  -->
<svg version="1.1" id="Layer_1" xmlns="http://www.w3.org/2000/svg" xmlns:xlink="http://www.w3.org/1999/xlink" x="0px" y="0px"
	 viewBox="0 0 146 66" style="enable-background:new 0 0 146 66;" xml:space="preserve">
<style type="text/css">
	.st0{clip-path:url(#SVGID_00000014602915242839239310000006835969825599342261_);}
	.st1{fill-rule:evenodd;clip-rule:evenodd;fill:#17121A;}
</style>
<g>
	<defs>
		<rect id="SVGID_1_" x="-0.1" y="17" width="146" height="32.1"/>
	</defs>
	<clipPath id="SVGID_00000044897196458303077830000015227978463585736077_">
		<use xlink:href="#SVGID_1_"  style="overflow:visible;"/>
	</clipPath>
	<g style="clip-path:url(#SVGID_00000044897196458303077830000015227978463585736077_);">
		<path class="st1" d="M14.8,17c-0.1,0-0.3,0-0.6,0.1c-1.3,0.1-2.9,0.5-4.2,1c-3,1.2-5.6,3.3-7.4,6c-1.4,2.2-2.3,4.4-2.6,7.1
			c-0.1,0.8-0.1,2.6,0,3.4c0.4,3.5,1.7,6.5,4.1,9.1c0.7,0.7,1.6,1.6,2.5,2.2c1.1,0.8,2.6,1.6,4,2c2.9,1,6.2,1.2,9.2,0.4
			c2.7-0.7,5.2-2.1,7.2-4C27.5,43.8,38.9,31,38.9,31c0,0-1,0.2-2.3,0.4c-2.4,0.5-2.4,0.5-2.8,0.3c-0.3-0.1-0.6-0.4-0.7-0.7
			c-0.2-0.4-0.2-0.8,0-1.2c0.1-0.2,0.4-0.5,0.6-0.6c0.1,0,2.3-0.7,5-1.5c4.8-1.4,4.9-1.5,5.2-1.5c0.2,0,0.3,0,0.5,0.1
			c0.3,0.2,0.6,0.4,0.7,0.7c0.2,0.4,0.2,0.4-0.8,5.7c-0.5,2.7-0.9,4.9-0.9,5c-0.1,0.4-0.5,0.7-0.8,0.8c-0.9,0.3-1.8-0.4-1.8-1.3
			c0-0.1,0.1-1.2,0.2-2.4c0.1-1.2,0.2-2.1,0.1-2.1c0,0,0.7-0.8-6.1,6.8c-3.9,4.4-5.9,6.6-5.9,6.7c-0.2,0.3-0.1,0.8,0.2,1
			c0.1,0.1,0.2,0.2,0.5,0.3c1.2,0.5,2.7,0.8,4,1c1,0.1,2.5,0.1,3.5,0c1.1-0.1,2.3-0.4,3.3-0.7c5.6-1.9,9.7-6.7,10.7-12.5
			c0.2-1,0.2-1.3,0.2-2.7c0-1.3,0-1.8-0.2-2.9c-0.7-3.7-2.8-7.1-5.7-9.5c-2.4-1.9-5-3-8.2-3.4c-0.7-0.1-2.9-0.1-3.6,0
			c-3.5,0.4-6.5,1.8-9.1,4.2c-0.4,0.3-1.9,2-6.3,7c-3.4,3.8-5.8,6.5-5.8,6.6c0,0,1.1-0.2,2.3-0.4C17,34,17.1,34,17.3,34
			c0.5,0.1,0.9,0.5,1.1,0.9c0.1,0.3,0.1,0.7,0,1c-0.1,0.3-0.4,0.6-0.7,0.7c-0.2,0.1-9.7,3-10,3c-0.3,0.1-0.8-0.1-1.1-0.4
			c-0.3-0.3-0.5-0.8-0.4-1.2C6.4,37.2,8,28.2,8,28.1c0.1-0.2,0.3-0.5,0.4-0.7c0.7-0.6,1.7-0.3,2.1,0.5c0.1,0.3,0.2,0.5,0.1,1
			c0,0.2-0.1,1.2-0.2,2.1c-0.1,0.9-0.1,1.7-0.1,1.8c0,0.1,0,0.2,0,0.2c0.1,0,11.9-13.4,12-13.5c0.1-0.2,0.1-0.6,0-0.8
			c-0.1-0.3-0.3-0.4-0.9-0.6c-1.2-0.5-2.5-0.8-3.8-0.9C17.3,17,15.1,17,14.8,17z M88.1,18.4c-2.4,0.2-4.4,0.8-6,2
			c-0.4,0.3-1.1,0.9-1.4,1.3c-0.9,1.1-1.5,2.5-1.7,4c0,0.4,0,1.6,0,2c0.2,1.5,0.8,2.7,1.8,3.8c0.5,0.5,0.9,0.8,1.5,1.3
			c1.1,0.8,2.6,1.4,4.7,2.2c1.2,0.4,1.8,0.7,2.4,1c1.4,0.7,2.2,1.4,2.4,2.3c0.1,0.4,0.1,1.1,0,1.4c-0.2,1-1,1.5-2.3,1.8
			c-0.4,0.1-1.2,0.1-1.7,0.1c-2,0-4.8-0.7-6.9-1.7c-0.2-0.1-0.4-0.2-0.5-0.2c0,0-0.5,1.2-1,2.6c-0.9,2.4-1,2.6-0.9,2.6
			c0.1,0.1,0.8,0.4,1.3,0.5c1.8,0.6,4.1,1.2,6.2,1.5c0.7,0.1,3,0.1,3.7,0c2.5-0.3,4.4-0.9,5.9-2.1c0.4-0.3,1.2-1.1,1.5-1.5
			c0.9-1.2,1.4-2.6,1.5-4.1c0.1-0.6,0-1.7-0.1-2.2c-0.4-2.6-2.1-4.5-5.2-6c-0.7-0.3-1.1-0.5-2.6-1c-1.6-0.6-2.2-0.9-3-1.2
			c-1.6-0.8-2.2-1.5-2.2-2.4c0-1,0.7-1.8,2-2.2c0.6-0.2,1-0.2,1.8-0.2c1.8,0,3.2,0.3,5.2,1.2c0.4,0.2,0.7,0.3,0.7,0.3
			c0,0,0.2-0.5,0.9-2.4c0.5-1.3,0.9-2.5,0.9-2.5c0-0.1-1.2-0.5-2.1-0.9c-1.6-0.6-3.1-0.9-4.5-1.1C90.2,18.3,88.7,18.3,88.1,18.4z
			 M131.4,18.5c-3.6,0.3-6.5,1.6-8.7,3.9c-2.1,2.2-3.4,5-3.8,8.4c-0.1,0.7-0.1,2.6-0.1,3.3c0.3,3.2,1.2,5.7,2.9,8
			c0.4,0.5,1.4,1.5,1.9,1.9c1.4,1.1,3,1.9,4.8,2.3c2.5,0.6,5.6,0.6,8.2-0.2c4.2-1.2,7.2-4.1,8.5-8.3c0.5-1.6,0.8-3.1,0.8-5.1
			c0-1.8-0.1-3-0.5-4.6c-0.9-3.4-2.8-6.2-5.6-7.9c-1.6-0.9-3.4-1.5-5.4-1.8C133.9,18.5,131.9,18.4,131.4,18.5z M100,32.6v13.7h9.8
			h9.8v-2.7v-2.7h-6.6h-6.6v-3.2v-3.2h5.5h5.5l0.1-2.4c0.1-1.3,0.1-2.5,0.1-2.6l0-0.1h-5.6h-5.6l0-0.2c0-0.1,0-1.3,0-2.6v-2.3h6.1
			h6.1v-2.7v-2.7h-9.3H100V32.6z M55.2,26.9c0,4.7,0,8.2,0,8.6c0.3,6.8,3.4,10.5,9.1,11.3c1.1,0.1,2.8,0.1,4,0
			c2.2-0.2,4.1-0.9,5.6-2c1.6-1.2,2.7-2.9,3.4-5c0.4-1.2,0.6-2.5,0.7-4c0-0.4,0-3.5,0-8.7V19h-3.5h-3.5v8.3c0,7.2,0,8.4-0.1,8.9
			c-0.2,2.3-1.1,3.9-2.6,4.6c-0.8,0.4-1.8,0.6-2.8,0.5c-2.3-0.3-3.5-1.7-3.9-4.6c-0.1-0.8-0.1-2.1-0.1-9.8l0-7.8h-3.2h-3.2V26.9z
			 M133,23.9c2.3,0.2,4,1.4,5.1,3.5c1,2,1.3,4.8,0.9,7.4c-0.5,2.7-1.8,4.8-3.7,5.8c-1,0.5-2.1,0.8-3.4,0.8c-1.1,0-1.8-0.2-2.7-0.6
			c-1.6-0.8-2.7-2.4-3.2-4.5c-0.2-0.6-0.2-1-0.3-1.8c-0.1-0.6-0.1-2.7,0-3.3c0.3-2.4,1-4.2,2.3-5.5c1.1-1.1,2.4-1.7,4-1.8
			C132.4,23.8,132.5,23.8,133,23.9z"/>
	</g>
</g>
</svg>
