<svg width="145" height="144" viewBox="0 0 145 144" fill="none" xmlns="http://www.w3.org/2000/svg">
<rect x="0.25" width="144" height="144" rx="72" fill="#F3F4FA"/>
<path d="M96.25 76V68H112.25V76H96.25ZM101.05 104L88.25 94.4L93.05 88L105.85 97.6L101.05 104ZM93.05 56L88.25 49.6L101.05 40L105.85 46.4L93.05 56ZM44.25 100V84H40.25C38.05 84 36.1667 83.2167 34.6 81.65C33.0333 80.0833 32.25 78.2 32.25 76V68C32.25 65.8 33.0333 63.9167 34.6 62.35C36.1667 60.7833 38.05 60 40.25 60H56.25L76.25 48V96L56.25 84H52.25V100H44.25ZM80.25 85.4V58.6C82.05 60.2 83.5 62.15 84.6 64.45C85.7 66.75 86.25 69.2667 86.25 72C86.25 74.7333 85.7 77.25 84.6 79.55C83.5 81.85 82.05 83.8 80.25 85.4Z" fill="#1057FF"/>
</svg>
