<svg width="145" height="144" viewBox="0 0 145 144" fill="none" xmlns="http://www.w3.org/2000/svg">
<rect x="0.75" width="144" height="144" rx="72" fill="#F3F4FA"/>
<path d="M40.75 108V91L93.45 38.4C94.25 37.6 95.15 37 96.15 36.6C97.15 36.2 98.15 36 99.15 36C100.217 36 101.233 36.2 102.2 36.6C103.167 37 104.017 37.6 104.75 38.4L110.35 44C111.15 44.7333 111.75 45.5833 112.15 46.55C112.55 47.5167 112.75 48.5333 112.75 49.6C112.75 50.6 112.55 51.6 112.15 52.6C111.75 53.6 111.15 54.5 110.35 55.3L57.75 108H40.75ZM99.35 55.1L104.75 49.7L99.05 44L93.65 49.4L99.35 55.1ZM80.75 108C85.6833 108 90.25 106.767 94.45 104.3C98.65 101.833 100.75 98.4 100.75 94C100.75 91.6 100.117 89.5333 98.85 87.8C97.5833 86.0667 95.8833 84.5667 93.75 83.3L87.85 89.2C89.3833 89.8667 90.5833 90.6 91.45 91.4C92.3167 92.2 92.75 93.0667 92.75 94C92.75 95.5333 91.5333 96.9167 89.1 98.15C86.6667 99.3833 83.8833 100 80.75 100C79.6167 100 78.6667 100.383 77.9 101.15C77.1333 101.917 76.75 102.867 76.75 104C76.75 105.133 77.1333 106.083 77.9 106.85C78.6667 107.617 79.6167 108 80.75 108ZM43.05 77.4L49.05 71.4C47.7167 70.8667 46.6667 70.3167 45.9 69.75C45.1333 69.1833 44.75 68.6 44.75 68C44.75 67.2 45.35 66.4 46.55 65.6C47.75 64.8 50.2833 63.5667 54.15 61.9C60.0167 59.3667 63.9167 57.0667 65.85 55C67.7833 52.9333 68.75 50.6 68.75 48C68.75 44.3333 67.2833 41.4167 64.35 39.25C61.4167 37.0833 57.55 36 52.75 36C49.75 36 47.0667 36.5333 44.7 37.6C42.3333 38.6667 40.5167 39.9667 39.25 41.5C38.5167 42.3667 38.2167 43.3333 38.35 44.4C38.4833 45.4667 38.9833 46.3333 39.85 47C40.7167 47.7333 41.6833 48.0333 42.75 47.9C43.8167 47.7667 44.7167 47.3333 45.45 46.6C46.3833 45.6667 47.4167 45 48.55 44.6C49.6833 44.2 51.0833 44 52.75 44C55.4833 44 57.5 44.4 58.8 45.2C60.1 46 60.75 46.9333 60.75 48C60.75 48.9333 60.1667 49.7833 59 50.55C57.8333 51.3167 55.15 52.6667 50.95 54.6C45.6167 56.9333 41.9167 59.05 39.85 60.95C37.7833 62.85 36.75 65.2 36.75 68C36.75 70.1333 37.3167 71.95 38.45 73.45C39.5833 74.95 41.1167 76.2667 43.05 77.4Z" fill="#1057FF"/>
</svg>
