<svg width="145" height="144" viewBox="0 0 145 144" fill="none" xmlns="http://www.w3.org/2000/svg">
<rect x="0.75" width="144" height="144" rx="72" fill="#F3F4FA"/>
<path d="M43.35 112C39.75 112 37.0833 111.267 35.35 109.8C33.6167 108.333 32.75 106.133 32.75 103.2C32.75 99.3333 34.3833 96.8667 37.65 95.8C40.9167 94.7333 44.7833 94.2 49.25 94.2H51.35V88.6C51.35 86.3333 51.3167 84.4833 51.25 83.05C51.1833 81.6167 50.9833 80.4333 50.65 79.5C50.3167 78.5667 49.9333 77.9167 49.5 77.55C49.0667 77.1833 48.4833 77 47.75 77C47.15 77 46.6 77.1 46.1 77.3C45.6 77.5 45.1833 77.7667 44.85 78.1C44.5833 78.4333 44.4167 78.7833 44.35 79.15C44.2833 79.5167 44.3167 79.9 44.45 80.3C44.85 81.0333 45.3167 81.75 45.85 82.45C46.3833 83.15 46.65 83.9667 46.65 84.9C46.65 86.5667 46.0667 87.9833 44.9 89.15C43.7333 90.3167 42.3167 90.9 40.65 90.9C38.9833 90.9 37.5667 90.3167 36.4 89.15C35.2333 87.9833 34.65 86.5667 34.65 84.9C34.65 83.1 35.05 81.6333 35.85 80.5C36.65 79.3667 37.7333 78.4667 39.1 77.8C40.4667 77.1333 42.05 76.6667 43.85 76.4C45.65 76.1333 47.5833 76 49.65 76C55.3167 76 59.25 77.0167 61.45 79.05C63.65 81.0833 64.75 84.6667 64.75 89.8V104.5C64.75 105.767 64.9 106.7 65.2 107.3C65.5 107.9 66.0167 108.2 66.75 108.2C67.55 108.2 68.2 107.6 68.7 106.4C69.2 105.2 69.5167 103.333 69.65 100.8H70.75C70.55 104.933 69.7667 107.833 68.4 109.5C67.0333 111.167 64.75 112 61.55 112C58.6833 112 56.4333 111.55 54.8 110.65C53.1667 109.75 52.1167 108.4 51.65 106.6C50.9833 108.533 50 109.917 48.7 110.75C47.4 111.583 45.6167 112 43.35 112ZM80.65 112C79.3167 112 78.2333 111.45 77.4 110.35C76.5667 109.25 76.4167 108.067 76.95 106.8L87.15 79.9C87.6167 78.7667 88.35 77.8333 89.35 77.1C90.35 76.3667 91.4833 76 92.75 76C94.0167 76 95.15 76.3667 96.15 77.1C97.15 77.8333 97.8833 78.7667 98.35 79.9L108.55 106.8C109.083 108.067 108.933 109.25 108.1 110.35C107.267 111.45 106.183 112 104.85 112C104.05 112 103.317 111.767 102.65 111.3C101.983 110.833 101.483 110.2 101.15 109.4L99.15 103.6H86.35L84.35 109.4C84.0833 110.133 83.6167 110.75 82.95 111.25C82.2833 111.75 81.5167 112 80.65 112ZM48.25 109.1C49.1167 109.1 49.85 108.417 50.45 107.05C51.05 105.683 51.35 104.033 51.35 102.1V95.4C49.6167 95.4 48.35 95.9167 47.55 96.95C46.75 97.9833 46.35 99.6667 46.35 102V103.1C46.35 105.5 46.4833 107.1 46.75 107.9C47.0167 108.7 47.5167 109.1 48.25 109.1ZM88.95 96.6H96.65L92.75 85.2L88.95 96.6ZM85.25 68.1C82.05 68.1 79.5 66.9833 77.6 64.75C75.7 62.5167 74.75 59.5 74.75 55.7C74.75 48.7667 76.95 43.0833 81.35 38.65C85.75 34.2167 91.3833 32 98.25 32C101.05 32 103.317 32.3167 105.05 32.95C106.783 33.5833 107.65 34.4 107.65 35.4C107.65 35.8 107.583 36.2 107.45 36.6C107.317 37 107.083 37.3667 106.75 37.7C106.417 38.1667 106 38.5 105.5 38.7C105 38.9 104.483 38.9333 103.95 38.8C103.017 38.5333 101.95 38.3 100.75 38.1C99.55 37.9 98.45 37.8 97.45 37.8C92.7167 37.8 88.9167 39.4 86.05 42.6C83.1833 45.8 81.75 50.0333 81.75 55.3C81.75 56.7667 82.0167 58.3 82.55 59.9C83.0833 61.5 84.2833 62.3 86.15 62.3C86.8833 62.3 87.6 62.1333 88.3 61.8C89 61.4667 89.6167 61 90.15 60.4C91.2833 59.2 92.3333 57.2 93.3 54.4C94.2667 51.6 95.15 48.2 95.95 44.2C96.0833 43.3333 96.4333 42.7167 97 42.35C97.5667 41.9833 98.35 41.8 99.35 41.8C100.55 41.8 101.467 42.1167 102.1 42.75C102.733 43.3833 102.917 44.1667 102.65 45.1C101.85 47.9667 101.267 50.4667 100.9 52.6C100.533 54.7333 100.35 56.6667 100.35 58.4C100.35 59.7333 100.533 60.7 100.9 61.3C101.267 61.9 101.817 62.2 102.55 62.2C103.283 62.2 104 61.9333 104.7 61.4C105.4 60.8667 106.383 59.8667 107.65 58.4C107.783 58.2 108.283 57.9667 109.15 57.7C109.683 57.7 110.083 57.9 110.35 58.3C110.617 58.7 110.75 59.2667 110.75 60C110.75 61.8667 109.683 63.6667 107.55 65.4C105.417 67.1333 103.183 68 100.85 68C99.1167 68 97.6333 67.5333 96.4 66.6C95.1667 65.6667 94.3167 64.3333 93.85 62.6C92.85 64.3333 91.6167 65.6833 90.15 66.65C88.6833 67.6167 87.05 68.1 85.25 68.1ZM36.75 68V46C36.75 42.1333 38.1167 38.8333 40.85 36.1C43.5833 33.3667 46.8833 32 50.75 32C54.6167 32 57.9167 33.3667 60.65 36.1C63.3833 38.8333 64.75 42.1333 64.75 46V68H56.75V60H44.75V68H36.75ZM44.75 52H56.75V46C56.75 44.3333 56.1667 42.9167 55 41.75C53.8333 40.5833 52.4167 40 50.75 40C49.0833 40 47.6667 40.5833 46.5 41.75C45.3333 42.9167 44.75 44.3333 44.75 46V52Z" fill="#1057FF"/>
</svg>
