<svg width="145" height="144" viewBox="0 0 145 144" fill="none" xmlns="http://www.w3.org/2000/svg">
<rect x="0.25" width="144" height="144" rx="72" fill="#F3F4FA"/>
<path d="M111.85 85L83.25 113.6C82.45 114.4 81.55 115 80.55 115.4C79.55 115.8 78.55 116 77.55 116C76.55 116 75.55 115.8 74.55 115.4C73.55 115 72.65 114.4 71.85 113.6L36.55 78.3C35.8167 77.5667 35.25 76.7167 34.85 75.75C34.45 74.7833 34.25 73.7667 34.25 72.7V44C34.25 41.8 35.0333 39.9167 36.6 38.35C38.1667 36.7833 40.05 36 42.25 36H70.95C72.0167 36 73.05 36.2167 74.05 36.65C75.05 37.0833 75.9167 37.6667 76.65 38.4L111.85 73.7C112.65 74.5 113.233 75.4 113.6 76.4C113.967 77.4 114.15 78.4 114.15 79.4C114.15 80.4 113.967 81.3833 113.6 82.35C113.233 83.3167 112.65 84.2 111.85 85ZM52.25 60C53.9167 60 55.3333 59.4167 56.5 58.25C57.6667 57.0833 58.25 55.6667 58.25 54C58.25 52.3333 57.6667 50.9167 56.5 49.75C55.3333 48.5833 53.9167 48 52.25 48C50.5833 48 49.1667 48.5833 48 49.75C46.8333 50.9167 46.25 52.3333 46.25 54C46.25 55.6667 46.8333 57.0833 48 58.25C49.1667 59.4167 50.5833 60 52.25 60Z" fill="#1057FF"/>
</svg>
