<?xml version="1.0" encoding="utf-8"?>
<!-- Generator: Adobe Illustrator 28.2.0, SVG Export Plug-In . SVG Version: 6.00 Build 0)  -->
<svg version="1.1" id="Layer_1" xmlns="http://www.w3.org/2000/svg" xmlns:xlink="http://www.w3.org/1999/xlink" x="0px" y="0px"
	 viewBox="0 0 32 32" style="enable-background:new 0 0 32 32;" xml:space="preserve">
<style type="text/css">
	.st0{fill:#FFFFFF;}
	.st1{fill:#1057FF;}
</style>
<g id="Layer_2_00000008871894703703136000000002619168579930900398_">
	<rect class="st0" width="32" height="32"/>
</g>
<g id="Layer_1_00000106845553773839057870000004958286007251934377_">
	<path class="st1" d="M10.5,9.7H8c0-2,0.8-4,2.2-5.4s3.4-2.2,5.4-2.2v2.5c-1.3,0-2.7,0.5-3.6,1.5C11,7,10.5,8.3,10.5,9.7z"/>
	<path class="st1" d="M16.5,7.9l-1.8-1.8c1.4-1.4,3.4-2.2,5.4-2.2s4,0.8,5.4,2.2l-1.8,1.8c-1-0.9-2.3-1.5-3.6-1.5
		C18.7,6.4,17.4,7,16.5,7.9z"/>
	<path class="st1" d="M29.6,16h-2.5c0-1.3-0.5-2.7-1.5-3.6c-1-0.9-2.3-1.5-3.6-1.5V8.4c2,0,4,0.8,5.4,2.2C28.7,12,29.6,14,29.6,16z"
		/>
	<path class="st1" d="M25.5,25.9l-1.8-1.8c1-0.9,1.5-2.3,1.5-3.6c0-1.3-0.5-2.7-1.5-3.6l1.8-1.8c1.4,1.4,2.2,3.4,2.2,5.4
		S26.9,24.4,25.5,25.9z"/>
	<path class="st1" d="M15.6,29.9v-2.5c1.3,0,2.7-0.5,3.6-1.5c1-0.9,1.5-2.3,1.5-3.6h2.5c0,2-0.8,4-2.2,5.4
		C19.5,29.1,17.6,29.9,15.6,29.9z"/>
	<path class="st1" d="M11.1,28.1c-2,0-4-0.8-5.4-2.2l1.8-1.8c1,0.9,2.3,1.5,3.6,1.5s2.7-0.5,3.6-1.5l1.8,1.8
		C15,27.3,13.1,28.1,11.1,28.1z"/>
	<path class="st1" d="M9.2,23.6c-2,0-4-0.8-5.4-2.2C2.4,20,1.6,18,1.6,16h2.5c0,1.3,0.5,2.7,1.5,3.6s2.3,1.5,3.6,1.5V23.6z"/>
	<path class="st1" d="M5.7,16.9c-1.4-1.4-2.2-3.4-2.2-5.4s0.8-4,2.2-5.4l1.8,1.8c-1,1-1.5,2.3-1.5,3.6s0.5,2.7,1.5,3.6L5.7,16.9z"/>
</g>
</svg>
