<svg width="865" height="457" viewBox="0 0 865 457" fill="none" xmlns="http://www.w3.org/2000/svg">
<path d="M718.638 82.2081C718.638 82.2081 725.089 93.5053 729.121 96.733C729.121 96.733 731.54 108.224 735.169 110.144L744.579 94.4171L730.734 80.5942C730.734 80.5942 723.476 82.2081 718.638 82.2081Z" fill="#9A604D"/>
<path d="M734.766 78.9805L727.508 79.7874C727.508 79.7874 729.121 96.8864 733.153 99.6381C733.153 99.6381 732.347 109.668 733.153 113.283C733.153 113.283 729.121 133.852 740.41 132.238C740.41 132.238 742.829 132.238 742.829 129.011V90.794L737.185 81.4013L734.766 78.9805Z" fill="#AE7461"/>
<path d="M733.153 82.2082C738.797 87.0498 740.41 92.6984 740.41 95.1192C740.41 97.54 737.185 103.189 738.797 107.223C738.797 107.223 733.153 117.713 735.572 121.748C737.991 125.783 739.604 128.204 742.829 125.783C742.829 125.783 747.667 115.293 748.474 110.451C749.28 105.609 752.506 92.6984 754.925 90.2775C757.344 87.8567 754.925 82.2082 754.925 82.2082L746.055 72.5249L737.991 58L722.67 64.4555L733.153 82.2082Z" fill="#C28875"/>
<path d="M119.504 439.296C121.923 440.103 131.196 447.769 131.196 447.769L163.854 457H90.5L78 443.734L105.796 435.261L119.504 439.296Z" fill="#DBB49A"/>
<path d="M155.156 210.837L193.046 251.931L205.945 273.687L239.804 216.477L222.471 174.98L213.2 157.656L218.037 118.979L174.504 139.929L155.156 210.837Z" fill="#AE7461"/>
<path d="M559.851 88.3592C559.851 92.3881 562.269 131.871 570.331 135.094C570.331 135.094 586.454 124.619 597.741 118.979C609.027 113.338 643.692 86.7477 654.172 85.1361C664.652 83.5246 667.071 85.1361 678.357 87.5534C689.643 89.9708 711.853 85.4504 717.279 84.4834C722.704 83.5165 748.493 82.7188 748.493 72.2438C748.493 61.7687 743.656 63.3803 740.432 64.186C736.175 65.023 731.865 65.5615 727.533 65.7976C727.533 65.7976 742.044 61.7687 744.462 60.1572C744.462 60.1572 754.943 60.963 760.175 60.1572C760.175 60.1572 789.608 63.3803 792.832 56.9341C796.057 50.4879 789.608 49.6821 786.383 49.6821C783.158 49.6821 764.617 47.2648 761.392 45.6533C758.167 44.0417 737.005 48.0706 730.653 45.6533C724.3 43.236 709.797 45.6533 704.96 47.2648C700.123 48.8764 684.806 48.8764 679.969 49.6821C675.132 50.4879 667.071 51.2937 659.815 52.0995C652.56 52.9052 646.917 55.3225 629.987 62.5745C613.058 69.8264 559.851 88.3592 559.851 88.3592Z" fill="#B87E6B"/>
<path d="M123.329 171.757C120.104 170.145 105.593 162.893 106.803 181.023C107.399 189.887 93.0979 194.721 90.6794 196.333C88.2609 197.944 84.2301 201.167 81.0055 200.362C77.7808 199.556 60.8514 206.002 56.8206 212.448C52.7897 218.894 40.794 230.175 38.3272 232.995C35.8603 235.816 38.2788 237.427 36.6665 240.65C35.0541 243.873 22.9617 259.989 21.3493 296.248C21.3493 296.248 23.7678 304.201 21.3493 306.272C18.9308 308.343 14.0939 305.112 14.9 318.004C15.7062 330.897 10.8692 342.177 13.2877 351.847C15.7062 361.516 10.8692 362.322 14.0939 371.185C14.0939 371.185 5.22606 380.049 3.61373 388.106C2.0014 396.164 -3.64175 405.503 3.61373 416.542C10.8692 427.581 10.8692 434.841 10.8692 438.064C10.8692 441.287 11.6754 451.762 15.7062 454.18C19.737 456.597 17.0847 456.952 17.0847 456.952H90.4457C90.4457 456.952 102.006 442.093 113.292 442.899C124.579 443.705 131.028 448.539 131.028 448.539C131.028 448.539 133.446 425.978 125.385 421.949C117.323 417.92 103.618 423.56 104.425 417.114C105.231 410.668 104.425 402.61 106.843 396.164C109.262 389.718 116.517 384.883 118.129 383.272C119.742 381.66 118.935 369.574 122.966 372.797C126.997 376.02 210.032 456.952 210.032 456.952L331.36 457C331.36 457 366.025 399.79 372.474 388.509C378.923 377.229 394.644 342.76 392.225 340.343C389.807 337.926 380.551 336.314 381.357 333.897C382.163 331.479 392.225 326.868 385.776 294.637C385.776 294.637 387.388 281.745 385.776 278.521C384.163 275.298 397.062 267.901 404.318 260.722C411.573 253.543 455.106 233.398 461.555 230.175C468.005 226.952 499.445 205.196 506.7 199.556C513.956 193.915 510.731 189.081 529.273 179.411C547.815 169.742 538.141 169.742 544.59 168.936C551.039 168.131 553.458 161.684 559.907 162.49C566.357 163.296 571.193 159.267 573.612 154.433C576.031 149.598 583.286 144.763 579.255 139.929C575.224 135.094 564.744 130.259 562.326 86.7477C562.326 86.7477 561.52 77.8842 550.233 81.1073C538.947 84.3303 519.599 82.7188 515.568 84.3303C511.537 85.9419 509.925 86.7477 513.15 99.64C513.15 99.64 499.445 101.252 496.22 103.669C492.996 106.086 488.965 109.309 484.128 108.504C479.291 107.698 469.617 110.115 465.586 113.338C461.555 116.561 445.432 114.144 440.595 116.561C435.758 118.979 427.696 122.202 428.502 129.454C429.309 136.706 418.022 136.544 412.782 137.431C407.542 138.317 399.481 140.734 394.644 143.957C389.807 147.181 383.357 139.929 377.714 141.54C372.071 143.152 363.203 145.569 360.785 148.792C358.366 152.015 352.723 149.598 351.917 147.181C351.111 144.763 343.855 139.123 339.824 139.929C335.794 140.734 326.926 139.929 324.507 138.317C322.089 136.706 312.415 139.123 308.384 146.375C304.353 153.627 292.261 145.569 285.811 145.569C279.362 145.569 270.494 148.792 264.045 157.656C257.596 166.519 251.953 154.433 246.309 156.85C240.666 159.267 236.635 164.908 225.349 164.102C214.063 163.296 210.435 164.505 210.435 164.505C210.435 164.505 209.153 172.965 217.288 202.779C220.915 216.074 218.497 224.132 216.481 235.816C215.675 240.65 209.226 258.377 208.42 261.6C208.42 261.6 200.358 247.902 193.103 240.65C185.847 233.398 162.468 210.837 160.856 210.031C159.244 209.225 148.764 206.002 140.702 198.75C132.64 191.498 123.329 171.757 123.329 171.757Z" fill="#1057FF"/>
<path d="M337.769 457L395.812 343.386L404.277 343.233C404.277 343.233 415.563 341.372 422.819 342.177C430.074 342.983 434.911 344.595 434.105 339.76C433.299 334.925 429.268 326.062 437.33 327.674C445.392 329.285 451.035 333.314 455.066 332.508C459.096 331.702 466.352 320.422 485.7 329.285C505.048 338.149 503.435 340.566 503.435 340.566C503.435 340.566 509.079 333.314 528.426 335.731C547.774 338.149 555.836 334.12 563.898 330.091C571.959 326.062 585.664 337.343 596.144 334.925C606.624 332.508 630.003 331.702 638.065 331.702C646.126 331.702 650.157 329.285 665.474 332.508C680.791 335.731 704.976 328.479 716.263 334.12C720.547 332.151 725.267 331.318 729.967 331.702C737.223 332.508 740.448 337.343 745.285 338.954C750.122 340.566 763.826 342.177 767.857 346.206C771.888 350.235 779.869 353.063 788.011 362.322C823.079 402.207 842.83 420.031 847.264 423.158L865 457L318.324 456.952" fill="#141B39"/>
<path d="M381.689 333.314C380.076 335.731 370.676 375.045 363.55 387.704C356.294 400.596 339.768 432.424 339.768 432.424C339.768 432.424 326.934 450.046 317.195 456.952H352.667C352.667 456.952 366.371 431.618 376.045 413.891C385.719 396.164 400.23 365.456 404.261 343.741L381.689 333.314Z" fill="#141B39"/>
<path d="M356.294 400.596L378.464 411.474L360.728 444.511L340.574 431.618L356.294 400.596Z" fill="#667085"/>
<path d="M168.055 31.1494L105.174 46.4591L101.95 92.3881L90.6633 131.065C90.6633 131.065 117.267 168.936 119.685 172.16C122.104 175.383 139.839 200.362 145.482 203.585C151.126 206.808 164.024 214.865 178.535 197.138C193.046 179.411 201.914 168.936 205.139 156.85C208.363 144.763 221.262 129.454 221.262 129.454L234.161 96.417L221.262 59.3514L193.852 36.7898L168.055 31.1494Z" fill="#B87E6B"/>
<path d="M118.073 59.3514C115.525 62.4697 114.042 73.8553 114.042 81.913C114.042 89.9708 112.43 106.892 110.011 112.532C110.011 112.532 107.593 102.863 104.368 102.863C101.143 102.863 100.499 108.504 101.224 112.532C101.95 116.561 101.143 120.59 103.562 123.813C105.98 127.036 105.174 138.317 112.43 139.123C112.43 139.123 110.817 155.238 114.848 163.296C117.023 167.726 119.445 172.03 122.104 176.188C122.104 176.188 115.251 171.757 109.205 174.577C105.553 176.277 101.571 179.411 100.958 176.188C100.345 172.965 97.9188 172.16 96.3065 172.965C94.6941 173.771 89.8571 171.354 90.6633 168.131C90.6633 168.131 94.6941 171.354 95.5003 170.548L96.3065 169.742C96.3065 169.742 95.5003 162.49 89.051 160.073C82.6017 157.656 89.051 147.72 89.051 147.72C87.4386 142.346 84.9315 135.932 86.1891 131.484C86.1891 131.484 80.1832 127.842 82.6017 123.813C85.0202 119.784 81.7955 119.124 80.5943 118.648C79.3931 118.173 86.6325 114.95 84.214 110.921C81.7955 106.892 72.1215 104.475 78.5708 94.8054C78.5708 94.8054 78.5708 101.252 80.9893 99.64C83.4078 98.0285 79.8526 91.3889 76.3942 89.4712C76.3942 89.4712 83.4078 90.7765 77.7647 81.1073C72.1215 71.438 78.5708 64.9918 80.9893 64.9918C80.9893 64.9918 80.9893 59.3514 80.1832 57.7399C80.1832 57.7399 83.4078 56.9341 85.0202 49.6821C86.6325 42.4302 90.6633 35.984 97.1126 34.3725C103.562 32.7609 99.5311 23.0917 107.593 21.4801C115.654 19.8686 118.073 11.0695 122.104 9.82865C126.135 8.58776 135.808 9.39353 138.227 6.97621C140.645 4.5589 147.095 2.14158 151.126 2.94735C155.156 3.75313 157.575 -2.69305 167.249 1.33581C176.923 5.36467 183.372 2.94735 191.434 8.58776C199.495 14.2282 200.302 6.97621 207.557 14.2282C214.813 21.4801 215.619 20.6743 218.037 23.8974C220.456 27.1205 230.13 29.5378 228.517 37.5956C226.905 45.6533 234.161 41.6244 233.354 36.7898C233.354 36.7898 234.161 44.0417 237.385 48.0706C240.61 52.0995 242.222 60.963 244.641 64.186C247.059 67.4091 241.416 69.0207 241.416 70.6322C241.416 72.2438 243.834 73.8553 243.028 75.4669C242.222 77.0784 238.191 77.8842 241.416 80.3015C244.641 82.7188 247.059 82.7188 247.059 82.7188C247.059 82.7188 240.61 92.3881 243.028 98.8343C245.447 105.28 240.61 103.669 240.61 103.669C240.61 103.669 242.222 106.892 243.834 106.892C245.447 106.892 241.416 113.338 237.385 113.338C233.354 113.338 237.385 120.59 237.385 120.59C234.967 125.425 233.354 127.842 235.773 130.259C238.191 132.677 234.161 132.677 234.161 132.677C234.161 132.677 238.997 143.152 230.936 147.986C222.874 152.821 219.65 157.656 230.13 152.821C230.13 152.821 226.099 161.684 218.843 163.296C211.588 164.908 211.185 177.397 211.185 177.397C211.185 177.397 205.139 145.569 208.363 141.54C211.588 137.511 222.068 119.784 222.068 108.504C222.068 108.504 219.65 106.892 215.619 112.532C211.588 118.173 205.945 127.036 208.363 102.057C210.782 77.0784 207.557 80.3015 208.363 73.0495C209.169 65.7976 205.139 56.9341 198.689 57.7399C192.24 58.5456 184.178 60.963 180.148 59.3514C176.117 57.7399 165.637 56.9341 164.024 62.5745C164.024 62.5745 159.187 53.711 140.645 56.1283C122.104 58.5456 125.328 50.4879 118.073 59.3514Z" fill="#372A25"/>
<path d="M118.253 95.2955C119.329 92.5909 124.68 92.8735 126.287 90.4515C127.894 88.0295 136.732 96.1029 141.553 96.9102C146.374 97.7175 147.981 100.14 149.588 101.754C151.195 103.369 141.553 102.562 138.339 100.14C135.125 97.7175 131.108 94.4882 127.091 95.2955C123.073 96.1029 116.646 99.3322 118.253 95.2955Z" fill="#372A25"/>
<path d="M173.692 100.947C172.647 102.416 173.692 105.791 179.316 103.369C184.94 100.947 192.171 97.7175 195.385 98.5249C198.599 99.3322 200.254 101.011 201.813 102.562C203.371 104.112 203.42 99.1062 201.813 97.5884C200.206 96.0706 198.599 93.6486 194.582 93.6486C190.564 93.6486 188.957 95.2632 184.137 96.8779C179.316 98.4926 177.709 95.2955 173.692 100.947Z" fill="#372A25"/>
<path d="M146.374 109.02C147.177 109.828 148.784 110.635 145.57 110.635C142.356 110.635 142.943 109.828 139.842 110.635C136.74 111.442 126.689 109.424 125.885 106.195C129.323 103.777 133.536 102.74 137.696 103.288C144.767 104.176 146.374 109.02 146.374 109.02Z" fill="#E1BFB8"/>
<path d="M176.52 111.846C176.52 111.846 178.93 107.002 183.751 105.387C187.857 104.007 194.598 104.984 195.401 109.828C195.401 109.828 190.58 113.057 186.563 113.057C182.546 113.057 184.08 111.442 180.135 112.25C178.127 112.653 175.716 113.461 176.52 111.846Z" fill="#E1BFB8"/>
<path d="M138.757 165.938C139.561 169.167 146.792 179.662 154.023 180.47C161.254 181.277 165.271 181.277 168.485 179.662C171.699 178.048 182.948 169.167 181.341 166.745C179.734 164.323 165.271 165.13 165.271 165.13L138.757 165.938Z" fill="#9E6E66"/>
<path d="M137.15 163.516C141.971 161.901 152.416 156.25 155.63 157.057C158.844 157.864 159.229 162.256 161.254 161.094C163.279 159.931 163.664 157.864 167.682 158.672C171.699 159.479 182.144 165.938 182.948 166.745C183.751 167.552 177.323 167.552 172.503 167.552C167.682 167.552 165.271 169.974 161.254 169.974C157.237 169.974 154.826 168.36 149.202 167.552C143.578 166.745 136.347 166.745 136.347 165.938C136.486 165.093 136.757 164.275 137.15 163.516Z" fill="#985C50"/>
<ellipse cx="137.014" cy="106.75" rx="4.01408" ry="3.75" fill="#392E26"/>
<ellipse cx="185.986" cy="108.25" rx="4.01408" ry="3.75" fill="#392E26"/>
<ellipse cx="135.904" cy="105.476" rx="1.60197" ry="1.60646" fill="white"/>
<ellipse cx="137.506" cy="106.279" rx="0.800986" ry="0.803228" fill="white"/>
<ellipse cx="186.366" cy="107.886" rx="0.800986" ry="0.803228" fill="white"/>
<ellipse cx="184.764" cy="107.082" rx="1.60197" ry="1.60646" fill="white"/>
<path d="M141.11 112.303C141.11 112.303 129.496 112.705 126.596 107.082C126.596 107.082 129.8 103.114 133.853 103.291C137.906 103.468 141.983 104.271 144.715 107.082L142.312 104.673C142.312 104.673 148.72 107.082 149.521 109.492C149.521 109.492 149.28 105.91 140.189 103.283C131.098 100.657 126.116 102.263 123 106.279C123.896 106.704 124.734 107.244 125.491 107.886C126.292 108.689 127.093 112.705 134.302 112.906C139.925 113.066 141.11 112.303 141.11 112.303Z" fill="#372A25"/>
<path d="M171.548 110.697C171.548 110.697 175.953 105.476 181.56 104.673C187.167 103.869 192.566 103.066 196.274 106.279C197.941 107.65 199.52 109.125 201 110.697C201 110.697 199.983 112.705 193.575 115.918C193.575 115.918 191.172 116.721 194.376 113.508C197.58 110.295 194.376 111.098 191.172 111.902C191.172 111.902 196.346 109.436 192.958 107.46C189.57 105.484 185.845 103.869 181.704 106.279C177.563 108.689 175.985 112.319 175.168 112.914C175.963 110.852 177.199 108.991 178.789 107.46C181.56 104.673 180.006 105.42 176.778 107.46C173.55 109.5 171.548 110.697 171.548 110.697Z" fill="#372A25"/>
<path d="M137.105 156.481C135.672 157.196 128.295 160.497 130.697 163.71C133.1 166.923 132.299 167.18 137.105 165.847C139.879 165.179 142.567 164.192 145.115 162.907C146.717 162.103 153.926 158.891 157.13 159.694C160.334 160.497 157.394 157.236 159.605 156.481C161.936 155.678 161.936 158.087 161.936 158.891C161.936 159.694 162.737 159.694 166.742 160.497C170.747 161.3 182.489 165.477 184.628 166.602C186.766 167.726 192.534 166.602 188.449 161.541C184.364 156.481 183.563 156.481 180.359 154.874C177.155 153.268 175.553 151.662 171.548 150.858C167.543 150.055 164.339 153.268 161.135 152.465C157.931 151.662 156.329 149.252 152.324 149.252C148.319 149.252 140.309 154.874 137.105 156.481Z" fill="#372A25"/>
<path d="M159.949 145.85C156.745 146.501 151.139 141.031 145.532 141.834C139.925 142.637 143.93 144.244 148.736 144.244C150.57 144.244 153.542 145.047 157.546 147.457C161.551 149.866 162.729 145.722 169.353 144.581C175.977 143.44 179.357 143.183 177.267 141.706C175.176 140.228 169.561 141.706 167.158 142.637C163.153 144.244 163.954 145.047 159.949 145.85Z" fill="#141B39"/>
</svg>
