<svg width="28" height="28" viewBox="0 0 28 28" fill="none" xmlns="http://www.w3.org/2000/svg">
<g clip-path="url(#clip0_987_1473)">
<path d="M22.2801 28.0002C22.1723 27.9855 22.0646 27.9666 21.9568 27.9571C21.1561 27.8839 20.3906 27.6651 19.6415 27.3851C18.8201 27.0785 18.0313 26.6995 17.2633 26.28C16.0151 25.5969 14.7911 24.8734 13.6102 24.0783C12.1508 23.0955 10.7846 21.9963 9.49764 20.7982C8.27965 19.6629 7.11424 18.4759 6.01607 17.2243C4.76101 15.7944 3.67577 14.2431 2.71551 12.6039C2.18625 11.6994 1.6613 10.7924 1.2122 9.84486C0.786379 8.94558 0.429515 8.02046 0.205398 7.04797C0.0829954 6.51736 0.00541632 5.97985 0.00024438 5.43719C-0.0092375 4.50259 0.257117 3.65155 0.813962 2.89353C1.20703 2.35775 1.69061 1.92017 2.22504 1.53255C2.87756 1.05965 3.57405 0.666004 4.3145 0.348155C4.50672 0.265463 4.69809 0.177602 4.89376 0.105246C5.35837 -0.0678909 5.81005 -0.0256833 6.23329 0.230146C6.41172 0.337819 6.58067 0.466164 6.73928 0.601401C7.36681 1.13718 7.89952 1.75996 8.38395 2.42494C9.15199 3.48013 9.85537 4.57667 10.4381 5.74556C10.651 6.1728 10.8303 6.61728 11.013 7.0583C11.1018 7.27279 11.1466 7.50277 11.1656 7.73535C11.2027 8.19532 11.0906 8.61998 10.8717 9.02139C10.6837 9.3668 10.4476 9.67948 10.214 9.99474C10.0778 10.1774 9.94157 10.36 9.81055 10.546C9.75538 10.6236 9.70969 10.7088 9.66746 10.7941C9.60194 10.9293 9.58126 11.0741 9.62436 11.2196C9.6709 11.3764 9.71831 11.534 9.78296 11.6839C10.0398 12.28 10.3751 12.8339 10.7415 13.3679C11.9569 15.1432 13.48 16.5938 15.3385 17.686C15.6885 17.8919 16.0488 18.0788 16.4298 18.2209C16.5108 18.2511 16.5944 18.2752 16.6763 18.3019C16.8944 18.3725 17.1021 18.345 17.2926 18.2226C17.465 18.1124 17.6331 17.9935 17.7995 17.8746C18.1184 17.6464 18.4313 17.4104 18.7528 17.1855C18.9778 17.0288 19.2217 16.9039 19.4847 16.822C19.9751 16.6687 20.457 16.7135 20.9319 16.8918C21.4198 17.0744 21.8818 17.313 22.3396 17.5594C23.655 18.2666 24.9212 19.0496 26.1065 19.96C26.5892 20.3313 27.0253 20.7499 27.4262 21.2073C27.6011 21.4063 27.7658 21.6139 27.8692 21.8611C27.9227 21.9895 27.9563 22.1256 27.9994 22.2591V22.6966C27.9623 22.8319 27.9347 22.9697 27.8856 23.1006C27.8149 23.2876 27.7296 23.4693 27.6494 23.6528C27.3201 24.4073 26.9072 25.1137 26.4176 25.7761C25.9884 26.3558 25.4979 26.8718 24.8807 27.2568C24.2894 27.6263 23.6575 27.883 22.9576 27.9536C22.8585 27.964 22.7611 27.9847 22.6619 28.0002H22.2784H22.2801Z" fill="white"/>
</g>
<defs>
<clipPath id="clip0_987_1473">
<rect width="28" height="28" fill="white"/>
</clipPath>
</defs>
</svg>
