<svg width="18" height="22" viewBox="0 0 18 22" fill="none" xmlns="http://www.w3.org/2000/svg">
<path d="M9 20.2977C11.3327 18.2084 13.1178 16.2043 14.3553 14.2855C15.5928 12.3667 16.2115 10.6861 16.2115 9.24371C16.2115 7.06873 15.5209 5.2807 14.1398 3.87964C12.7586 2.47858 11.0454 1.77804 9 1.77804C6.95464 1.77804 5.24139 2.47858 3.86024 3.87964C2.47909 5.2807 1.78851 7.06873 1.78851 9.24371C1.78851 10.6861 2.40724 12.3667 3.64469 14.2855C4.88216 16.2043 6.66727 18.2084 9 20.2977ZM9 22C8.76765 22 8.5353 21.9599 8.30295 21.8796C8.07059 21.7993 7.8604 21.675 7.67237 21.5067C6.60232 20.5202 5.60106 19.5042 4.66857 18.4588C3.73608 17.4134 2.92551 16.3683 2.23684 15.3236C1.54817 14.279 1.0032 13.2435 0.601933 12.2172C0.200644 11.1908 0 10.1997 0 9.24371C0 6.49058 0.890068 4.26168 2.6702 2.55701C4.45032 0.852336 6.56025 0 9 0C11.4397 0 13.5497 0.852336 15.3298 2.55701C17.1099 4.26168 18 6.49058 18 9.24371C18 10.1997 17.7994 11.1889 17.3981 12.2114C16.9968 13.2339 16.4537 14.2694 15.7689 15.3179C15.0841 16.3664 14.2754 17.4114 13.3429 18.4531C12.4104 19.4947 11.4091 20.5087 10.3391 21.4953C10.1538 21.6635 9.94327 21.7897 9.70746 21.8738C9.47163 21.9579 9.23581 22 9 22ZM9.00203 11.1732C9.59533 11.1732 10.1025 10.9618 10.5237 10.5391C10.9448 10.1164 11.1554 9.6082 11.1554 9.01456C11.1554 8.42093 10.9442 7.91342 10.5217 7.49204C10.0992 7.07066 9.59127 6.85997 8.99797 6.85997C8.40467 6.85997 7.89745 7.07133 7.47631 7.49407C7.05517 7.9168 6.8446 8.42498 6.8446 9.01862C6.8446 9.61225 7.05585 10.1198 7.47834 10.5411C7.90083 10.9625 8.40873 11.1732 9.00203 11.1732Z" fill="#FAFCFE"/>
</svg>
