<svg width="21" height="18" viewBox="0 0 21 18" fill="none" xmlns="http://www.w3.org/2000/svg">
<path d="M12.0371 16.1692L12.7991 17.3813C18.0711 13.7149 21 9.26002 21 5.59354C21 2.04828 18.4807 0.381348 16.3428 0.381348C13.6482 0.381348 11.7447 2.7455 11.7447 5.2299C11.7447 7.3206 13.0334 9.10874 14.7617 9.77591C15.2594 9.95821 15.728 10.1095 15.728 10.988C15.728 12.109 14.9369 13.775 12.0371 16.1692ZM0.409578 16.1692L1.17156 17.3813C6.38548 13.7149 9.37249 9.26002 9.37249 5.59354C9.37249 2.04828 6.79505 0.381348 4.65719 0.381348C1.93354 0.381348 0 2.7455 0 5.2299C0 7.3206 1.31777 9.10874 3.10511 9.77591C3.60279 9.95821 4.04235 10.1095 4.04235 10.988C4.04235 12.109 3.22226 13.776 0.410515 16.1702L0.409578 16.1692Z" fill="#010101"/>
</svg>
