<svg width="21" height="18" viewBox="0 0 21 18" fill="none" xmlns="http://www.w3.org/2000/svg">
<path d="M8.96291 1.59349L8.20093 0.381348C2.9289 4.04782 0 8.50268 0 12.1692C0 15.7144 2.51933 17.3813 4.65719 17.3813C7.35178 17.3813 9.25533 15.0172 9.25533 12.5328C9.25533 10.4421 7.96662 8.65395 6.23833 7.98679C5.74065 7.80448 5.27203 7.65321 5.27203 6.77465C5.27203 5.65367 6.06306 3.9877 8.96291 1.59349ZM20.5904 1.59349L19.8284 0.381348C14.6145 4.04782 11.6275 8.50268 11.6275 12.1692C11.6275 15.7144 14.2049 17.3813 16.3428 17.3813C19.0665 17.3813 21 15.0172 21 12.5328C21 10.4421 19.6822 8.65395 17.8949 7.98679C17.3972 7.80448 16.9576 7.65321 16.9576 6.77465C16.9576 5.65367 17.7777 3.98673 20.5895 1.59252L20.5904 1.59349Z" fill="#010101"/>
</svg>
