<svg width="195" height="34" viewBox="0 0 195 34" fill="none" xmlns="http://www.w3.org/2000/svg">
<g clip-path="url(#clip0_555_1765)">
<path d="M64.2993 20.7997C64.2993 25.114 60.0351 28.1924 52.2904 28.1924C46.9521 28.1924 42.2362 26.6348 38.6865 23.5886L41.1252 20.8319C44.2184 23.5886 47.8603 24.82 52.4472 24.82C57.5227 24.82 60.3209 23.4921 60.3209 21.1213C60.3209 18.7505 57.4582 18.1716 51.728 17.6846C45.4493 17.1654 39.5255 15.7686 39.5255 11.1327C39.5255 6.49673 44.7624 4.12592 51.3039 4.12592C56.2504 4.12592 60.4454 5.587 63.1791 7.88889L60.7082 10.5492C58.3663 8.50456 55.144 7.5351 51.3684 7.49835C47.7543 7.46619 43.4624 8.34375 43.4624 10.8708C43.4624 13.2692 47.2702 13.6919 52.2489 14.0824C59.3436 14.6338 64.2901 16.0627 64.2901 20.7951L64.2993 20.7997Z" fill="#FAFCFE"/>
<path d="M86.7176 9.74054V27.5124H82.9098V24.0757C81.347 26.6073 78.4197 28.1603 74.7732 28.1603C69.3381 28.1603 66.6367 24.6914 66.6367 19.89V9.74054H70.4123V19.6327C70.4123 23.1338 72.2009 25.0176 75.7506 25.0176C78.8115 25.0176 81.3793 23.5886 82.9098 20.6711V9.74054H86.7176Z" fill="#FAFCFE"/>
<path d="M93.7751 24.333V34H89.9673V9.74055H93.7751V12.92C95.3056 10.6824 98.1684 9.09271 101.976 9.09271C107.771 9.09271 111.606 12.8557 111.606 18.6265C111.606 24.3973 107.766 28.1603 101.976 28.1603C98.1684 28.1603 95.3056 26.5706 93.7751 24.333ZM93.7751 15.9662V21.2868C95.4669 23.9149 98.0393 24.9165 100.999 24.9165C105.424 24.9165 107.895 22.6789 107.895 18.6265C107.895 14.5741 105.424 12.3043 100.999 12.3043C98.0393 12.3043 95.4669 13.3427 93.7751 15.9708V15.9662Z" fill="#FAFCFE"/>
<path d="M125.469 25.2105C128.755 25.2105 130.807 24.3651 132.757 22.6468L134.97 25.013C132.531 27.1862 129.438 28.1924 125.275 28.1924C118.148 28.1924 114.05 24.4938 114.05 18.6587C114.05 12.8235 118.148 9.06055 125.017 9.06055C131.429 9.06055 135.592 12.4008 135.592 18.6265C135.592 19.0492 135.56 19.2743 135.495 19.4719H117.793C118.153 23.3314 120.983 25.2105 125.473 25.2105H125.469ZM117.95 16.7795L131.909 16.7473C131.097 13.5035 128.557 12.0424 125.044 12.0424C121.301 12.0424 118.664 13.6322 117.95 16.7795Z" fill="#FAFCFE"/>
<path d="M138.284 27.5124V9.74052H142.092V13.793C143.526 10.9397 146.845 9.38214 150.519 9.38214V12.6902C146.55 12.6902 143.295 14.3443 142.092 17.6846V27.5124H138.284Z" fill="#FAFCFE"/>
<path d="M152.344 5.20108C152.344 3.96973 153.386 3.09216 154.783 3.09216C156.18 3.09216 157.189 3.96973 157.189 5.20108C157.189 6.36811 156.18 7.31 154.783 7.31C153.386 7.31 152.344 6.36811 152.344 5.20108ZM156.705 27.5124H152.93V9.74054H156.705V27.5124Z" fill="#FAFCFE"/>
<path d="M179.252 22.2929C179.252 25.601 175.998 28.197 169.719 28.197C165.358 28.197 161.55 26.7681 158.982 24.5305L161.034 22.2929C163.118 24.0756 166.013 25.2427 169.82 25.2427C173.107 25.2427 175.647 24.3973 175.647 22.6146C175.647 20.8319 173.338 20.2805 169.138 19.9543C164.288 19.5959 159.669 18.461 159.669 14.6659C159.669 11.197 163.247 9.05591 169.235 9.05591C172.881 9.05591 176.297 10.3516 178.376 11.877L176.39 14.3397C174.665 13.0119 172.291 12.0378 169.037 12.0056C166.63 12.0056 163.279 12.4927 163.279 14.4362C163.279 16.251 166.109 16.5773 169.756 16.8024C175.223 17.1929 179.257 18.6816 179.257 22.2837L179.252 22.2929Z" fill="#FAFCFE"/>
<path d="M195 26.5062C193.534 27.4803 191.552 28.1603 189.5 28.1603C186.02 28.1603 183.254 26.3133 183.254 22.6146V12.7546H179.806V9.74055H183.254V5.6192H187.062V9.74055H194.839V12.7546H187.062V21.9989C187.062 23.9792 188.592 24.9487 190.445 24.9487C191.778 24.9487 192.921 24.4616 193.99 23.8781L195 26.5062Z" fill="#FAFCFE"/>
<g clip-path="url(#clip1_555_1765)">
<path d="M64.2993 20.7997C64.2993 25.114 60.0351 28.1924 52.2904 28.1924C46.9521 28.1924 42.2362 26.6348 38.6865 23.5886L41.1252 20.8319C44.2184 23.5886 47.8603 24.82 52.4472 24.82C57.5227 24.82 60.3209 23.4921 60.3209 21.1213C60.3209 18.7505 57.4582 18.1716 51.728 17.6846C45.4493 17.1654 39.5255 15.7686 39.5255 11.1327C39.5255 6.49673 44.7624 4.12592 51.3039 4.12592C56.2504 4.12592 60.4454 5.587 63.1791 7.88889L60.7082 10.5492C58.3663 8.50456 55.144 7.5351 51.3684 7.49835C47.7543 7.46619 43.4624 8.34375 43.4624 10.8708C43.4624 13.2692 47.2702 13.6919 52.2489 14.0824C59.3436 14.6338 64.2901 16.0627 64.2901 20.7951L64.2993 20.7997Z" fill="#FAFCFE"/>
<path d="M86.7176 9.74054V27.5124H82.9098V24.0757C81.347 26.6073 78.4197 28.1603 74.7732 28.1603C69.3381 28.1603 66.6367 24.6914 66.6367 19.89V9.74054H70.4123V19.6327C70.4123 23.1338 72.2009 25.0176 75.7505 25.0176C78.8115 25.0176 81.3793 23.5886 82.9098 20.6711V9.74054H86.7176Z" fill="#FAFCFE"/>
<path d="M93.7751 24.333V34H89.9673V9.74055H93.7751V12.92C95.3056 10.6824 98.1684 9.09271 101.976 9.09271C107.771 9.09271 111.606 12.8557 111.606 18.6265C111.606 24.3973 107.766 28.1603 101.976 28.1603C98.1684 28.1603 95.3056 26.5706 93.7751 24.333ZM93.7751 15.9662V21.2868C95.4669 23.9149 98.0393 24.9165 100.999 24.9165C105.424 24.9165 107.895 22.6789 107.895 18.6265C107.895 14.5741 105.424 12.3043 100.999 12.3043C98.0393 12.3043 95.4669 13.3427 93.7751 15.9708V15.9662Z" fill="#FAFCFE"/>
<path d="M125.469 25.2105C128.755 25.2105 130.807 24.3651 132.757 22.6468L134.97 25.013C132.531 27.1862 129.438 28.1924 125.275 28.1924C118.148 28.1924 114.05 24.4938 114.05 18.6587C114.05 12.8235 118.148 9.06055 125.017 9.06055C131.429 9.06055 135.592 12.4008 135.592 18.6265C135.592 19.0492 135.56 19.2743 135.495 19.4719H117.793C118.153 23.3314 120.983 25.2105 125.473 25.2105H125.469ZM117.95 16.7795L131.909 16.7473C131.097 13.5035 128.557 12.0424 125.044 12.0424C121.301 12.0424 118.664 13.6322 117.95 16.7795Z" fill="#FAFCFE"/>
<path d="M138.284 27.5125V9.74058H142.092V13.793C143.526 10.9398 146.845 9.3822 150.519 9.3822V12.6903C146.55 12.6903 143.295 14.3444 142.092 17.6846V27.5125H138.284Z" fill="#FAFCFE"/>
<path d="M152.344 5.20108C152.344 3.96973 153.386 3.09216 154.783 3.09216C156.18 3.09216 157.189 3.96973 157.189 5.20108C157.189 6.36811 156.18 7.31 154.783 7.31C153.386 7.31 152.344 6.36811 152.344 5.20108ZM156.705 27.5124H152.93V9.74054H156.705V27.5124Z" fill="#FAFCFE"/>
<path d="M179.252 22.2929C179.252 25.601 175.998 28.197 169.719 28.197C165.358 28.197 161.55 26.7681 158.982 24.5305L161.034 22.2929C163.118 24.0756 166.013 25.2427 169.82 25.2427C173.107 25.2427 175.647 24.3973 175.647 22.6146C175.647 20.8319 173.338 20.2805 169.138 19.9543C164.288 19.5959 159.669 18.461 159.669 14.6659C159.669 11.197 163.247 9.05591 169.235 9.05591C172.881 9.05591 176.297 10.3516 178.376 11.877L176.39 14.3397C174.665 13.0119 172.291 12.0378 169.037 12.0056C166.63 12.0056 163.279 12.4927 163.279 14.4362C163.279 16.251 166.109 16.5773 169.756 16.8024C175.223 17.1929 179.257 18.6816 179.257 22.2837L179.252 22.2929Z" fill="#FAFCFE"/>
<path d="M195 26.5062C193.534 27.4803 191.552 28.1603 189.5 28.1603C186.02 28.1603 183.254 26.3133 183.254 22.6146V12.7546H179.806V9.74055H183.254V5.6192H187.062V9.74055H194.839V12.7546H187.062V21.9989C187.062 23.9792 188.592 24.9487 190.445 24.9487C191.778 24.9487 192.921 24.4616 193.99 23.8781L195 26.5062Z" fill="#FAFCFE"/>
<path d="M9.87934 8.45405H7.09033C7.09033 6.23027 7.99388 4.04784 9.57508 2.47649C11.1517 0.90054 13.3368 0 15.5726 0V2.77973C14.0744 2.77973 12.6038 3.38622 11.5481 4.44297C10.4878 5.49973 9.87934 6.96081 9.87934 8.45405Z" fill="#1057FF"/>
<path d="M16.559 6.5106L14.5859 4.54411C16.1671 2.96817 18.3523 2.06763 20.5835 2.06763C22.8147 2.06763 25.0044 2.96817 26.581 4.54411L24.6079 6.5106C23.5476 5.45384 22.0817 4.84736 20.5835 4.84736C19.0852 4.84736 17.6193 5.45384 16.559 6.5106Z" fill="#1057FF"/>
<path d="M31.1449 15.5205H28.3559C28.3559 14.0273 27.7473 12.5662 26.6871 11.5094C25.6268 10.4527 24.1608 9.8462 22.6626 9.8462V7.06647C24.8938 7.06647 27.0835 7.96701 28.6601 9.54295C30.2413 11.1189 31.1449 13.2967 31.1449 15.5205Z" fill="#1057FF"/>
<path d="M26.581 26.4924L24.6079 24.5259C25.6682 23.4692 26.2767 22.0081 26.2767 20.5149C26.2767 19.0216 25.6682 17.5605 24.6079 16.5038L26.581 14.5373C28.1622 16.1086 29.0657 18.2911 29.0657 20.5149C29.0657 22.7386 28.1622 24.9211 26.581 26.4924Z" fill="#1057FF"/>
<path d="M15.5723 31.0411V28.2614C17.0705 28.2614 18.5364 27.6549 19.5967 26.5981C20.657 25.5414 21.2655 24.0803 21.2655 22.587H24.0545C24.0545 24.8108 23.151 26.9933 21.5698 28.5646C19.9886 30.1405 17.8035 31.0411 15.5723 31.0411Z" fill="#1057FF"/>
<path d="M10.5566 28.969C8.32539 28.969 6.13568 28.0684 4.55908 26.4925L6.53213 24.526C7.59242 25.5828 9.05837 26.1892 10.5566 26.1892C12.0548 26.1892 13.5208 25.5828 14.5811 24.526L16.5541 26.4925C14.9729 28.0684 12.7878 28.969 10.5566 28.969Z" fill="#1057FF"/>
<path d="M8.48227 23.9746C6.25106 23.9746 4.06135 23.0741 2.48475 21.4981C0.903546 19.9222 0 17.7444 0 15.5206H2.78901C2.78901 17.0138 3.39752 18.4749 4.4578 19.5316C5.51809 20.5884 6.98404 21.1949 8.48227 21.1949V23.9746Z" fill="#1057FF"/>
<path d="M4.55946 16.5038C2.97825 14.9278 2.07471 12.75 2.07471 10.5262C2.07471 8.30243 2.97825 6.12 4.55946 4.54865L6.53251 6.51513C5.47222 7.57189 4.86371 9.03297 4.86371 10.5262C4.86371 12.0195 5.47222 13.4805 6.53251 14.5373L4.55946 16.5038Z" fill="#1057FF"/>
</g>
</g>
<defs>
<clipPath id="clip0_555_1765">
<rect width="195" height="34" fill="white"/>
</clipPath>
<clipPath id="clip1_555_1765">
<rect width="195" height="34" fill="white"/>
</clipPath>
</defs>
</svg>
