<svg width="88" height="88" viewBox="0 0 88 88" fill="none" xmlns="http://www.w3.org/2000/svg">
<path d="M44 0C19.7305 0 0 19.7305 0 44C0 68.2695 19.7305 88 44 88C68.2695 88 88 68.2695 88 44C88 19.7305 68.2695 0 44 0ZM58.1726 46.2232L37.4232 60.0249C35.663 61.2293 33.2549 59.9325 33.2549 57.8016V30.1974C33.2549 28.067 35.6632 26.7702 37.4232 27.9741L58.1726 41.7763C59.7473 42.7953 59.7473 45.2042 58.1726 46.2232Z" fill="#1057FF"/>
<path d="M57.9177 46.2233L37.1683 60.0251C35.4081 61.2295 33 59.9327 33 57.8018V30.1975C33 28.0672 35.4083 26.7703 37.1683 27.9742L57.9177 41.7765C59.4924 42.7955 59.4924 45.2044 57.9177 46.2233Z" fill="#FAFCFE"/>
</svg>
