<svg width="56" height="57" viewBox="0 0 56 57" fill="none" xmlns="http://www.w3.org/2000/svg">
<circle cx="28" cy="28.1429" r="28" fill="#1057FF"/>
<mask id="path-2-outside-1_539_550" maskUnits="userSpaceOnUse" x="14" y="17.1429" width="28" height="22" fill="black">
<rect fill="white" x="14" y="17.1429" width="28" height="22"/>
<path d="M17.659 18.1429C16.2011 18.1429 15 19.5451 15 21.2463V35.0396C15 36.7411 16.2013 38.1429 17.659 38.1429H38.341C39.7989 38.1429 41 36.7408 41 35.0396V21.2463C41 19.5447 39.7987 18.1429 38.341 18.1429H17.659ZM18.1761 20.2121H37.824L28.314 30.126C28.1843 30.2612 27.8156 30.2612 27.6862 30.126L18.1762 20.2121H18.1761ZM16.7726 21.516L26.5042 31.667C27.3648 32.5647 28.635 32.5647 29.4956 31.667L39.2272 21.5154V35.039C39.2272 35.63 38.8472 36.0735 38.3408 36.0735H17.6588C17.1525 36.0735 16.7724 35.63 16.7724 35.039V21.5154L16.7726 21.516Z"/>
</mask>
<path d="M17.659 18.1429C16.2011 18.1429 15 19.5451 15 21.2463V35.0396C15 36.7411 16.2013 38.1429 17.659 38.1429H38.341C39.7989 38.1429 41 36.7408 41 35.0396V21.2463C41 19.5447 39.7987 18.1429 38.341 18.1429H17.659ZM18.1761 20.2121H37.824L28.314 30.126C28.1843 30.2612 27.8156 30.2612 27.6862 30.126L18.1762 20.2121H18.1761ZM16.7726 21.516L26.5042 31.667C27.3648 32.5647 28.635 32.5647 29.4956 31.667L39.2272 21.5154V35.039C39.2272 35.63 38.8472 36.0735 38.3408 36.0735H17.6588C17.1525 36.0735 16.7724 35.63 16.7724 35.039V21.5154L16.7726 21.516Z" fill="#FAFCFE"/>
<path d="M37.824 20.2121L38.0044 20.3851L38.4102 19.9621H37.824V20.2121ZM28.314 30.126L28.1336 29.9529L28.1335 29.9529L28.314 30.126ZM27.6862 30.126L27.8668 29.9531L27.8666 29.9529L27.6862 30.126ZM18.1762 20.2121L18.3566 20.039L18.2828 19.9621H18.1762V20.2121ZM16.7726 21.516L16.5305 21.5783L16.5468 21.6417L16.5921 21.689L16.7726 21.516ZM26.5042 31.667L26.3237 31.84L26.3237 31.84L26.5042 31.667ZM29.4956 31.667L29.6761 31.84L29.6761 31.84L29.4956 31.667ZM39.2272 21.5154H39.4772V20.8933L39.0468 21.3424L39.2272 21.5154ZM16.7724 21.5154L17.0145 21.4531L16.5224 21.5154H16.7724ZM17.659 17.8929C16.0282 17.8929 14.75 19.4446 14.75 21.2463H15.25C15.25 19.6455 16.374 18.3929 17.659 18.3929V17.8929ZM14.75 21.2463V35.0396H15.25V21.2463H14.75ZM14.75 35.0396C14.75 36.8416 16.0284 38.3929 17.659 38.3929V37.8929C16.3743 37.8929 15.25 36.6407 15.25 35.0396H14.75ZM17.659 38.3929H38.341V37.8929H17.659V38.3929ZM38.341 38.3929C39.9718 38.3929 41.25 36.8412 41.25 35.0396H40.75C40.75 36.6404 39.626 37.8929 38.341 37.8929V38.3929ZM41.25 35.0396V21.2463H40.75V35.0396H41.25ZM41.25 21.2463C41.25 19.4443 39.9716 17.8929 38.341 17.8929V18.3929C39.6257 18.3929 40.75 19.6452 40.75 21.2463H41.25ZM38.341 17.8929H17.659V18.3929H38.341V17.8929ZM18.1761 20.4621H37.824V19.9621H18.1761V20.4621ZM37.6436 20.039L28.1336 29.9529L28.4944 30.299L38.0044 20.3851L37.6436 20.039ZM28.1335 29.9529C28.1402 29.946 28.1357 29.9539 28.1057 29.9631C28.0781 29.9716 28.041 29.9774 28 29.9774C27.959 29.9774 27.922 29.9716 27.8944 29.9631C27.8644 29.9539 27.8601 29.9461 27.8668 29.9531L27.5056 30.2989C27.6404 30.4397 27.8497 30.4774 28 30.4774C28.1504 30.4774 28.3595 30.4396 28.4944 30.299L28.1335 29.9529ZM27.8666 29.9529L18.3566 20.039L17.9958 20.3851L27.5058 30.299L27.8666 29.9529ZM18.1762 19.9621H18.1761V20.4621H18.1762V19.9621ZM16.5921 21.689L26.3237 31.84L26.6847 31.494L16.953 21.343L16.5921 21.689ZM26.3237 31.84C27.2828 32.8403 28.7171 32.8403 29.6761 31.84L29.3152 31.494C28.553 32.289 27.4469 32.289 26.6846 31.494L26.3237 31.84ZM29.6761 31.84L39.4077 21.6884L39.0468 21.3424L29.3152 31.494L29.6761 31.84ZM38.9772 21.5154V35.039H39.4772V21.5154H38.9772ZM38.9772 35.039C38.9772 35.5295 38.6743 35.8235 38.3408 35.8235V36.3235C39.0201 36.3235 39.4772 35.7304 39.4772 35.039H38.9772ZM38.3408 35.8235H17.6588V36.3235H38.3408V35.8235ZM17.6588 35.8235C17.3254 35.8235 17.0224 35.5295 17.0224 35.039H16.5224C16.5224 35.7304 16.9795 36.3235 17.6588 36.3235V35.8235ZM17.0224 35.039V21.5154H16.5224V35.039H17.0224ZM16.5303 21.5777L16.5305 21.5783L17.0147 21.4537L17.0145 21.4531L16.5303 21.5777Z" fill="#FAFCFE" mask="url(#path-2-outside-1_539_550)"/>
</svg>
