<svg width="56" height="57" viewBox="0 0 56 57" fill="none" xmlns="http://www.w3.org/2000/svg">
<circle cx="28" cy="28.1429" r="28" fill="#1057FF"/>
<path fill-rule="evenodd" clip-rule="evenodd" d="M23.7183 24.6592C24.6312 23.6985 25.0462 22.6506 24.4652 21.8646C23.3033 20.118 20.8135 15.1402 18.5727 18.0221C17.5768 19.2447 16.4979 20.904 16.4979 20.904C16.4979 20.904 15.9999 21.4279 15.9999 22.4759C16.2489 30.3356 28.8639 40.5532 36.0013 38.9813C36.9142 38.7193 37.3292 38.0207 37.3292 38.0207C37.3292 38.0207 38.5741 36.536 39.487 35.2261C41.6448 32.2569 36.4162 30.9469 34.5074 30.161C33.6775 29.7243 32.7645 30.4229 32.1006 31.5582C30.5237 34.1781 21.7265 26.9297 23.7183 24.6592Z" fill="#FAFCFE"/>
</svg>
