<svg width="57" height="57" viewBox="0 0 57 57" fill="none" xmlns="http://www.w3.org/2000/svg">
<circle cx="28.5" cy="28.1429" r="28" fill="#1057FF"/>
<path d="M16 39.1429C15.3125 39.1429 14.724 38.8895 14.2344 38.3827C13.7448 37.8758 13.5 37.2665 13.5 36.5547H18.5C17.8125 36.5547 17.224 36.3013 16.7344 35.7944C16.2448 35.2876 16 34.6782 16 33.9665V19.7312C16 19.0194 16.2448 18.4101 16.7344 17.9032C17.224 17.3964 17.8125 17.1429 18.5 17.1429H38.5C39.1875 17.1429 39.776 17.3964 40.2656 17.9032C40.7552 18.4101 41 19.0194 41 19.7312V33.9665C41 34.6782 40.7552 35.2876 40.2656 35.7944C39.776 36.3013 39.1875 36.5547 38.5 36.5547H43.5C43.5 37.2665 43.2552 37.8758 42.7656 38.3827C42.276 38.8895 41.6875 39.1429 41 39.1429H16ZM28.5 37.8488C28.8542 37.8488 29.151 37.7248 29.3906 37.4768C29.6302 37.2287 29.75 36.9214 29.75 36.5547C29.75 36.188 29.6302 35.8807 29.3906 35.6327C29.151 35.3846 28.8542 35.2606 28.5 35.2606C28.1458 35.2606 27.849 35.3846 27.6094 35.6327C27.3698 35.8807 27.25 36.188 27.25 36.5547C27.25 36.9214 27.3698 37.2287 27.6094 37.4768C27.849 37.7248 28.1458 37.8488 28.5 37.8488ZM18.5 33.9665H38.5V19.7312H18.5V33.9665Z" fill="#FAFCFE"/>
</svg>
