<svg width="57" height="57" viewBox="0 0 57 57" fill="none" xmlns="http://www.w3.org/2000/svg">
<circle cx="28.5" cy="28.1429" r="28" fill="#1057FF"/>
<path fill-rule="evenodd" clip-rule="evenodd" d="M39.4202 18.2118C36.7885 15.5892 33.2882 14.1443 29.5588 14.1429C21.874 14.1429 15.6197 20.3666 15.617 28.0165C15.6156 30.4621 16.2581 32.8491 17.478 34.9527L15.5 42.1429L22.8907 40.2136C24.9269 41.3194 27.2198 41.9014 29.5528 41.9021H29.5588C37.2423 41.9021 43.4974 35.6778 43.5 28.0278C43.5013 24.3203 42.0527 20.8349 39.4202 18.2124V18.2118ZM29.5588 39.559H29.5541C27.4751 39.5584 25.4356 39.0022 23.6562 37.9517L23.233 37.7016L18.8471 38.8465L20.0176 34.5907L19.7422 34.1543C18.5824 32.3182 17.9694 30.1959 17.9707 28.0172C17.9734 21.6592 23.1715 16.486 29.5635 16.486C32.6586 16.4874 35.5678 17.6882 37.7557 19.8683C39.9437 22.0477 41.1476 24.9457 41.1463 28.0265C41.1436 34.3852 35.9455 39.5584 29.5588 39.5584V39.559ZM35.9147 30.9225C35.5664 30.7488 33.8538 29.9106 33.5343 29.7948C33.2147 29.679 32.9828 29.6212 32.7508 29.9685C32.5189 30.3158 31.8511 31.0968 31.6478 31.3276C31.4446 31.5591 31.2414 31.5878 30.8931 31.4141C30.5449 31.2404 29.4225 30.8745 28.0915 29.6937C27.0561 28.7743 26.3568 27.6393 26.1536 27.292C25.9504 26.9448 26.1322 26.7572 26.306 26.5849C26.4624 26.4292 26.6543 26.1797 26.8287 25.9775C27.0033 25.7752 27.0607 25.6302 27.177 25.3993C27.2934 25.1678 27.2352 24.9656 27.1483 24.7919C27.0614 24.6183 26.3649 22.9119 26.074 22.218C25.7912 21.5421 25.5039 21.6339 25.2906 21.6226C25.0874 21.6126 24.8554 21.6106 24.6228 21.6106C24.3902 21.6106 24.0131 21.6971 23.6936 22.0444C23.3741 22.3916 22.4743 23.2305 22.4743 24.9363C22.4743 26.6421 23.7224 28.2913 23.8968 28.5228C24.0713 28.7544 26.3534 32.2557 29.8476 33.7579C30.6786 34.1151 31.3276 34.3286 31.8336 34.4883C32.668 34.7524 33.4273 34.7152 34.0276 34.626C34.6968 34.5263 36.0886 33.7871 36.3787 32.9775C36.6688 32.1678 36.6688 31.4733 36.5819 31.3289C36.495 31.1846 36.2624 31.0974 35.9141 30.9238L35.9147 30.9225Z" fill="#FAFCFE"/>
</svg>
