<svg width="65" height="64" viewBox="0 0 65 64" fill="none" xmlns="http://www.w3.org/2000/svg">
<circle cx="32.25" cy="32" r="32" fill="#1057FF"/>
<path d="M39.9589 32.4818C39.7697 32.4818 39.5872 32.4536 39.4115 32.397C39.2358 32.3404 39.0804 32.2414 38.9452 32.1C36.4842 29.8935 34.3838 27.7895 32.6441 25.788C30.9044 23.7864 30.0346 21.916 30.0346 20.1767C30.0346 18.7125 30.5327 17.4837 31.529 16.4902C32.5253 15.4967 33.7575 15 35.2257 15C36.0647 15 36.9014 15.2334 37.7359 15.7001C38.5704 16.1669 39.313 16.7963 39.9636 17.5883C40.6142 16.7963 41.3568 16.1669 42.1912 15.7001C43.0257 15.2334 43.8625 15 44.7015 15C46.1697 15 47.4019 15.4967 48.3982 16.4902C49.3945 17.4837 49.8926 18.7125 49.8926 20.1767C49.8926 21.916 49.0227 23.7864 47.283 25.788C45.5433 27.7895 43.4438 29.8935 40.9843 32.1C40.8413 32.2414 40.6819 32.3404 40.5062 32.397C40.3305 32.4536 40.1481 32.4818 39.9589 32.4818ZM39.9636 29.4692C41.8306 27.7719 43.5278 26.0888 45.0554 24.4198C46.5829 22.7509 47.3467 21.3365 47.3467 20.1767C47.3467 19.4009 47.1012 18.7685 46.6102 18.2795C46.1193 17.7904 45.4844 17.5459 44.7057 17.5459C44.2316 17.5459 43.7612 17.6591 43.2945 17.8854C42.8277 18.1117 42.3539 18.536 41.873 19.1583L39.9636 21.492L38.0542 19.1583C37.5733 18.536 37.0994 18.1117 36.6327 17.8854C36.166 17.6591 35.6956 17.5459 35.2215 17.5459C34.4427 17.5459 33.8079 17.7904 33.3169 18.2795C32.826 18.7685 32.5805 19.4009 32.5805 20.1767C32.5805 21.3365 33.3442 22.7509 34.8718 24.4198C36.3993 26.0888 38.0966 27.7719 39.9636 29.4692ZM36.3993 47.1632L46.9224 43.8535C46.7527 43.6272 46.5378 43.3373 46.2777 42.9837C46.0176 42.6301 45.7233 42.4533 45.3948 42.4533H35.2961C35.2395 42.4533 34.9849 42.4321 34.5323 42.3896C34.0797 42.3472 33.6413 42.227 33.217 42.029L30.4165 41.1803C30.077 41.0672 29.8224 40.8409 29.6527 40.5014C29.483 40.162 29.4547 39.8225 29.5678 39.4831C29.681 39.1436 29.8971 38.889 30.2161 38.7193C30.5351 38.5496 30.8707 38.5354 31.2227 38.6769L35.1688 39.9923C35.1122 39.9923 35.3173 39.9781 35.7841 39.9498C36.2508 39.9215 36.9203 39.9074 37.7925 39.9074H38.1815C38.1815 39.5561 38.1178 39.2207 37.9905 38.9013C37.8632 38.582 37.644 38.3516 37.3328 38.2101L26.9371 34.264H23.3728V43.3444L36.3993 47.1632ZM35.8477 49.5818L23.3728 46.0175C23.3162 46.7813 22.998 47.3754 22.4181 47.7997C21.8382 48.224 21.3078 48.4361 20.8269 48.4361H16.7959C16.0958 48.4361 15.4964 48.1869 14.9979 47.6883C14.4993 47.1897 14.25 46.5904 14.25 45.8903V34.264C14.25 33.5639 14.4993 32.9645 14.9979 32.4659C15.4964 31.9674 16.0958 31.7181 16.7959 31.7181H26.8946C27.0455 31.7181 27.1964 31.7322 27.3473 31.7605C27.4981 31.7888 27.6443 31.8312 27.7857 31.8878L38.1815 35.7915C38.9452 36.0744 39.5888 36.5341 40.1121 37.1705C40.6354 37.807 40.8971 38.7193 40.8971 39.9074H45.7343C46.9224 39.9074 47.9124 40.3317 48.7045 41.1803C49.4966 42.029 49.8926 43.1746 49.8926 44.6173C49.8926 44.9285 49.8219 45.2043 49.6804 45.4447C49.539 45.6852 49.3127 45.862 49.0015 45.9751L37.2904 49.5818C37.0593 49.6384 36.8176 49.6667 36.5654 49.6667C36.3132 49.6667 36.074 49.6384 35.8477 49.5818ZM16.7959 45.8903H20.7845V34.264H16.7959V45.8903Z" fill="white"/>
</svg>
