<svg width="65" height="64" viewBox="0 0 65 64" fill="none" xmlns="http://www.w3.org/2000/svg">
<circle cx="32.25" cy="32" r="32" fill="#1057FF"/>
<path d="M13.8579 33.5232C13.2569 32.4349 12.7969 31.3289 12.4782 30.2054C12.1594 29.0818 12 27.9576 12 26.8329C12 23.7911 13.045 21.2252 15.1351 19.1351C17.2252 17.045 19.7911 16 22.8329 16C24.6634 16 26.4137 16.4292 28.0837 17.2876C29.7537 18.1459 31.2 19.3617 32.4227 20.935C33.6453 19.3617 35.0917 18.1459 36.7617 17.2876C38.4317 16.4292 40.1819 16 42.0125 16C45.0542 16 47.6202 17.045 49.7102 19.1351C51.8003 21.2252 52.8453 23.7911 52.8453 26.8329C52.8453 27.9348 52.6859 29.0419 52.3672 30.1541C52.0484 31.2663 51.5885 32.3837 50.9874 33.5061C50.7321 33.1027 50.4304 32.7417 50.0822 32.4232C49.734 32.1047 49.3437 31.8464 48.9111 31.6483C49.3254 30.8082 49.6408 29.9914 49.8571 29.1979C50.0734 28.4044 50.1815 27.6161 50.1815 26.8329C50.1815 24.5356 49.3944 22.5998 47.82 21.0254C46.2456 19.451 44.3097 18.6638 42.0125 18.6638C39.8996 18.6638 38.1482 19.2683 36.7582 20.4772C35.3683 21.6862 33.9231 23.2128 32.4227 25.057C30.9223 23.1945 29.4771 21.6634 28.0871 20.4636C26.6971 19.2637 24.9457 18.6638 22.8329 18.6638C20.5356 18.6638 18.5998 19.451 17.0254 21.0254C15.451 22.5998 14.6638 24.5356 14.6638 26.8329C14.6638 27.6388 14.772 28.4414 14.9883 29.2406C15.2046 30.0397 15.5142 30.848 15.9172 31.6654C15.4847 31.8748 15.0976 32.1361 14.7561 32.4491C14.4146 32.7622 14.1152 33.1202 13.8579 33.5232ZM12.0001 46.4632V45.8348C12.0001 44.635 12.6191 43.6599 13.8571 42.9097C15.0952 42.1595 16.7019 41.7844 18.6772 41.7844C19.0388 41.7844 19.3859 41.7947 19.7183 41.8152C20.0507 41.8357 20.3683 41.8755 20.6711 41.9347C20.3365 42.4584 20.0826 43.0157 19.9096 43.6066C19.7365 44.1975 19.65 44.827 19.65 45.495V48H13.5369C13.1014 48 12.7364 47.8527 12.4419 47.5582C12.1474 47.2636 12.0001 46.8986 12.0001 46.4632ZM22.6553 46.3949V45.5582C22.6553 43.862 23.5579 42.5016 25.363 41.4771C27.1681 40.4525 29.5229 39.9403 32.4273 39.9403C35.359 39.9403 37.719 40.4525 39.5074 41.4771C41.2958 42.5016 42.19 43.862 42.19 45.5582V46.3949C42.19 46.8497 42.0361 47.2309 41.7285 47.5385C41.4208 47.8462 41.0396 48 40.5848 48H24.2676C23.8052 48 23.421 47.8462 23.1147 47.5385C22.8085 47.2309 22.6554 46.8497 22.6554 46.3949H22.6553ZM45.1953 48V45.4923C45.1953 44.8236 45.1162 44.1944 44.958 43.6047C44.7997 43.015 44.5624 42.4584 44.2459 41.9347C44.5487 41.8755 44.8628 41.8357 45.1882 41.8152C45.5137 41.7947 45.8462 41.7844 46.1857 41.7844C48.1836 41.7844 49.793 42.1595 51.0139 42.9097C52.2348 43.6599 52.8453 44.635 52.8453 45.8348V46.4632C52.8453 46.8986 52.698 47.2636 52.4035 47.5582C52.1089 47.8527 51.7439 48 51.3085 48H45.1953ZM32.4206 42.6041C30.5755 42.6041 28.9899 42.8488 27.6636 43.3383C26.3374 43.8278 25.6015 44.4312 25.4558 45.1484V45.3362H39.417V45.1484C39.253 44.4312 38.5154 43.8278 37.2039 43.3383C35.8925 42.8488 34.2981 42.6041 32.4206 42.6041ZM18.6767 40.0598C17.8408 40.0598 17.1253 39.7622 16.5301 39.167C15.9348 38.5717 15.6372 37.8562 15.6372 37.0204C15.6372 36.1734 15.9348 35.4579 16.5301 34.8739C17.1253 34.2899 17.8408 33.9979 18.6767 33.9979C19.5236 33.9979 20.2419 34.2899 20.8316 34.8739C21.4213 35.4579 21.7161 36.1734 21.7161 37.0204C21.7161 37.8562 21.4213 38.5717 20.8316 39.167C20.2419 39.7622 19.5236 40.0598 18.6767 40.0598ZM46.1858 40.0598C45.357 40.0598 44.6433 39.7622 44.0445 39.167C43.4457 38.5717 43.1463 37.8562 43.1463 37.0204C43.1463 36.1734 43.4457 35.4579 44.0445 34.8739C44.6433 34.2899 45.3582 33.9979 46.1891 33.9979C47.0452 33.9979 47.7653 34.2899 48.3492 34.8739C48.9332 35.4579 49.2252 36.1734 49.2252 37.0204C49.2252 37.8562 48.934 38.5717 48.3514 39.167C47.7688 39.7622 47.0469 40.0598 46.1858 40.0598ZM32.4287 38.6084C31.1497 38.6084 30.0606 38.1601 29.1612 37.2637C28.2619 36.3672 27.8123 35.2786 27.8123 33.9979C27.8123 32.6917 28.2605 31.5967 29.157 30.713C30.0534 29.8294 31.142 29.3876 32.4227 29.3876C33.729 29.3876 34.8239 29.8288 35.7076 30.7113C36.5913 31.5938 37.0331 32.6874 37.0331 33.9919C37.0331 35.2709 36.5919 36.3601 35.7094 37.2594C34.8268 38.1587 33.7333 38.6084 32.4287 38.6084ZM32.4227 32.0513C31.8854 32.0513 31.4266 32.2379 31.0464 32.611C30.6662 32.9841 30.476 33.4464 30.476 33.9979C30.476 34.5353 30.6662 34.994 31.0464 35.3743C31.4266 35.7545 31.8882 35.9446 32.4312 35.9446C32.9742 35.9446 33.433 35.7545 33.8076 35.3743C34.1821 34.994 34.3693 34.5324 34.3693 33.9894C34.3693 33.4464 34.1828 32.9876 33.8097 32.6131C33.4366 32.2386 32.9742 32.0513 32.4227 32.0513Z" fill="white"/>
</svg>
