<svg width="65" height="64" viewBox="0 0 65 64" fill="none" xmlns="http://www.w3.org/2000/svg">
<circle cx="32.75" cy="32" r="32" fill="#1057FF"/>
<path d="M32.4387 50L29.9101 47.733C26.9746 45.0881 24.5477 42.8065 22.6294 40.8883C20.7112 38.97 19.1853 37.248 18.0518 35.7221C16.9183 34.1962 16.1262 32.7938 15.6757 31.515C15.2252 30.2361 15 28.9282 15 27.5913C15 24.8592 15.9155 22.5777 17.7466 20.7466C19.5777 18.9155 21.8592 18 24.5913 18C26.1026 18 27.5413 18.3197 28.9074 18.9591C30.2734 19.5985 31.4505 20.4995 32.4387 21.6621C33.4269 20.4995 34.604 19.5985 35.97 18.9591C37.3361 18.3197 38.7747 18 40.2861 18C43.0182 18 45.2997 18.9155 47.1308 20.7466C48.9619 22.5777 49.8774 24.8592 49.8774 27.5913C49.8774 28.9282 49.6521 30.2361 49.2016 31.515C48.7511 32.7938 47.9591 34.1962 46.8256 35.7221C45.6921 37.248 44.1662 38.97 42.248 40.8883C40.3297 42.8065 37.9028 45.0881 34.9673 47.733L32.4387 50ZM32.4387 45.2916C35.2289 42.792 37.525 40.6485 39.327 38.861C41.129 37.0736 42.5531 35.5186 43.5995 34.1962C44.6458 32.8738 45.3724 31.6966 45.7793 30.6649C46.1862 29.6331 46.3896 28.6085 46.3896 27.5913C46.3896 25.8474 45.8084 24.3942 44.6458 23.2316C43.4832 22.069 42.03 21.4877 40.2861 21.4877C38.9201 21.4877 37.6558 21.8728 36.4932 22.6431C35.3306 23.4133 34.5313 24.3942 34.0954 25.5858H30.782C30.346 24.3942 29.5468 23.4133 28.3842 22.6431C27.2216 21.8728 25.9573 21.4877 24.5913 21.4877C22.8474 21.4877 21.3942 22.069 20.2316 23.2316C19.069 24.3942 18.4877 25.8474 18.4877 27.5913C18.4877 28.6085 18.6912 29.6331 19.0981 30.6649C19.505 31.6966 20.2316 32.8738 21.2779 34.1962C22.3243 35.5186 23.7484 37.0736 25.5504 38.861C27.3524 40.6485 29.6485 42.792 32.4387 45.2916Z" fill="white"/>
</svg>
