<svg width="65" height="64" viewBox="0 0 65 64" fill="none" xmlns="http://www.w3.org/2000/svg">
<circle cx="32.25" cy="32" r="32" fill="#1057FF"/>
<path d="M31.8776 52.0002C31.4396 52.0002 31.0185 51.9159 30.6142 51.7475C30.21 51.579 29.8562 51.3095 29.553 50.9389L12.9272 30.9778C12.5566 30.5062 12.3376 29.9755 12.2702 29.386C12.2028 28.7964 12.3039 28.2321 12.5734 27.6931L16.8689 19.0011C17.1384 18.4958 17.5174 18.0915 18.0059 17.7883C18.4944 17.4851 19.025 17.3335 19.5977 17.3335H44.1575C44.7302 17.3335 45.2608 17.4851 45.7493 17.7883C46.2378 18.0915 46.6168 18.4958 46.8863 19.0011L51.1818 27.6931C51.4513 28.2321 51.5524 28.7964 51.485 29.386C51.4176 29.9755 51.1986 30.5062 50.828 30.9778L34.2022 50.9389C33.899 51.3095 33.5452 51.579 33.141 51.7475C32.7367 51.9159 32.3156 52.0002 31.8776 52.0002ZM25.7124 27.9457H38.0428L34.2527 20.3656H29.5025L25.7124 27.9457ZM30.3616 47.1994V30.9778H16.8689L30.3616 47.1994ZM33.3936 47.1994L46.8863 30.9778H33.3936V47.1994ZM41.4286 27.9457H47.796L43.9553 20.3656H37.6385L41.4286 27.9457ZM15.9592 27.9457H22.3266L26.1167 20.3656H19.7999L15.9592 27.9457Z" fill="white"/>
</svg>
