<svg width="65" height="64" viewBox="0 0 65 64" fill="none" xmlns="http://www.w3.org/2000/svg">
<circle cx="32.75" cy="32" r="32" fill="#1057FF"/>
<mask id="path-2-outside-1_1748_1966" maskUnits="userSpaceOnUse" x="14.4167" y="15" width="34" height="34" fill="black">
<rect fill="white" x="14.4167" y="15" width="34" height="34"/>
<path d="M24.6022 16.0836C23.0956 16.4024 21.7327 17.2463 20.845 18.4216C20.5137 18.8592 20.0323 19.7595 19.9135 20.1596C19.8448 20.3846 19.801 20.4284 19.5759 20.4971C19.1758 20.6159 18.2756 21.0973 17.838 21.4286C16.7877 22.2226 15.9563 23.4729 15.5999 24.7795C15.3999 25.4921 15.3561 26.8925 15.5062 27.6239C15.8625 29.3743 16.9503 30.9497 18.3694 31.7749C18.5319 31.8687 18.6632 31.975 18.6632 32C18.6632 32.025 18.5319 32.1313 18.3694 32.2251C16.9503 33.0503 15.8625 34.6257 15.5062 36.3761C15.3561 37.1075 15.3999 38.5079 15.5999 39.2205C15.9563 40.5271 16.7877 41.7774 17.838 42.5714C18.2756 42.9027 19.1758 43.3841 19.5759 43.5029C19.801 43.5716 19.8448 43.6154 19.9135 43.8404C20.0323 44.2405 20.5137 45.1408 20.845 45.5784C21.6452 46.6349 22.8893 47.4601 24.2271 47.8289C24.696 47.954 24.896 47.9727 25.8837 47.9665C26.9278 47.9665 27.0528 47.954 27.5717 47.7914C28.6469 47.4663 29.4721 46.9912 30.2098 46.266C30.9788 45.5159 31.4664 44.7532 31.7977 43.7842C32.0103 43.1528 32.0853 42.7277 32.1416 41.7649L32.1853 41.0648H33.5169H34.8485L34.8672 42.9277C34.886 44.9657 34.8922 44.9782 35.2673 45.1595C35.4361 45.2408 35.88 45.2533 37.9993 45.2533H40.5311L40.5686 45.4533C40.5874 45.5659 40.6874 45.8284 40.7874 46.0347C41.2438 47.0037 42.1253 47.7101 43.1755 47.9415C43.6819 48.054 44.6697 47.9977 45.1385 47.8289C46.1888 47.4476 47.0453 46.5099 47.3266 45.4346C47.4454 44.9907 47.4454 44.0592 47.3266 43.5966C47.039 42.5026 46.2263 41.6399 45.0573 41.2023C44.3383 40.9335 43.2318 40.9897 42.4816 41.3398C41.5814 41.7587 40.9437 42.4901 40.6062 43.4716L40.4999 43.7842L38.3994 43.8029L36.2926 43.8154V38.2828V32.7502H38.4119H40.5311L40.5999 33.0378C40.7499 33.6317 41.1063 34.163 41.6752 34.6569C42.2941 35.1883 42.863 35.4133 43.7132 35.4821C44.7509 35.5571 45.6449 35.2195 46.3951 34.4756C47.114 33.7567 47.4203 33.019 47.4203 32C47.4203 30.981 47.114 30.2433 46.3951 29.5244C45.6449 28.7805 44.7509 28.4429 43.7132 28.5179C42.863 28.5867 42.2941 28.8117 41.6752 29.3431C41.1063 29.837 40.7499 30.3683 40.5999 30.9622L40.5311 31.2498H38.4119H36.2926V25.7172V20.1846L38.3994 20.1971L40.5061 20.2158L40.5811 20.4659C40.7812 21.1598 41.3251 21.9225 41.9127 22.3288C42.5754 22.7852 43.1693 22.9603 44.0445 22.9603C44.7134 22.954 45.1885 22.8102 45.8325 22.4289C46.5076 22.0225 47.1203 21.1911 47.3266 20.4034C47.4454 19.9408 47.4454 19.0093 47.3266 18.5654C47.0453 17.4902 46.1888 16.5524 45.1385 16.1711C44.6697 16.0023 43.6819 15.946 43.1755 16.0585C42.1253 16.2899 41.2438 16.9963 40.7874 17.9653C40.6874 18.1716 40.5874 18.4341 40.5686 18.5404L40.5311 18.7467H37.9993C35.88 18.7467 35.4361 18.7592 35.2673 18.8405C34.8922 19.0218 34.886 19.0343 34.8672 21.0723L34.8485 22.9353H33.5169H32.1853L32.1416 22.2288C32.0853 21.2723 32.0103 20.8472 31.7977 20.2158C31.1288 18.2653 29.6034 16.815 27.5717 16.2086C27.084 16.0648 26.8777 16.0398 26.0088 16.021C25.3336 16.0085 24.8773 16.0273 24.6022 16.0836ZM27.2591 17.6464C28.078 17.909 28.6282 18.2528 29.2721 18.903C29.7722 19.4031 29.8785 19.5594 30.1536 20.1283C30.7037 21.2723 30.6662 20.3409 30.6662 32C30.6662 43.6591 30.7037 42.7277 30.1536 43.8717C29.8785 44.4406 29.7722 44.5969 29.2721 45.097C28.6282 45.7409 28.0843 46.0847 27.2591 46.3598C26.8152 46.5099 26.6652 46.5286 25.8837 46.5286C25.2273 46.5286 24.9085 46.5036 24.6022 46.4223C23.0205 45.9847 21.789 44.8032 21.2514 43.2215C21.0075 42.5026 20.97 41.3773 21.1576 40.6271C21.6827 38.5141 23.4081 37.1013 25.6837 36.9075C26.1026 36.87 26.1901 36.845 26.3464 36.6887C26.5589 36.4699 26.6152 36.2386 26.5214 35.9447C26.3964 35.5821 26.1713 35.4696 25.5837 35.4821C22.9643 35.5259 20.5699 37.3888 19.826 39.952C19.6947 40.3958 19.5384 41.4086 19.5384 41.7837C19.5384 41.9775 18.9008 41.5524 18.2819 40.9397C17.7692 40.4271 17.6442 40.2646 17.3941 39.7519C16.9628 38.883 16.8815 38.5079 16.8878 37.5014C16.8878 36.7637 16.9128 36.5949 17.0566 36.1573C17.3316 35.3321 17.6755 34.7882 18.3131 34.1505C18.7945 33.6754 18.982 33.5316 19.4759 33.2878C20.4949 32.7877 20.4261 32.7939 23.4269 32.7564C26.0088 32.7189 26.0963 32.7127 26.2713 32.5876C26.3651 32.5189 26.4839 32.3563 26.5214 32.2313C26.6214 31.9312 26.5152 31.5936 26.2713 31.4124C26.0963 31.2873 26.0088 31.2811 23.4269 31.2436C20.4261 31.2061 20.4949 31.2123 19.4759 30.7122C18.982 30.4684 18.7945 30.3246 18.3131 29.8495C17.6755 29.2118 17.3316 28.6679 17.0566 27.8427C16.9128 27.4051 16.8878 27.2363 16.8878 26.4986C16.8815 25.4921 16.9628 25.117 17.3941 24.2481C17.6442 23.7354 17.7692 23.5729 18.2819 23.0603C18.9008 22.4476 19.5384 22.0225 19.5384 22.2163C19.5384 22.5914 19.6947 23.6042 19.826 24.048C20.5699 26.6112 22.9643 28.4741 25.5837 28.5179C26.1713 28.5304 26.3964 28.4179 26.5214 28.0553C26.6152 27.7614 26.5589 27.5301 26.3464 27.3113C26.1901 27.155 26.1026 27.13 25.6837 27.0925C23.7832 26.9362 22.2891 25.9485 21.5014 24.3419C20.92 23.1478 20.8763 21.6287 21.4014 20.3846C22.0078 18.9468 23.2894 17.8715 24.821 17.5339C25.4962 17.3839 26.6152 17.4339 27.2591 17.6464ZM44.6509 17.5652C45.151 17.7527 45.6637 18.2653 45.8575 18.778C46.2075 19.7345 45.7449 20.8597 44.8072 21.3224C44.3758 21.5349 43.6944 21.5537 43.2005 21.3661C42.2191 20.9973 41.6627 19.8032 42.0128 18.8155C42.3878 17.7402 43.5881 17.1776 44.6509 17.5652ZM34.8547 27.8115V31.2498H33.5106H32.1666V27.8115V24.3731H33.5106H34.8547V27.8115ZM44.8385 30.1933C45.7324 30.6247 46.2013 31.6937 45.895 32.6064C45.5824 33.5504 44.5384 34.1943 43.6132 34.0067C42.9192 33.8692 42.4004 33.4691 42.1003 32.844C41.7564 32.125 41.894 31.2061 42.4379 30.6309C43.0943 29.9432 43.9945 29.7807 44.8385 30.1933ZM34.8547 36.1885V39.6269H33.5106H32.1666V36.1885V32.7502H33.5106H34.8547V36.1885ZM44.8072 42.6776C45.7449 43.1403 46.2075 44.2655 45.8575 45.222C45.6637 45.7347 45.151 46.2473 44.6384 46.4411C43.6819 46.7912 42.5566 46.3286 42.094 45.3908C41.8815 44.9595 41.8627 44.278 42.0503 43.7842C42.2316 43.3028 42.7004 42.8214 43.1693 42.6401C43.6382 42.4526 44.3883 42.4713 44.8072 42.6776Z"/>
</mask>
<path d="M24.6022 16.0836C23.0956 16.4024 21.7327 17.2463 20.845 18.4216C20.5137 18.8592 20.0323 19.7595 19.9135 20.1596C19.8448 20.3846 19.801 20.4284 19.5759 20.4971C19.1758 20.6159 18.2756 21.0973 17.838 21.4286C16.7877 22.2226 15.9563 23.4729 15.5999 24.7795C15.3999 25.4921 15.3561 26.8925 15.5062 27.6239C15.8625 29.3743 16.9503 30.9497 18.3694 31.7749C18.5319 31.8687 18.6632 31.975 18.6632 32C18.6632 32.025 18.5319 32.1313 18.3694 32.2251C16.9503 33.0503 15.8625 34.6257 15.5062 36.3761C15.3561 37.1075 15.3999 38.5079 15.5999 39.2205C15.9563 40.5271 16.7877 41.7774 17.838 42.5714C18.2756 42.9027 19.1758 43.3841 19.5759 43.5029C19.801 43.5716 19.8448 43.6154 19.9135 43.8404C20.0323 44.2405 20.5137 45.1408 20.845 45.5784C21.6452 46.6349 22.8893 47.4601 24.2271 47.8289C24.696 47.954 24.896 47.9727 25.8837 47.9665C26.9278 47.9665 27.0528 47.954 27.5717 47.7914C28.6469 47.4663 29.4721 46.9912 30.2098 46.266C30.9788 45.5159 31.4664 44.7532 31.7977 43.7842C32.0103 43.1528 32.0853 42.7277 32.1416 41.7649L32.1853 41.0648H33.5169H34.8485L34.8672 42.9277C34.886 44.9657 34.8922 44.9782 35.2673 45.1595C35.4361 45.2408 35.88 45.2533 37.9993 45.2533H40.5311L40.5686 45.4533C40.5874 45.5659 40.6874 45.8284 40.7874 46.0347C41.2438 47.0037 42.1253 47.7101 43.1755 47.9415C43.6819 48.054 44.6697 47.9977 45.1385 47.8289C46.1888 47.4476 47.0453 46.5099 47.3266 45.4346C47.4454 44.9907 47.4454 44.0592 47.3266 43.5966C47.039 42.5026 46.2263 41.6399 45.0573 41.2023C44.3383 40.9335 43.2318 40.9897 42.4816 41.3398C41.5814 41.7587 40.9437 42.4901 40.6062 43.4716L40.4999 43.7842L38.3994 43.8029L36.2926 43.8154V38.2828V32.7502H38.4119H40.5311L40.5999 33.0378C40.7499 33.6317 41.1063 34.163 41.6752 34.6569C42.2941 35.1883 42.863 35.4133 43.7132 35.4821C44.7509 35.5571 45.6449 35.2195 46.3951 34.4756C47.114 33.7567 47.4203 33.019 47.4203 32C47.4203 30.981 47.114 30.2433 46.3951 29.5244C45.6449 28.7805 44.7509 28.4429 43.7132 28.5179C42.863 28.5867 42.2941 28.8117 41.6752 29.3431C41.1063 29.837 40.7499 30.3683 40.5999 30.9622L40.5311 31.2498H38.4119H36.2926V25.7172V20.1846L38.3994 20.1971L40.5061 20.2158L40.5811 20.4659C40.7812 21.1598 41.3251 21.9225 41.9127 22.3288C42.5754 22.7852 43.1693 22.9603 44.0445 22.9603C44.7134 22.954 45.1885 22.8102 45.8325 22.4289C46.5076 22.0225 47.1203 21.1911 47.3266 20.4034C47.4454 19.9408 47.4454 19.0093 47.3266 18.5654C47.0453 17.4902 46.1888 16.5524 45.1385 16.1711C44.6697 16.0023 43.6819 15.946 43.1755 16.0585C42.1253 16.2899 41.2438 16.9963 40.7874 17.9653C40.6874 18.1716 40.5874 18.4341 40.5686 18.5404L40.5311 18.7467H37.9993C35.88 18.7467 35.4361 18.7592 35.2673 18.8405C34.8922 19.0218 34.886 19.0343 34.8672 21.0723L34.8485 22.9353H33.5169H32.1853L32.1416 22.2288C32.0853 21.2723 32.0103 20.8472 31.7977 20.2158C31.1288 18.2653 29.6034 16.815 27.5717 16.2086C27.084 16.0648 26.8777 16.0398 26.0088 16.021C25.3336 16.0085 24.8773 16.0273 24.6022 16.0836ZM27.2591 17.6464C28.078 17.909 28.6282 18.2528 29.2721 18.903C29.7722 19.4031 29.8785 19.5594 30.1536 20.1283C30.7037 21.2723 30.6662 20.3409 30.6662 32C30.6662 43.6591 30.7037 42.7277 30.1536 43.8717C29.8785 44.4406 29.7722 44.5969 29.2721 45.097C28.6282 45.7409 28.0843 46.0847 27.2591 46.3598C26.8152 46.5099 26.6652 46.5286 25.8837 46.5286C25.2273 46.5286 24.9085 46.5036 24.6022 46.4223C23.0205 45.9847 21.789 44.8032 21.2514 43.2215C21.0075 42.5026 20.97 41.3773 21.1576 40.6271C21.6827 38.5141 23.4081 37.1013 25.6837 36.9075C26.1026 36.87 26.1901 36.845 26.3464 36.6887C26.5589 36.4699 26.6152 36.2386 26.5214 35.9447C26.3964 35.5821 26.1713 35.4696 25.5837 35.4821C22.9643 35.5259 20.5699 37.3888 19.826 39.952C19.6947 40.3958 19.5384 41.4086 19.5384 41.7837C19.5384 41.9775 18.9008 41.5524 18.2819 40.9397C17.7692 40.4271 17.6442 40.2646 17.3941 39.7519C16.9628 38.883 16.8815 38.5079 16.8878 37.5014C16.8878 36.7637 16.9128 36.5949 17.0566 36.1573C17.3316 35.3321 17.6755 34.7882 18.3131 34.1505C18.7945 33.6754 18.982 33.5316 19.4759 33.2878C20.4949 32.7877 20.4261 32.7939 23.4269 32.7564C26.0088 32.7189 26.0963 32.7127 26.2713 32.5876C26.3651 32.5189 26.4839 32.3563 26.5214 32.2313C26.6214 31.9312 26.5152 31.5936 26.2713 31.4124C26.0963 31.2873 26.0088 31.2811 23.4269 31.2436C20.4261 31.2061 20.4949 31.2123 19.4759 30.7122C18.982 30.4684 18.7945 30.3246 18.3131 29.8495C17.6755 29.2118 17.3316 28.6679 17.0566 27.8427C16.9128 27.4051 16.8878 27.2363 16.8878 26.4986C16.8815 25.4921 16.9628 25.117 17.3941 24.2481C17.6442 23.7354 17.7692 23.5729 18.2819 23.0603C18.9008 22.4476 19.5384 22.0225 19.5384 22.2163C19.5384 22.5914 19.6947 23.6042 19.826 24.048C20.5699 26.6112 22.9643 28.4741 25.5837 28.5179C26.1713 28.5304 26.3964 28.4179 26.5214 28.0553C26.6152 27.7614 26.5589 27.5301 26.3464 27.3113C26.1901 27.155 26.1026 27.13 25.6837 27.0925C23.7832 26.9362 22.2891 25.9485 21.5014 24.3419C20.92 23.1478 20.8763 21.6287 21.4014 20.3846C22.0078 18.9468 23.2894 17.8715 24.821 17.5339C25.4962 17.3839 26.6152 17.4339 27.2591 17.6464ZM44.6509 17.5652C45.151 17.7527 45.6637 18.2653 45.8575 18.778C46.2075 19.7345 45.7449 20.8597 44.8072 21.3224C44.3758 21.5349 43.6944 21.5537 43.2005 21.3661C42.2191 20.9973 41.6627 19.8032 42.0128 18.8155C42.3878 17.7402 43.5881 17.1776 44.6509 17.5652ZM34.8547 27.8115V31.2498H33.5106H32.1666V27.8115V24.3731H33.5106H34.8547V27.8115ZM44.8385 30.1933C45.7324 30.6247 46.2013 31.6937 45.895 32.6064C45.5824 33.5504 44.5384 34.1943 43.6132 34.0067C42.9192 33.8692 42.4004 33.4691 42.1003 32.844C41.7564 32.125 41.894 31.2061 42.4379 30.6309C43.0943 29.9432 43.9945 29.7807 44.8385 30.1933ZM34.8547 36.1885V39.6269H33.5106H32.1666V36.1885V32.7502H33.5106H34.8547V36.1885ZM44.8072 42.6776C45.7449 43.1403 46.2075 44.2655 45.8575 45.222C45.6637 45.7347 45.151 46.2473 44.6384 46.4411C43.6819 46.7912 42.5566 46.3286 42.094 45.3908C41.8815 44.9595 41.8627 44.278 42.0503 43.7842C42.2316 43.3028 42.7004 42.8214 43.1693 42.6401C43.6382 42.4526 44.3883 42.4713 44.8072 42.6776Z" fill="white"/>
<path d="M24.6022 16.0836C23.0956 16.4024 21.7327 17.2463 20.845 18.4216C20.5137 18.8592 20.0323 19.7595 19.9135 20.1596C19.8448 20.3846 19.801 20.4284 19.5759 20.4971C19.1758 20.6159 18.2756 21.0973 17.838 21.4286C16.7877 22.2226 15.9563 23.4729 15.5999 24.7795C15.3999 25.4921 15.3561 26.8925 15.5062 27.6239C15.8625 29.3743 16.9503 30.9497 18.3694 31.7749C18.5319 31.8687 18.6632 31.975 18.6632 32C18.6632 32.025 18.5319 32.1313 18.3694 32.2251C16.9503 33.0503 15.8625 34.6257 15.5062 36.3761C15.3561 37.1075 15.3999 38.5079 15.5999 39.2205C15.9563 40.5271 16.7877 41.7774 17.838 42.5714C18.2756 42.9027 19.1758 43.3841 19.5759 43.5029C19.801 43.5716 19.8448 43.6154 19.9135 43.8404C20.0323 44.2405 20.5137 45.1408 20.845 45.5784C21.6452 46.6349 22.8893 47.4601 24.2271 47.8289C24.696 47.954 24.896 47.9727 25.8837 47.9665C26.9278 47.9665 27.0528 47.954 27.5717 47.7914C28.6469 47.4663 29.4721 46.9912 30.2098 46.266C30.9788 45.5159 31.4664 44.7532 31.7977 43.7842C32.0103 43.1528 32.0853 42.7277 32.1416 41.7649L32.1853 41.0648H33.5169H34.8485L34.8672 42.9277C34.886 44.9657 34.8922 44.9782 35.2673 45.1595C35.4361 45.2408 35.88 45.2533 37.9993 45.2533H40.5311L40.5686 45.4533C40.5874 45.5659 40.6874 45.8284 40.7874 46.0347C41.2438 47.0037 42.1253 47.7101 43.1755 47.9415C43.6819 48.054 44.6697 47.9977 45.1385 47.8289C46.1888 47.4476 47.0453 46.5099 47.3266 45.4346C47.4454 44.9907 47.4454 44.0592 47.3266 43.5966C47.039 42.5026 46.2263 41.6399 45.0573 41.2023C44.3383 40.9335 43.2318 40.9897 42.4816 41.3398C41.5814 41.7587 40.9437 42.4901 40.6062 43.4716L40.4999 43.7842L38.3994 43.8029L36.2926 43.8154V38.2828V32.7502H38.4119H40.5311L40.5999 33.0378C40.7499 33.6317 41.1063 34.163 41.6752 34.6569C42.2941 35.1883 42.863 35.4133 43.7132 35.4821C44.7509 35.5571 45.6449 35.2195 46.3951 34.4756C47.114 33.7567 47.4203 33.019 47.4203 32C47.4203 30.981 47.114 30.2433 46.3951 29.5244C45.6449 28.7805 44.7509 28.4429 43.7132 28.5179C42.863 28.5867 42.2941 28.8117 41.6752 29.3431C41.1063 29.837 40.7499 30.3683 40.5999 30.9622L40.5311 31.2498H38.4119H36.2926V25.7172V20.1846L38.3994 20.1971L40.5061 20.2158L40.5811 20.4659C40.7812 21.1598 41.3251 21.9225 41.9127 22.3288C42.5754 22.7852 43.1693 22.9603 44.0445 22.9603C44.7134 22.954 45.1885 22.8102 45.8325 22.4289C46.5076 22.0225 47.1203 21.1911 47.3266 20.4034C47.4454 19.9408 47.4454 19.0093 47.3266 18.5654C47.0453 17.4902 46.1888 16.5524 45.1385 16.1711C44.6697 16.0023 43.6819 15.946 43.1755 16.0585C42.1253 16.2899 41.2438 16.9963 40.7874 17.9653C40.6874 18.1716 40.5874 18.4341 40.5686 18.5404L40.5311 18.7467H37.9993C35.88 18.7467 35.4361 18.7592 35.2673 18.8405C34.8922 19.0218 34.886 19.0343 34.8672 21.0723L34.8485 22.9353H33.5169H32.1853L32.1416 22.2288C32.0853 21.2723 32.0103 20.8472 31.7977 20.2158C31.1288 18.2653 29.6034 16.815 27.5717 16.2086C27.084 16.0648 26.8777 16.0398 26.0088 16.021C25.3336 16.0085 24.8773 16.0273 24.6022 16.0836ZM27.2591 17.6464C28.078 17.909 28.6282 18.2528 29.2721 18.903C29.7722 19.4031 29.8785 19.5594 30.1536 20.1283C30.7037 21.2723 30.6662 20.3409 30.6662 32C30.6662 43.6591 30.7037 42.7277 30.1536 43.8717C29.8785 44.4406 29.7722 44.5969 29.2721 45.097C28.6282 45.7409 28.0843 46.0847 27.2591 46.3598C26.8152 46.5099 26.6652 46.5286 25.8837 46.5286C25.2273 46.5286 24.9085 46.5036 24.6022 46.4223C23.0205 45.9847 21.789 44.8032 21.2514 43.2215C21.0075 42.5026 20.97 41.3773 21.1576 40.6271C21.6827 38.5141 23.4081 37.1013 25.6837 36.9075C26.1026 36.87 26.1901 36.845 26.3464 36.6887C26.5589 36.4699 26.6152 36.2386 26.5214 35.9447C26.3964 35.5821 26.1713 35.4696 25.5837 35.4821C22.9643 35.5259 20.5699 37.3888 19.826 39.952C19.6947 40.3958 19.5384 41.4086 19.5384 41.7837C19.5384 41.9775 18.9008 41.5524 18.2819 40.9397C17.7692 40.4271 17.6442 40.2646 17.3941 39.7519C16.9628 38.883 16.8815 38.5079 16.8878 37.5014C16.8878 36.7637 16.9128 36.5949 17.0566 36.1573C17.3316 35.3321 17.6755 34.7882 18.3131 34.1505C18.7945 33.6754 18.982 33.5316 19.4759 33.2878C20.4949 32.7877 20.4261 32.7939 23.4269 32.7564C26.0088 32.7189 26.0963 32.7127 26.2713 32.5876C26.3651 32.5189 26.4839 32.3563 26.5214 32.2313C26.6214 31.9312 26.5152 31.5936 26.2713 31.4124C26.0963 31.2873 26.0088 31.2811 23.4269 31.2436C20.4261 31.2061 20.4949 31.2123 19.4759 30.7122C18.982 30.4684 18.7945 30.3246 18.3131 29.8495C17.6755 29.2118 17.3316 28.6679 17.0566 27.8427C16.9128 27.4051 16.8878 27.2363 16.8878 26.4986C16.8815 25.4921 16.9628 25.117 17.3941 24.2481C17.6442 23.7354 17.7692 23.5729 18.2819 23.0603C18.9008 22.4476 19.5384 22.0225 19.5384 22.2163C19.5384 22.5914 19.6947 23.6042 19.826 24.048C20.5699 26.6112 22.9643 28.4741 25.5837 28.5179C26.1713 28.5304 26.3964 28.4179 26.5214 28.0553C26.6152 27.7614 26.5589 27.5301 26.3464 27.3113C26.1901 27.155 26.1026 27.13 25.6837 27.0925C23.7832 26.9362 22.2891 25.9485 21.5014 24.3419C20.92 23.1478 20.8763 21.6287 21.4014 20.3846C22.0078 18.9468 23.2894 17.8715 24.821 17.5339C25.4962 17.3839 26.6152 17.4339 27.2591 17.6464ZM44.6509 17.5652C45.151 17.7527 45.6637 18.2653 45.8575 18.778C46.2075 19.7345 45.7449 20.8597 44.8072 21.3224C44.3758 21.5349 43.6944 21.5537 43.2005 21.3661C42.2191 20.9973 41.6627 19.8032 42.0128 18.8155C42.3878 17.7402 43.5881 17.1776 44.6509 17.5652ZM34.8547 27.8115V31.2498H33.5106H32.1666V27.8115V24.3731H33.5106H34.8547V27.8115ZM44.8385 30.1933C45.7324 30.6247 46.2013 31.6937 45.895 32.6064C45.5824 33.5504 44.5384 34.1943 43.6132 34.0067C42.9192 33.8692 42.4004 33.4691 42.1003 32.844C41.7564 32.125 41.894 31.2061 42.4379 30.6309C43.0943 29.9432 43.9945 29.7807 44.8385 30.1933ZM34.8547 36.1885V39.6269H33.5106H32.1666V36.1885V32.7502H33.5106H34.8547V36.1885ZM44.8072 42.6776C45.7449 43.1403 46.2075 44.2655 45.8575 45.222C45.6637 45.7347 45.151 46.2473 44.6384 46.4411C43.6819 46.7912 42.5566 46.3286 42.094 45.3908C41.8815 44.9595 41.8627 44.278 42.0503 43.7842C42.2316 43.3028 42.7004 42.8214 43.1693 42.6401C43.6382 42.4526 44.3883 42.4713 44.8072 42.6776Z" stroke="white" mask="url(#path-2-outside-1_1748_1966)"/>
</svg>
