<svg width="65" height="64" viewBox="0 0 65 64" fill="none" xmlns="http://www.w3.org/2000/svg">
<circle cx="32.75" cy="32" r="32" fill="#1057FF"/>
<path d="M39.3228 25.8591L39.3228 25.8591C39.3945 25.8203 39.4548 25.7927 39.5307 25.7749C39.6033 25.7579 39.6852 25.7511 39.7978 25.7454C39.9106 25.7397 39.9944 25.7387 40.0746 25.7497C40.1563 25.7609 40.2283 25.7838 40.3188 25.8179L39.3228 25.8591ZM39.3228 25.8591C39.2327 25.9079 39.1132 25.9826 39.0543 26.0282C39.0439 26.0363 39.0342 26.0467 39.0308 26.0504L39.0302 26.0509C39.0245 26.0571 39.0175 26.0648 39.0097 26.0737C38.9939 26.0915 38.9725 26.1163 38.9461 26.1473C38.8931 26.2095 38.8184 26.2984 38.7246 26.4109C38.5368 26.6359 38.2715 26.9565 37.9482 27.3488C37.3017 28.1334 36.4229 29.2056 35.4679 30.376L32.0763 34.5321M39.3228 25.8591L32.0763 34.5321M30.1798 33.0672C28.414 31.5499 28.253 31.419 28.0776 31.3578L29.1555 35.3706C30.4982 36.5317 31.6522 37.5086 31.7199 37.5414M30.1798 33.0672L31.9973 34.629L32.0763 34.5321M30.1798 33.0672L30.2613 32.9724L32.0763 34.5321M30.1798 33.0672L30.2613 32.9724C29.379 32.2143 28.8957 31.8009 28.6112 31.5695C28.3291 31.3401 28.2296 31.2784 28.1188 31.2398L28.1188 31.2398C27.7573 31.1138 27.3972 31.1326 27.0925 31.2798C26.788 31.4269 26.5475 31.6979 26.4172 32.0606L32.0763 34.5321M32.0763 34.5321L32.1712 34.6136L35.5647 30.455C37.4746 28.1145 39.0794 26.1669 39.1309 26.127C39.1824 26.0871 39.2955 26.016 39.3823 25.969C39.5168 25.8962 39.579 25.8817 39.8041 25.8703C40.0275 25.8589 40.0999 25.8689 40.2746 25.9349C41.0209 26.2167 41.2988 27.1279 40.8418 27.7946C40.7728 27.8953 38.9812 30.0993 36.8605 32.6923C33.1759 37.1975 32.9966 37.4113 32.8221 37.509C32.4826 37.6989 32.07 37.7111 31.7199 37.5414M31.7199 37.5414L31.6654 37.6539M31.7199 37.5414L31.6654 37.6539C31.6654 37.6539 31.6654 37.6539 31.6654 37.6539M31.6654 37.6539C31.6487 37.6457 31.6305 37.6323 31.6204 37.6249C31.6064 37.6145 31.5887 37.6008 31.5679 37.5844C31.5262 37.5515 31.4696 37.5054 31.4 37.4481C31.2607 37.3332 31.0676 37.1714 30.8351 36.9745C30.3699 36.5807 29.7453 36.0459 29.0737 35.4652C27.9277 34.4742 27.3145 33.9424 26.976 33.6364C26.6407 33.3334 26.5619 33.241 26.5024 33.1312L26.5024 33.1312C26.4566 33.0466 26.4247 32.9804 26.403 32.8994C26.3819 32.821 26.3716 32.7338 26.3604 32.6095L26.3604 32.6095C26.349 32.4816 26.343 32.3938 26.3512 32.3125C26.3596 32.2284 26.3827 32.1568 26.4172 32.0606L31.6654 37.6539ZM40.9449 27.8652C41.4465 27.1336 41.1429 26.1292 40.3188 25.8179L40.9449 27.8652Z" fill="white" stroke="white" stroke-width="0.25"/>
<path d="M23.4334 16.1271L23.4334 16.1271L43.8372 16.2513L43.9846 16.0494C43.9846 16.0494 43.9846 16.0494 43.9846 16.0494C43.8833 15.9754 43.7823 15.9103 43.5771 15.8663C43.3925 15.8267 43.1201 15.8031 42.6701 15.7871C41.7643 15.7551 40.0678 15.7528 36.7446 15.7502C33.0286 15.7473 28.6155 15.7738 26.9376 15.8093C25.6076 15.8374 24.8274 15.8602 24.3439 15.9C23.862 15.9396 23.6318 15.9981 23.4334 16.1271ZM24.6035 19.0956L24.6035 19.0956L24.8252 18.0879L30.0493 18.0568C33.0325 18.039 37.1196 18.0117 39.1319 17.9963L39.13 17.7463L39.1319 17.9963L42.5725 17.9696L42.6234 18.3153C43.0741 21.3788 45.108 24.1516 47.9431 25.5785L47.9431 25.5785L48.6505 25.9345L48.5935 26.6027C48.4296 28.5218 47.5371 32.1092 46.6788 34.2849C44.2574 40.4228 40.1763 45.1329 34.7943 48.0158L33.8759 48.5078L33.2389 48.1892L33.127 48.4128L33.2389 48.1892C29.4943 46.3166 26.0452 43.2563 23.6403 39.6699L23.6403 39.6699C22.1282 37.4153 20.7862 34.54 19.9628 31.7884L19.9628 31.7883C19.4375 30.033 18.9862 27.9049 18.8986 26.7917C18.8986 26.7917 18.8986 26.7917 18.8986 26.7917L18.8422 26.0737L19.5768 25.7054C19.5768 25.7054 19.5768 25.7054 19.5768 25.7054C22.1159 24.4327 23.9656 21.9943 24.6035 19.0956Z" fill="white" stroke="white" stroke-width="0.5"/>
</svg>
