<svg width="65" height="64" viewBox="0 0 65 64" fill="none" xmlns="http://www.w3.org/2000/svg">
<circle cx="32.25" cy="32" r="32" fill="#1057FF"/>
<path d="M16.2214 29.8571V46.6952H25.1357V29.8571H16.2214ZM28.1071 17.9714V46.6952H37.0214V17.9714H28.1071ZM39.9929 33.819V46.6952H48.9071V33.819H39.9929ZM48.9071 49.6667H16.2214C15.4043 49.6667 14.7048 49.3757 14.1229 48.7938C13.541 48.2119 13.25 47.5124 13.25 46.6952V29.8571C13.25 29.04 13.541 28.3405 14.1229 27.7586C14.7048 27.1767 15.4043 26.8857 16.2214 26.8857H25.1357V17.9714C25.1357 17.1543 25.4267 16.4548 26.0086 15.8729C26.5905 15.291 27.29 15 28.1071 15H37.0214C37.8386 15 38.5381 15.291 39.12 15.8729C39.7019 16.4548 39.9929 17.1543 39.9929 17.9714V30.8476H48.9071C49.7243 30.8476 50.4238 31.1386 51.0057 31.7205C51.5876 32.3024 51.8786 33.0019 51.8786 33.819V46.6952C51.8786 47.5124 51.5876 48.2119 51.0057 48.7938C50.4238 49.3757 49.7243 49.6667 48.9071 49.6667Z" fill="white"/>
</svg>
