<svg width="65" height="64" viewBox="0 0 65 64" fill="none" xmlns="http://www.w3.org/2000/svg">
<circle cx="32.75" cy="32" r="32" fill="#1057FF"/>
<path d="M35.029 20.8853C34.2228 20.8853 33.5308 20.5964 32.953 20.0186C32.3752 19.4408 32.0864 18.7488 32.0864 17.9426C32.0864 17.1364 32.3752 16.4444 32.953 15.8667C33.5308 15.2889 34.2228 15 35.029 15C35.8352 15 36.5272 15.2889 37.105 15.8667C37.6827 16.4444 37.9716 17.1364 37.9716 17.9426C37.9716 18.7488 37.6827 19.4408 37.105 20.0186C36.5272 20.5964 35.8352 20.8853 35.029 20.8853ZM26.6042 49.6667C26.1742 49.6667 25.8316 49.5189 25.5763 49.2233C25.321 48.9276 25.2336 48.5649 25.3143 48.1349L29.9096 24.6744C30.044 24.0295 30.353 23.5323 30.8367 23.1829C31.3205 22.8336 31.8311 22.6589 32.3685 22.6589C32.906 22.6589 33.4099 22.7798 33.8802 23.0217C34.3504 23.2636 34.7334 23.6129 35.029 24.0698L36.6011 26.6496C37.1117 27.5096 37.8171 28.2755 38.7174 28.9473C39.6176 29.6191 40.6724 30.1432 41.8817 30.5194V28.3023C41.8817 28.0873 41.9623 27.8992 42.1236 27.738C42.2848 27.5767 42.4729 27.4961 42.6879 27.4961C42.9029 27.4961 43.091 27.5767 43.2522 27.738C43.4135 27.8992 43.4941 28.0873 43.4941 28.3023V48.8605C43.4941 49.0755 43.4135 49.2636 43.2522 49.4248C43.091 49.586 42.9029 49.6667 42.6879 49.6667C42.4729 49.6667 42.2848 49.586 42.1236 49.4248C41.9623 49.2636 41.8817 49.0755 41.8817 48.8605V32.9783C40.5112 32.6827 39.2212 32.1587 38.0119 31.4062C36.8026 30.6537 35.7277 29.7266 34.7871 28.6248L33.6181 34.4698L36.2786 37.0093C36.5205 37.2243 36.7086 37.4863 36.8429 37.7953C36.9773 38.1044 37.0445 38.4336 37.0445 38.7829V48.4574C37.0445 48.8067 36.9303 49.0956 36.7019 49.324C36.4734 49.5525 36.1845 49.6667 35.8352 49.6667C35.4858 49.6667 35.1969 49.5525 34.9685 49.324C34.7401 49.0956 34.6259 48.8067 34.6259 48.4574V39.831L30.5949 36.0016L27.8135 48.6992C27.7597 48.968 27.6187 49.1964 27.3902 49.3845C27.1618 49.5726 26.8998 49.6667 26.6042 49.6667ZM25.7174 33.4217L27.7329 23.1829L26.2817 22.9008C25.5024 22.7664 24.7902 22.9075 24.1453 23.324C23.5003 23.7406 23.1106 24.3385 22.9763 25.1178L21.767 31.4465C21.7132 31.7421 21.7871 32.0377 21.9887 32.3333C22.1902 32.6289 22.4254 32.8036 22.6941 32.8574L25.7174 33.4217Z" fill="white"/>
</svg>
