<svg width="52" height="48" viewBox="0 0 52 48" fill="none" xmlns="http://www.w3.org/2000/svg">
<path d="M20.9714 26.7429L22.9714 20.2286L17.7143 16H24.2286L26.2857 9.6L28.3429 16H34.8571L29.5429 20.2286L31.5429 26.7429L26.2857 22.6857L20.9714 26.7429ZM12.5714 48V30.3429C11.1238 28.7429 10 26.9143 9.2 24.8571C8.4 22.8 8 20.6095 8 18.2857C8 13.181 9.77143 8.85714 13.3143 5.31429C16.8571 1.77143 21.181 0 26.2857 0C31.3905 0 35.7143 1.77143 39.2571 5.31429C42.8 8.85714 44.5714 13.181 44.5714 18.2857C44.5714 20.6095 44.1714 22.8 43.3714 24.8571C42.5714 26.9143 41.4476 28.7429 40 30.3429V48L26.2857 43.4286L12.5714 48ZM26.2857 32C30.0952 32 33.3333 30.6667 36 28C38.6667 25.3333 40 22.0952 40 18.2857C40 14.4762 38.6667 11.2381 36 8.57143C33.3333 5.90476 30.0952 4.57143 26.2857 4.57143C22.4762 4.57143 19.2381 5.90476 16.5714 8.57143C13.9048 11.2381 12.5714 14.4762 12.5714 18.2857C12.5714 22.0952 13.9048 25.3333 16.5714 28C19.2381 30.6667 22.4762 32 26.2857 32ZM17.1429 41.2L26.2857 38.8571L35.4286 41.2V34.1143C34.0952 34.8762 32.6571 35.4762 31.1143 35.9143C29.5714 36.3524 27.9619 36.5714 26.2857 36.5714C24.6095 36.5714 23 36.3524 21.4571 35.9143C19.9143 35.4762 18.4762 34.8762 17.1429 34.1143V41.2Z" fill="#1057FF"/>
</svg>
