<svg width="52" height="48" viewBox="0 0 52 48" fill="none" xmlns="http://www.w3.org/2000/svg">
<path fill-rule="evenodd" clip-rule="evenodd" d="M24.8395 0.0830318C22.4899 0.331534 20.198 1.44393 18.484 3.16786C17.1619 4.49749 16.1856 6.19983 15.6959 8.02862C15.4739 8.85787 15.4502 9.10956 15.4502 10.6363C15.4502 12.1682 15.4734 12.414 15.6998 13.265C16.1887 15.1036 17.5115 17.3186 18.7663 18.4L19.2199 18.7909L18.0779 19.2687C14.9253 20.5877 12.0155 22.8424 9.98252 25.5416C8.90463 26.9726 8.72493 27.5119 9.05918 28.3124C9.37353 29.0652 9.99716 29.4895 10.7905 29.4902C11.6137 29.491 11.8847 29.2956 12.8515 28.0043C13.7452 26.8106 14.5138 26.0047 15.5674 25.1569C17.7657 23.3878 20.0813 22.2962 22.8081 21.7437C23.7468 21.5535 24.1432 21.5272 25.9916 21.5317C27.8147 21.5361 28.2374 21.5656 29.0882 21.7482C33.2097 22.6326 36.5575 24.7705 39.0455 28.1071C39.5673 28.8068 39.8425 29.0892 40.1575 29.2482C41.4157 29.8833 42.8821 28.9864 42.8821 27.5818C42.8821 27.0382 42.7226 26.7188 41.9209 25.6571C39.6169 22.6054 36.5491 20.3015 32.9839 18.9453C32.7632 18.8614 32.7786 18.8368 33.5264 18.0775C34.8315 16.7526 35.8037 15.0506 36.2873 13.2441C36.5093 12.4151 36.5331 12.1626 36.5333 10.6363C36.5336 9.08694 36.5123 8.86848 36.2773 8.00769C35.7718 6.15561 34.8273 4.51148 33.4985 3.17002C31.7457 1.40065 29.5203 0.337636 27.0238 0.0771174C26.027 -0.0269024 25.8749 -0.026433 24.8395 0.0830318ZM24.3131 4.01663C21.8882 4.6707 20.1718 6.34712 19.41 8.80567C19.0986 9.81076 19.0986 11.4619 19.41 12.467C20.1121 14.7327 21.723 16.4101 23.9011 17.1434C24.5553 17.3636 24.7721 17.3891 25.9916 17.3889C27.219 17.3887 27.4257 17.364 28.1029 17.1365C29.1905 16.7711 29.9702 16.2786 30.8399 15.4081C31.463 14.7845 31.6867 14.4772 32.0362 13.7652C32.6276 12.5605 32.7886 11.8907 32.7886 10.6363C32.7886 9.382 32.6276 8.71217 32.0362 7.50749C31.2752 5.95724 29.8064 4.70065 28.1029 4.14253C27.0577 3.80005 25.3289 3.74259 24.3131 4.01663ZM25.5614 26.307C25.0917 26.5117 24.8878 26.8753 24.431 28.3234C23.7636 30.4389 23.6673 30.6639 23.3616 30.822C23.1481 30.9325 22.6802 30.9615 21.1138 30.9615C18.9705 30.9615 18.7285 31.0054 18.297 31.4733C17.9847 31.8121 17.9577 32.7034 18.2501 33.0274C18.3533 33.1418 19.081 33.6991 19.8672 34.2657C21.4878 35.4339 21.769 35.7159 21.769 36.1732C21.769 36.3467 21.4945 37.2803 21.159 38.248C20.8236 39.2156 20.5491 40.1461 20.5491 40.316C20.5491 40.7312 21.0111 41.2539 21.4926 41.3837C21.9983 41.5199 22.2361 41.4027 23.8924 40.2015C24.6599 39.6449 25.4462 39.1272 25.6397 39.0512C26.1376 38.8555 26.4131 38.9848 28.0908 40.2015C29.7471 41.4027 29.9849 41.5199 30.4906 41.3837C30.9721 41.2539 31.4341 40.7312 31.4341 40.316C31.4341 40.1461 31.1596 39.2156 30.8242 38.248C30.4887 37.2803 30.2142 36.3467 30.2142 36.1732C30.2142 35.7173 30.4857 35.4452 32.1116 34.2715C32.9002 33.7023 33.6254 33.1475 33.7233 33.0387C33.8256 32.9251 33.9189 32.651 33.9428 32.3941C33.9762 32.0355 33.9406 31.8824 33.763 31.6187C33.3541 31.0116 33.1363 30.9618 30.8898 30.9617C29.3055 30.9615 28.8353 30.9326 28.6216 30.822C28.3159 30.6639 28.2196 30.4389 27.5522 28.3234C27.09 26.858 26.8902 26.5075 26.4011 26.3031C26.0243 26.1455 25.9313 26.1459 25.5614 26.307ZM9.51541 32.8786C9.04576 33.0833 8.84185 33.447 8.38506 34.895C7.7176 37.0105 7.62133 37.2356 7.31561 37.3936C7.10213 37.5041 6.63427 37.5332 5.06786 37.5332C2.92455 37.5332 2.68255 37.5771 2.25109 38.045C1.93871 38.3837 1.91178 39.275 2.20418 39.599C2.30739 39.7134 3.03509 40.2707 3.82125 40.8374C5.4418 42.0055 5.72303 42.2876 5.72303 42.7448C5.72303 42.9183 5.44855 43.852 5.11309 44.8196C4.77763 45.7872 4.50316 46.7178 4.50316 46.8876C4.50316 47.3028 4.96511 47.8256 5.44668 47.9553C5.95236 48.0915 6.19014 47.9744 7.84644 46.7732C9.52413 45.5565 9.79964 45.4271 10.2975 45.6228C10.4911 45.6989 11.2774 46.2165 12.0449 46.7732C13.7011 47.9744 13.9389 48.0915 14.4446 47.9553C14.9262 47.8256 15.3881 47.3028 15.3881 46.8876C15.3881 46.7178 15.1137 45.7872 14.7782 44.8196C14.4427 43.852 14.1683 42.9183 14.1683 42.7448C14.1683 42.289 14.4397 42.0169 16.0656 40.8432C16.8542 40.2739 17.5795 39.7192 17.6774 39.6104C17.7796 39.4968 17.8729 39.2226 17.8968 38.9658C17.9302 38.6071 17.8947 38.454 17.717 38.1903C17.3081 37.5833 17.0903 37.5334 14.8439 37.5333C13.2596 37.5332 12.7893 37.5042 12.5757 37.3936C12.27 37.2356 12.1737 37.0105 11.5062 34.895C11.044 33.4296 10.8442 33.0792 10.3551 32.8747C9.9783 32.7172 9.88531 32.7175 9.51541 32.8786ZM41.6073 32.8786C41.1377 33.0833 40.9338 33.447 40.477 34.895C39.8095 37.0105 39.7132 37.2356 39.4075 37.3936C39.194 37.5041 38.7262 37.5332 37.1598 37.5332C35.0165 37.5332 34.7745 37.5771 34.343 38.045C34.0306 38.3837 34.0037 39.275 34.2961 39.599C34.3993 39.7134 35.127 40.2707 35.9132 40.8374C37.5337 42.0055 37.8149 42.2876 37.8149 42.7448C37.8149 42.9183 37.5405 43.852 37.205 44.8196C36.8695 45.7872 36.5951 46.7178 36.5951 46.8876C36.5951 47.3028 37.057 47.8256 37.5386 47.9553C38.0443 48.0915 38.2821 47.9744 39.9384 46.7732C40.7058 46.2165 41.4922 45.6989 41.6857 45.6228C42.1836 45.4271 42.4591 45.5565 44.1368 46.7732C45.7931 47.9744 46.0308 48.0915 46.5365 47.9553C47.0181 47.8256 47.48 47.3028 47.48 46.8876C47.48 46.7178 47.2056 45.7872 46.8701 44.8196C46.5346 43.852 46.2602 42.9183 46.2602 42.7448C46.2602 42.289 46.5316 42.0169 48.1575 40.8432C48.9461 40.2739 49.6714 39.7192 49.7693 39.6104C49.8715 39.4968 49.9648 39.2226 49.9887 38.9658C50.0222 38.6071 49.9866 38.454 49.809 38.1903C49.4 37.5833 49.1822 37.5334 46.9358 37.5333C45.3515 37.5332 44.8813 37.5042 44.6676 37.3936C44.3619 37.2356 44.2656 37.0105 43.5981 34.895C43.1359 33.4296 42.9361 33.0792 42.4471 32.8747C42.0702 32.7172 41.9772 32.7175 41.6073 32.8786Z" fill="#1057FF"/>
</svg>
