<svg width="52" height="52" viewBox="0 0 52 52" fill="none" xmlns="http://www.w3.org/2000/svg">
<circle cx="26" cy="26" r="26" fill="#1057FF"/>
<path d="M36.1925 15.9393C34.3836 14.7598 33.0784 12.8721 32.6712 10.6729C32.5832 10.1978 32.5343 9.70845 32.5343 9.20801H26.7609L26.7512 32.3465C26.6547 34.938 24.522 37.0173 21.9076 37.0173C21.0951 37.0173 20.3301 36.8147 19.6563 36.4595C18.1113 35.6469 17.0537 34.0277 17.0537 32.1647C17.0537 29.4885 19.2314 27.3107 21.907 27.3107C22.4068 27.3107 22.8857 27.3935 23.3386 27.5349V21.641C22.8694 21.5765 22.3931 21.5374 21.907 21.5374C16.0476 21.5374 11.2803 26.304 11.2803 32.1647C11.2803 35.7597 13.0762 38.9416 15.8176 40.8651C17.5431 42.0778 19.6433 42.7913 21.9076 42.7913C27.7677 42.7913 32.5343 38.0241 32.5343 32.1647V20.4309C34.7987 22.0561 37.5733 23.0139 40.5675 23.0139V17.2399C38.9548 17.2399 37.4528 16.761 36.1925 15.9393Z" fill="#FAFCFE"/>
</svg>
