<svg width="52" height="48" viewBox="0 0 52 48" fill="none" xmlns="http://www.w3.org/2000/svg">
<path d="M26 48C24.96 48 24.02 47.75 23.18 47.25C22.34 46.75 21.68 46.08 21.2 45.24C19.88 45.24 18.75 44.77 17.81 43.83C16.87 42.89 16.4 41.76 16.4 40.44V31.92C14.04 30.36 12.15 28.3 10.73 25.74C9.30998 23.18 8.59998 20.4 8.59998 17.4C8.59998 12.56 10.29 8.45 13.67 5.07C17.05 1.69 21.16 0 26 0C30.84 0 34.95 1.69 38.33 5.07C41.71 8.45 43.4 12.56 43.4 17.4C43.4 20.48 42.69 23.28 41.27 25.8C39.85 28.32 37.96 30.36 35.6 31.92V40.44C35.6 41.76 35.13 42.89 34.19 43.83C33.25 44.77 32.12 45.24 30.8 45.24C30.32 46.08 29.66 46.75 28.82 47.25C27.98 47.75 27.04 48 26 48ZM21.2 40.44H30.8V38.28H21.2V40.44ZM21.2 35.88H30.8V33.6H21.2V35.88ZM20.72 28.8H24.2V22.32L18.92 17.04L21.44 14.52L26 19.08L30.56 14.52L33.08 17.04L27.8 22.32V28.8H31.28C33.44 27.76 35.2 26.23 36.56 24.21C37.92 22.19 38.6 19.92 38.6 17.4C38.6 13.88 37.38 10.9 34.94 8.46C32.5 6.02 29.52 4.8 26 4.8C22.48 4.8 19.5 6.02 17.06 8.46C14.62 10.9 13.4 13.88 13.4 17.4C13.4 19.92 14.08 22.19 15.44 24.21C16.8 26.23 18.56 27.76 20.72 28.8Z" fill="#1057FF"/>
</svg>
