<svg width="56" height="48" viewBox="0 0 56 48" fill="none" xmlns="http://www.w3.org/2000/svg">
<path d="M17.8462 4.9231L22.454 17.309L35.6923 17.8505L25.3023 26.0484L28.8751 38.7692L17.8462 31.4496L6.81723 38.7692L10.39 26.0484L0 17.8505L13.2383 17.309L17.8462 4.9231Z" fill="#1057FF"/>
<path d="M48.6154 10.1538L50.2837 14.6578L55.0769 14.8547L51.315 17.8358L52.6086 22.4615L48.6154 19.7998L44.6221 22.4615L45.9157 17.8358L42.1538 14.8547L46.947 14.6578L48.6154 10.1538Z" fill="#1057FF"/>
<path d="M48.6154 37.8462L46.947 33.3422L42.1538 33.1453L45.9157 30.1642L44.6221 25.5385L48.6154 28.2002L52.6086 25.5385L51.315 30.1642L55.0769 33.1453L50.2837 33.3422L48.6154 37.8462Z" fill="#1057FF"/>
<path d="M40.3077 12.3076L38.6393 7.80365L33.8461 7.60673L37.6081 4.62567L36.3145 -7.53006e-05L40.3077 2.66162L44.3009 -7.46024e-05L43.0073 4.62567L46.7692 7.60673L41.9761 7.80365L40.3077 12.3076Z" fill="#1057FF"/>
<path d="M40.3077 35.6924L41.9761 40.1964L46.7692 40.3933L43.0073 43.3743L44.3009 48.0001L40.3077 45.3384L36.3145 48.0001L37.6081 43.3743L33.8462 40.3933L38.6393 40.1964L40.3077 35.6924Z" fill="#1057FF"/>
</svg>
